Chivo-BlackItalic.ufo
<glyph name="exclam" format="1">
  <advance width="315"/>
  <unicode hex="0021"/>
  <outline>
    <contour>
      <point x="215" y="231" type="line"/>
      <point x="88" y="231" type="line"/>
      <point x="88" y="686" type="line"/>
      <point x="336" y="686" type="line"/>
    </contour>
    <contour>
      <point x="216" y="0" type="line"/>
      <point x="25" y="0" type="line"/>
      <point x="51" y="183" type="line"/>
      <point x="242" y="183" type="line"/>
    </contour>
  </outline>
</glyph>
<glyph name="numbersign" format="1">
  <advance width="661"/>
  <unicode hex="0023"/>
  <outline>
    <contour>
      <point x="570" y="502" type="line"/>
      <point x="661" y="502" type="line"/>
      <point x="646" y="394" type="line"/>
      <point x="536" y="394" type="line"/>
      <point x="493" y="273" type="line"/>
      <point x="597" y="273" type="line"/>
      <point x="582" y="166" type="line"/>
      <point x="451" y="166" type="line"/>
      <point x="392" y="0" type="line"/>
      <point x="276" y="0" type="line"/>
      <point x="335" y="166" type="line"/>
      <point x="223" y="166" type="line"/>
      <point x="165" y="0" type="line"/>
      <point x="48" y="0" type="line"/>
      <point x="106" y="166" type="line"/>
      <point x="9" y="166" type="line"/>
      <point x="24" y="273" type="line"/>
      <point x="146" y="273" type="line"/>
      <point x="191" y="394" type="line"/>
      <point x="85" y="394" type="line"/>
      <point x="100" y="502" type="line"/>
      <point x="227" y="502" type="line"/>
      <point x="297" y="696" type="line"/>
      <point x="416" y="696" type="line"/>
      <point x="345" y="502" type="line"/>
      <point x="455" y="502" type="line"/>
      <point x="525" y="696" type="line"/>
      <point x="642" y="696" type="line"/>
    </contour>
    <contour>
      <point x="306" y="393" type="line"/>
      <point x="262" y="272" type="line"/>
      <point x="375" y="272" type="line"/>
      <point x="420" y="393" type="line"/>
    </contour>
  </outline>
</glyph>
<glyph name="percent" format="1">
  <advance width="715"/>
  <unicode hex="0025"/>
  <outline>
    <contour>
      <point x="155" y="0" type="line"/>
      <point x="60" y="0" type="line"/>
      <point x="576" y="686" type="line"/>
      <point x="669" y="686" type="line"/>
    </contour>
    <contour>
      <point x="207" y="685" type="curve" smooth="yes"/>
      <point x="229" y="685" type="line" smooth="yes"/>
      <point x="292" y="685"/>
      <point x="336" y="640"/>
      <point x="336" y="580" type="curve" smooth="yes"/>
      <point x="336" y="571" type="line" smooth="yes"/>
      <point x="336" y="568"/>
      <point x="336" y="565"/>
      <point x="335" y="562" type="curve" smooth="yes"/>
      <point x="321" y="460" type="line" smooth="yes"/>
      <point x="310" y="392"/>
      <point x="260" y="337"/>
      <point x="180" y="337" type="curve" smooth="yes"/>
      <point x="158" y="337" type="line" smooth="yes"/>
      <point x="95" y="337"/>
      <point x="51" y="382"/>
      <point x="51" y="442" type="curve" smooth="yes"/>
      <point x="51" y="451" type="line" smooth="yes"/>
      <point x="51" y="454"/>
      <point x="51" y="457"/>
      <point x="52" y="460" type="curve" smooth="yes"/>
      <point x="66" y="562" type="line" smooth="yes"/>
      <point x="75" y="630"/>
      <point x="129" y="685"/>
    </contour>
    <contour>
      <point x="208" y="614" type="curve" smooth="yes"/>
      <point x="188" y="614"/>
      <point x="168" y="598"/>
      <point x="165" y="575" type="curve" smooth="yes"/>
      <point x="146" y="447"/>
      <point x="146" y="445"/>
      <point x="146" y="442" type="curve" smooth="yes"/>
      <point x="146" y="423"/>
      <point x="160" y="409"/>
      <point x="179" y="409" type="curve" smooth="yes"/>
      <point x="200" y="409"/>
      <point x="218" y="425"/>
      <point x="221" y="448" type="curve" smooth="yes"/>
      <point x="230" y="510" type="line" smooth="yes"/>
      <point x="235" y="542"/>
      <point x="238" y="574"/>
      <point x="239" y="581" type="curve" smooth="yes"/>
      <point x="239" y="600"/>
      <point x="227" y="614"/>
    </contour>
    <contour>
      <point x="550" y="347" type="curve" smooth="yes"/>
      <point x="572" y="347" type="line" smooth="yes"/>
      <point x="635" y="347"/>
      <point x="679" y="302"/>
      <point x="679" y="242" type="curve" smooth="yes"/>
      <point x="679" y="233" type="line" smooth="yes"/>
      <point x="679" y="230"/>
      <point x="679" y="227"/>
      <point x="678" y="224" type="curve" smooth="yes"/>
      <point x="664" y="122" type="line" smooth="yes"/>
      <point x="653" y="54"/>
      <point x="603" y="-1"/>
      <point x="523" y="-1" type="curve" smooth="yes"/>
      <point x="501" y="-1" type="line" smooth="yes"/>
      <point x="438" y="-1"/>
      <point x="394" y="44"/>
      <point x="394" y="104" type="curve" smooth="yes"/>
      <point x="394" y="113" type="line" smooth="yes"/>
      <point x="394" y="116"/>
      <point x="394" y="119"/>
      <point x="395" y="122" type="curve" smooth="yes"/>
      <point x="409" y="224" type="line" smooth="yes"/>
      <point x="418" y="292"/>
      <point x="472" y="347"/>
    </contour>
    <contour>
      <point x="551" y="276" type="curve" smooth="yes"/>
      <point x="531" y="276"/>
      <point x="511" y="260"/>
      <point x="508" y="237" type="curve" smooth="yes"/>
      <point x="489" y="109"/>
      <point x="489" y="107"/>
      <point x="489" y="104" type="curve" smooth="yes"/>
      <point x="489" y="85"/>
      <point x="503" y="71"/>
      <point x="522" y="71" type="curve" smooth="yes"/>
      <point x="543" y="71"/>
      <point x="561" y="87"/>
      <point x="564" y="110" type="curve" smooth="yes"/>
      <point x="573" y="172" type="line" smooth="yes"/>
      <point x="578" y="204"/>
      <point x="581" y="236"/>
      <point x="582" y="243" type="curve" smooth="yes"/>
      <point x="582" y="262"/>
      <point x="570" y="276"/>
    </contour>
  </outline>
</glyph>
<glyph name="ampersand" format="1">
  <advance width="709"/>
  <unicode hex="0026"/>
  <outline>
    <contour>
      <point x="351" y="696" type="curve" smooth="yes"/>
      <point x="368" y="696"/>
      <point x="385" y="695"/>
      <point x="401" y="693" type="curve"/>
      <point x="380" y="543" type="line"/>
      <point x="371" y="546"/>
      <point x="363" y="548"/>
      <point x="352" y="548" type="curve" smooth="yes"/>
      <point x="299" y="548"/>
      <point x="269" y="522"/>
      <point x="269" y="475" type="curve" smooth="yes"/>
      <point x="269" y="451"/>
      <point x="283" y="421"/>
      <point x="325" y="421" type="curve" smooth="yes"/>
      <point x="446" y="421" type="line"/>
      <point x="516" y="540" type="line"/>
      <point x="653" y="540" type="line"/>
      <point x="637" y="421" type="line"/>
      <point x="717" y="421" type="line"/>
      <point x="697" y="279" type="line"/>
      <point x="617" y="279" type="line"/>
      <point x="578" y="0" type="line"/>
      <point x="259" y="0" type="line" smooth="yes"/>
      <point x="129" y="0"/>
      <point x="12" y="38"/>
      <point x="12" y="166" type="curve" smooth="yes"/>
      <point x="12" y="270"/>
      <point x="65" y="335"/>
      <point x="160" y="358" type="curve"/>
      <point x="104" y="377"/>
      <point x="77" y="423"/>
      <point x="77" y="479" type="curve" smooth="yes"/>
      <point x="77" y="624"/>
      <point x="203" y="696"/>
    </contour>
    <contour>
      <point x="419" y="279" type="line"/>
      <point x="305" y="279" type="line" smooth="yes"/>
      <point x="225" y="279"/>
      <point x="214" y="227"/>
      <point x="214" y="199" type="curve" smooth="yes"/>
      <point x="214" y="156"/>
      <point x="249" y="138"/>
      <point x="290" y="138" type="curve" smooth="yes"/>
      <point x="399" y="138" type="line"/>
    </contour>
  </outline>
</glyph>
<glyph name="quotesingle" format="1">
  <advance width="230"/>
  <unicode hex="0027"/>
  <outline>
    <contour>
      <point x="226" y="539" type="line"/>
      <point x="159" y="396" type="line"/>
      <point x="98" y="396" type="line"/>
      <point x="71" y="539" type="line"/>
      <point x="92" y="686" type="line"/>
      <point x="247" y="686" type="line"/>
    </contour>
  </outline>
</glyph>
<glyph name="parenleft" format="1">
  <advance width="311"/>
  <unicode hex="0028"/>
  <outline>
    <contour>
      <point x="244" y="686" type="curve"/>
      <point x="352" y="686" type="line"/>
      <point x="242" y="528"/>
      <point x="175" y="340"/>
      <point x="175" y="158" type="curve" smooth="yes"/>
      <point x="175" y="47"/>
      <point x="194" y="-70"/>
      <point x="233" y="-158" type="curve"/>
      <point x="125" y="-158" type="line"/>
      <point x="56" y="-65"/>
      <point x="19" y="50"/>
      <point x="19" y="174" type="curve" smooth="yes"/>
      <point x="19" y="359"/>
      <point x="103" y="548"/>
    </contour>
  </outline>
</glyph>
<glyph name="parenright" format="1">
  <advance width="312"/>
  <unicode hex="0029"/>
  <outline>
    <contour>
      <point x="71" y="686" type="curve"/>
      <point x="179" y="686" type="line"/>
      <point x="250" y="591"/>
      <point x="285" y="476"/>
      <point x="285" y="351" type="curve" smooth="yes"/>
      <point x="285" y="165"/>
      <point x="200" y="-20"/>
      <point x="60" y="-158" type="curve"/>
      <point x="-48" y="-158" type="line"/>
      <point x="60" y="-5"/>
      <point x="129" y="187"/>
      <point x="129" y="368" type="curve" smooth="yes"/>
      <point x="129" y="479"/>
      <point x="108" y="598"/>
    </contour>
  </outline>
</glyph>
<glyph name="asterisk" format="1">
  <advance width="506"/>
  <unicode hex="002A"/>
  <outline>
    <contour>
      <point x="331" y="533" type="line"/>
      <point x="487" y="593" type="line"/>
      <point x="507" y="483" type="line"/>
      <point x="352" y="448" type="line"/>
      <point x="436" y="335" type="line"/>
      <point x="326" y="265" type="line"/>
      <point x="265" y="396" type="line"/>
      <point x="169" y="265" type="line"/>
      <point x="79" y="335" type="line"/>
      <point x="195" y="448" type="line"/>
      <point x="53" y="483" type="line"/>
      <point x="107" y="593" type="line"/>
      <point x="247" y="533" type="line"/>
      <point x="247" y="686" type="line"/>
      <point x="367" y="686" type="line"/>
    </contour>
  </outline>
</glyph>
<glyph name="plus" format="1">
  <advance width="615"/>
  <unicode hex="002B"/>
  <outline>
    <contour>
      <point x="375" y="320" type="line"/>
      <point x="567" y="320" type="line"/>
      <point x="550" y="192" type="line"/>
      <point x="358" y="192" type="line"/>
      <point x="331" y="0" type="line"/>
      <point x="203" y="0" type="line"/>
      <point x="230" y="192" type="line"/>
      <point x="38" y="192" type="line"/>
      <point x="55" y="320" type="line"/>
      <point x="247" y="320" type="line"/>
      <point x="274" y="512" type="line"/>
      <point x="402" y="512" type="line"/>
    </contour>
  </outline>
</glyph>
<glyph name="comma" format="1">
  <advance width="286"/>
  <unicode hex="002C"/>
  <outline>
    <contour>
      <point x="201" y="22" type="line"/>
      <point x="125" y="-165" type="line"/>
      <point x="31" y="-165" type="line"/>
      <point x="91" y="0" type="line"/>
      <point x="7" y="0" type="line"/>
      <point x="33" y="183" type="line"/>
      <point x="224" y="183" type="line"/>
    </contour>
  </outline>
</glyph>
<glyph name="period" format="1">
  <advance width="287"/>
  <unicode hex="002E"/>
  <outline>
    <contour>
      <point x="199" y="0" type="line"/>
      <point x="8" y="0" type="line"/>
      <point x="33" y="183" type="line"/>
      <point x="224" y="183" type="line"/>
    </contour>
  </outline>
</glyph>
<glyph name="slash" format="1">
  <advance width="541"/>
  <unicode hex="002F"/>
  <outline>
    <contour>
      <point x="88" y="-171" type="line"/>
      <point x="-44" y="-171" type="line"/>
      <point x="446" y="686" type="line"/>
      <point x="577" y="686" type="line"/>
    </contour>
  </outline>
</glyph>
<glyph name="zero" format="1">
  <advance width="615"/>
  <unicode hex="0030"/>
  <outline>
    <contour>
      <point x="342" y="696" type="curve" smooth="yes"/>
      <point x="387" y="696" type="line" smooth="yes"/>
      <point x="513" y="696"/>
      <point x="604" y="603"/>
      <point x="604" y="480" type="curve" smooth="yes"/>
      <point x="603" y="469"/>
      <point x="604" y="459"/>
      <point x="602" y="446" type="curve" smooth="yes"/>
      <point x="573" y="240" type="line" smooth="yes"/>
      <point x="553" y="101"/>
      <point x="447" y="-10"/>
      <point x="288" y="-10" type="curve" smooth="yes"/>
      <point x="243" y="-10" type="line" smooth="yes"/>
      <point x="118" y="-10"/>
      <point x="25" y="84"/>
      <point x="25" y="205" type="curve" smooth="yes"/>
      <point x="25" y="216"/>
      <point x="26" y="228"/>
      <point x="28" y="240" type="curve" smooth="yes"/>
      <point x="57" y="446" type="line" smooth="yes"/>
      <point x="78" y="598"/>
      <point x="203" y="696"/>
    </contour>
    <contour>
      <point x="345" y="552" type="curve" smooth="yes"/>
      <point x="302" y="552"/>
      <point x="267" y="529"/>
      <point x="259" y="472" type="curve" smooth="yes"/>
      <point x="223" y="215" type="line" smooth="yes"/>
      <point x="222" y="212"/>
      <point x="222" y="207"/>
      <point x="222" y="202" type="curve" smooth="yes"/>
      <point x="222" y="163"/>
      <point x="248" y="135"/>
      <point x="285" y="135" type="curve" smooth="yes"/>
      <point x="337" y="135"/>
      <point x="366" y="171"/>
      <point x="372" y="215" type="curve" smooth="yes"/>
      <point x="409" y="484" type="line"/>
      <point x="409" y="523"/>
      <point x="382" y="552"/>
    </contour>
  </outline>
</glyph>
<glyph name="one" format="1">
  <advance width="615"/>
  <unicode hex="0031"/>
  <outline>
    <contour>
      <point x="402" y="153" type="line"/>
      <point x="548" y="153" type="line"/>
      <point x="527" y="0" type="line"/>
      <point x="33" y="0" type="line"/>
      <point x="54" y="153" type="line"/>
      <point x="206" y="153" type="line"/>
      <point x="251" y="473" type="line"/>
      <point x="99" y="473" type="line"/>
      <point x="115" y="588" type="line"/>
      <point x="205" y="593"/>
      <point x="331" y="645"/>
      <point x="411" y="696" type="curve"/>
      <point x="478" y="696" type="line"/>
    </contour>
  </outline>
</glyph>
<glyph name="two" format="1">
  <advance width="615"/>
  <unicode hex="0032"/>
  <outline>
    <contour>
      <point x="350" y="696" type="curve" smooth="yes"/>
      <point x="381" y="696" type="line" smooth="yes"/>
      <point x="516" y="696"/>
      <point x="597" y="620"/>
      <point x="597" y="508" type="curve" smooth="yes"/>
      <point x="597" y="329"/>
      <point x="427" y="256"/>
      <point x="290" y="168" type="curve"/>
      <point x="553" y="168" type="line"/>
      <point x="530" y="0" type="line"/>
      <point x="-4" y="0" type="line"/>
      <point x="1" y="36" type="line" smooth="yes"/>
      <point x="11" y="111"/>
      <point x="36" y="161"/>
      <point x="104" y="209" type="curve" smooth="yes"/>
      <point x="355" y="388"/>
      <point x="393" y="410"/>
      <point x="393" y="479" type="curve" smooth="yes"/>
      <point x="393" y="514"/>
      <point x="368" y="540"/>
      <point x="332" y="540" type="curve" smooth="yes"/>
      <point x="319" y="540" type="line" smooth="yes"/>
      <point x="280" y="540"/>
      <point x="246" y="510"/>
      <point x="240" y="470" type="curve" smooth="yes"/>
      <point x="236" y="442" type="line"/>
      <point x="60" y="442" type="line"/>
      <point x="71" y="597"/>
      <point x="187" y="696"/>
    </contour>
  </outline>
</glyph>
<glyph name="three" format="1">
  <advance width="615"/>
  <unicode hex="0033"/>
  <outline>
    <contour>
      <point x="351" y="696" type="curve" smooth="yes"/>
      <point x="381" y="696" type="line" smooth="yes"/>
      <point x="514" y="696"/>
      <point x="596" y="623"/>
      <point x="596" y="532" type="curve" smooth="yes"/>
      <point x="596" y="454"/>
      <point x="544" y="385"/>
      <point x="479" y="359" type="curve"/>
      <point x="539" y="336"/>
      <point x="572" y="289"/>
      <point x="572" y="221" type="curve" smooth="yes"/>
      <point x="572" y="72"/>
      <point x="440" y="-10"/>
      <point x="282" y="-10" type="curve" smooth="yes"/>
      <point x="240" y="-10" type="line" smooth="yes"/>
      <point x="85" y="-10"/>
      <point x="7" y="64"/>
      <point x="7" y="161" type="curve" smooth="yes"/>
      <point x="7" y="172"/>
      <point x="8" y="181"/>
      <point x="9" y="192" type="curve" smooth="yes"/>
      <point x="12" y="209" type="line"/>
      <point x="187" y="209" type="line" smooth="yes"/>
      <point x="186" y="206"/>
      <point x="186" y="201"/>
      <point x="186" y="196" type="curve" smooth="yes"/>
      <point x="186" y="163"/>
      <point x="206" y="139"/>
      <point x="257" y="139" type="curve" smooth="yes"/>
      <point x="284" y="139" type="line" smooth="yes"/>
      <point x="341" y="139"/>
      <point x="376" y="175"/>
      <point x="376" y="231" type="curve" smooth="yes"/>
      <point x="376" y="270"/>
      <point x="350" y="289"/>
      <point x="315" y="289" type="curve" smooth="yes"/>
      <point x="211" y="289" type="line"/>
      <point x="228" y="412" type="line"/>
      <point x="316" y="412" type="line" smooth="yes"/>
      <point x="354" y="412"/>
      <point x="396" y="437"/>
      <point x="396" y="492" type="curve" smooth="yes"/>
      <point x="396" y="523"/>
      <point x="371" y="547"/>
      <point x="335" y="547" type="curve" smooth="yes"/>
      <point x="317" y="547" type="line" smooth="yes"/>
      <point x="278" y="547"/>
      <point x="243" y="519"/>
      <point x="238" y="484" type="curve"/>
      <point x="71" y="484" type="line"/>
      <point x="71" y="608"/>
      <point x="198" y="696"/>
    </contour>
  </outline>
</glyph>
<glyph name="four" format="1">
  <advance width="615"/>
  <unicode hex="0034"/>
  <outline>
    <contour>
      <point x="234" y="696" type="curve"/>
      <point x="411" y="696" type="line"/>
      <point x="383" y="591"/>
      <point x="235" y="381"/>
      <point x="152" y="298" type="curve"/>
      <point x="302" y="298" type="line"/>
      <point x="317" y="400" type="line"/>
      <point x="358" y="449"/>
      <point x="432" y="573"/>
      <point x="454" y="630" type="curve"/>
      <point x="537" y="630" type="line"/>
      <point x="490" y="298" type="line"/>
      <point x="588" y="298" type="line"/>
      <point x="568" y="151" type="line"/>
      <point x="470" y="151" type="line"/>
      <point x="449" y="0" type="line"/>
      <point x="261" y="0" type="line"/>
      <point x="282" y="151" type="line"/>
      <point x="3" y="151" type="line"/>
      <point x="23" y="300" type="line"/>
      <point x="83" y="388"/>
      <point x="202" y="599"/>
    </contour>
  </outline>
</glyph>
<glyph name="five" format="1">
  <advance width="615"/>
  <unicode hex="0035"/>
  <outline>
    <contour>
      <point x="560" y="516" type="line"/>
      <point x="269" y="516" type="line"/>
      <point x="246" y="414" type="line"/>
      <point x="271" y="432"/>
      <point x="314" y="459"/>
      <point x="380" y="459" type="curve" smooth="yes"/>
      <point x="500" y="459"/>
      <point x="573" y="389"/>
      <point x="573" y="269" type="curve" smooth="yes"/>
      <point x="573" y="105"/>
      <point x="441" y="-10"/>
      <point x="277" y="-10" type="curve" smooth="yes"/>
      <point x="247" y="-10" type="line" smooth="yes"/>
      <point x="99" y="-10"/>
      <point x="17" y="77"/>
      <point x="17" y="191" type="curve" smooth="yes"/>
      <point x="17" y="208" type="line" smooth="yes"/>
      <point x="17" y="213"/>
      <point x="18" y="219"/>
      <point x="19" y="224" type="curve"/>
      <point x="195" y="224" type="line" smooth="yes"/>
      <point x="194" y="221"/>
      <point x="194" y="218"/>
      <point x="194" y="213" type="curve" smooth="yes"/>
      <point x="194" y="174"/>
      <point x="224" y="144"/>
      <point x="264" y="144" type="curve" smooth="yes"/>
      <point x="281" y="144" type="line" smooth="yes"/>
      <point x="325" y="144"/>
      <point x="375" y="179"/>
      <point x="375" y="246" type="curve" smooth="yes"/>
      <point x="375" y="285"/>
      <point x="345" y="315"/>
      <point x="305" y="315" type="curve" smooth="yes"/>
      <point x="291" y="315" type="line" smooth="yes"/>
      <point x="248" y="315"/>
      <point x="229" y="289"/>
      <point x="215" y="281" type="curve"/>
      <point x="61" y="303" type="line"/>
      <point x="143" y="686" type="line"/>
      <point x="583" y="686" type="line"/>
    </contour>
  </outline>
</glyph>
<glyph name="six" format="1">
  <advance width="615"/>
  <unicode hex="0036"/>
  <outline>
    <contour>
      <point x="354" y="696" type="curve" smooth="yes"/>
      <point x="382" y="696" type="line" smooth="yes"/>
      <point x="499" y="696"/>
      <point x="594" y="631"/>
      <point x="594" y="505" type="curve" smooth="yes"/>
      <point x="594" y="492"/>
      <point x="593" y="479"/>
      <point x="591" y="466" type="curve"/>
      <point x="413" y="466" type="line"/>
      <point x="414" y="487" type="line" smooth="yes"/>
      <point x="413" y="522"/>
      <point x="388" y="546"/>
      <point x="353" y="546" type="curve" smooth="yes"/>
      <point x="347" y="546" type="line" smooth="yes"/>
      <point x="306" y="546"/>
      <point x="266" y="512"/>
      <point x="259" y="471" type="curve" smooth="yes"/>
      <point x="247" y="385" type="line"/>
      <point x="288" y="422"/>
      <point x="343" y="437"/>
      <point x="380" y="437" type="curve" smooth="yes"/>
      <point x="493" y="437"/>
      <point x="577" y="379"/>
      <point x="577" y="265" type="curve" smooth="yes"/>
      <point x="577" y="93"/>
      <point x="437" y="-10"/>
      <point x="283" y="-10" type="curve" smooth="yes"/>
      <point x="255" y="-10" type="line" smooth="yes"/>
      <point x="123" y="-10"/>
      <point x="28" y="80"/>
      <point x="28" y="205" type="curve" smooth="yes"/>
      <point x="28" y="220"/>
      <point x="27" y="228"/>
      <point x="59" y="446" type="curve" smooth="yes"/>
      <point x="78" y="590"/>
      <point x="211" y="696"/>
    </contour>
    <contour>
      <point x="319" y="321" type="curve" smooth="yes"/>
      <point x="313" y="321" type="line" smooth="yes"/>
      <point x="273" y="321"/>
      <point x="234" y="287"/>
      <point x="228" y="246" type="curve" smooth="yes"/>
      <point x="222" y="205" type="line" smooth="yes"/>
      <point x="221" y="203"/>
      <point x="221" y="201"/>
      <point x="221" y="199" type="curve" smooth="yes"/>
      <point x="221" y="194" type="line" smooth="yes"/>
      <point x="221" y="158"/>
      <point x="248" y="130"/>
      <point x="287" y="130" type="curve" smooth="yes"/>
      <point x="293" y="130" type="line" smooth="yes"/>
      <point x="334" y="130"/>
      <point x="375" y="164"/>
      <point x="378" y="205" type="curve" smooth="yes"/>
      <point x="385" y="256" type="line"/>
      <point x="385" y="297"/>
      <point x="356" y="321"/>
    </contour>
  </outline>
</glyph>
<glyph name="seven" format="1">
  <advance width="615"/>
  <unicode hex="0037"/>
  <outline>
    <contour>
      <point x="625" y="686" type="line"/>
      <point x="612" y="595" type="line"/>
      <point x="476" y="437"/>
      <point x="349" y="263"/>
      <point x="318" y="59" type="curve" smooth="yes"/>
      <point x="309" y="0" type="line"/>
      <point x="87" y="0" type="line"/>
      <point x="114" y="191"/>
      <point x="250" y="367"/>
      <point x="384" y="514" type="curve"/>
      <point x="92" y="514" type="line"/>
      <point x="116" y="686" type="line"/>
    </contour>
  </outline>
</glyph>
<glyph name="eight" format="1">
  <advance width="615"/>
  <unicode hex="0038"/>
  <outline>
    <contour>
      <point x="363" y="696" type="curve" smooth="yes"/>
      <point x="488" y="696"/>
      <point x="584" y="635"/>
      <point x="584" y="524" type="curve" smooth="yes"/>
      <point x="584" y="429"/>
      <point x="535" y="386"/>
      <point x="484" y="351" type="curve"/>
      <point x="483" y="347" type="line"/>
      <point x="532" y="315"/>
      <point x="564" y="281"/>
      <point x="564" y="218" type="curve" smooth="yes"/>
      <point x="564" y="118"/>
      <point x="495" y="-10"/>
      <point x="264" y="-10" type="curve" smooth="yes"/>
      <point x="118" y="-10"/>
      <point x="21" y="49"/>
      <point x="21" y="161" type="curve" smooth="yes"/>
      <point x="21" y="260"/>
      <point x="75" y="308"/>
      <point x="146" y="347" type="curve"/>
      <point x="147" y="351" type="line"/>
      <point x="112" y="380"/>
      <point x="87" y="408"/>
      <point x="87" y="464" type="curve" smooth="yes"/>
      <point x="87" y="612"/>
      <point x="218" y="696"/>
    </contour>
    <contour>
      <point x="345" y="566" type="curve" smooth="yes"/>
      <point x="306" y="566"/>
      <point x="270" y="535"/>
      <point x="265" y="496" type="curve" smooth="yes"/>
      <point x="262" y="473" type="line" smooth="yes"/>
      <point x="261" y="470"/>
      <point x="261" y="467"/>
      <point x="261" y="462" type="curve" smooth="yes"/>
      <point x="261" y="427"/>
      <point x="287" y="403"/>
      <point x="323" y="403" type="curve" smooth="yes"/>
      <point x="361" y="403"/>
      <point x="399" y="434"/>
      <point x="403" y="473" type="curve" smooth="yes"/>
      <point x="406" y="505" type="line" smooth="yes"/>
      <point x="406" y="540"/>
      <point x="382" y="566"/>
    </contour>
    <contour>
      <point x="307" y="295" type="curve" smooth="yes"/>
      <point x="268" y="295"/>
      <point x="233" y="264"/>
      <point x="227" y="225" type="curve" smooth="yes"/>
      <point x="222" y="192" type="line" smooth="yes"/>
      <point x="221" y="190"/>
      <point x="221" y="187"/>
      <point x="221" y="182" type="curve" smooth="yes"/>
      <point x="221" y="147"/>
      <point x="246" y="122"/>
      <point x="283" y="122" type="curve" smooth="yes"/>
      <point x="323" y="122"/>
      <point x="356" y="153"/>
      <point x="363" y="192" type="curve" smooth="yes"/>
      <point x="368" y="234" type="line"/>
      <point x="368" y="269"/>
      <point x="344" y="295"/>
    </contour>
  </outline>
</glyph>
<glyph name="nine" format="1">
  <advance width="615"/>
  <unicode hex="0039"/>
  <outline>
    <contour>
      <point x="345" y="696" type="curve" smooth="yes"/>
      <point x="373" y="696" type="line" smooth="yes"/>
      <point x="505" y="696"/>
      <point x="600" y="606"/>
      <point x="600" y="482" type="curve" smooth="yes"/>
      <point x="600" y="470"/>
      <point x="601" y="458"/>
      <point x="569" y="240" type="curve" smooth="yes"/>
      <point x="548" y="96"/>
      <point x="433" y="-10"/>
      <point x="274" y="-10" type="curve" smooth="yes"/>
      <point x="246" y="-10" type="line" smooth="yes"/>
      <point x="128" y="-10"/>
      <point x="34" y="54"/>
      <point x="34" y="181" type="curve" smooth="yes"/>
      <point x="34" y="193"/>
      <point x="35" y="206"/>
      <point x="37" y="220" type="curve"/>
      <point x="215" y="220" type="line" smooth="yes"/>
      <point x="214" y="217"/>
      <point x="214" y="215"/>
      <point x="214" y="212" type="curve" smooth="yes"/>
      <point x="214" y="200" type="line" smooth="yes"/>
      <point x="214" y="168"/>
      <point x="240" y="140"/>
      <point x="275" y="140" type="curve" smooth="yes"/>
      <point x="281" y="140" type="line" smooth="yes"/>
      <point x="333" y="140"/>
      <point x="362" y="174"/>
      <point x="369" y="215" type="curve" smooth="yes"/>
      <point x="381" y="301" type="line"/>
      <point x="340" y="264"/>
      <point x="285" y="249"/>
      <point x="248" y="249" type="curve" smooth="yes"/>
      <point x="135" y="249"/>
      <point x="50" y="307"/>
      <point x="50" y="421" type="curve" smooth="yes"/>
      <point x="50" y="584"/>
      <point x="192" y="696"/>
    </contour>
    <contour>
      <point x="341" y="556" type="curve" smooth="yes"/>
      <point x="335" y="556" type="line" smooth="yes"/>
      <point x="295" y="556"/>
      <point x="256" y="522"/>
      <point x="250" y="481" type="curve" smooth="yes"/>
      <point x="245" y="447" type="line" smooth="yes"/>
      <point x="245" y="446"/>
      <point x="243" y="434"/>
      <point x="243" y="429" type="curve" smooth="yes"/>
      <point x="243" y="393"/>
      <point x="270" y="365"/>
      <point x="309" y="365" type="curve" smooth="yes"/>
      <point x="315" y="365" type="line" smooth="yes"/>
      <point x="355" y="365"/>
      <point x="394" y="399"/>
      <point x="400" y="440" type="curve" smooth="yes"/>
      <point x="407" y="491" type="line"/>
      <point x="407" y="528"/>
      <point x="378" y="556"/>
    </contour>
  </outline>
</glyph>
<glyph name="colon" format="1">
  <advance width="308"/>
  <unicode hex="003A"/>
  <outline>
    <contour>
      <point x="255" y="328" type="line"/>
      <point x="64" y="328" type="line"/>
      <point x="89" y="511" type="line"/>
      <point x="280" y="511" type="line"/>
    </contour>
    <contour>
      <point x="209" y="0" type="line"/>
      <point x="18" y="0" type="line"/>
      <point x="43" y="183" type="line"/>
      <point x="234" y="183" type="line"/>
    </contour>
  </outline>
</glyph>
<glyph name="semicolon" format="1">
  <advance width="307"/>
  <unicode hex="003B"/>
  <outline>
    <contour>
      <point x="254" y="328" type="line"/>
      <point x="63" y="328" type="line"/>
      <point x="89" y="511" type="line"/>
      <point x="280" y="511" type="line"/>
    </contour>
    <contour>
      <point x="211" y="22" type="line"/>
      <point x="135" y="-165" type="line"/>
      <point x="41" y="-165" type="line"/>
      <point x="101" y="0" type="line"/>
      <point x="17" y="0" type="line"/>
      <point x="43" y="183" type="line"/>
      <point x="234" y="183" type="line"/>
    </contour>
  </outline>
</glyph>
<glyph name="less" format="1">
  <advance width="615"/>
  <unicode hex="003C"/>
  <outline>
    <contour>
      <point x="566" y="382" type="line"/>
      <point x="200" y="254" type="line"/>
      <point x="531" y="127" type="line"/>
      <point x="511" y="-11" type="line"/>
      <point x="30" y="185" type="line"/>
      <point x="49" y="324" type="line"/>
      <point x="586" y="521" type="line"/>
    </contour>
  </outline>
</glyph>
<glyph name="equal" format="1">
  <advance width="615"/>
  <unicode hex="003D"/>
  <outline>
    <contour>
      <point x="565" y="301" type="line"/>
      <point x="53" y="301" type="line"/>
      <point x="71" y="429" type="line"/>
      <point x="583" y="429" type="line"/>
    </contour>
    <contour>
      <point x="534" y="81" type="line"/>
      <point x="22" y="81" type="line"/>
      <point x="40" y="209" type="line"/>
      <point x="552" y="209" type="line"/>
    </contour>
  </outline>
</glyph>
<glyph name="greater" format="1">
  <advance width="615"/>
  <unicode hex="003E"/>
  <outline>
    <contour>
      <point x="575" y="324" type="line"/>
      <point x="556" y="185" type="line"/>
      <point x="19" y="-11" type="line"/>
      <point x="39" y="127" type="line"/>
      <point x="404" y="254" type="line"/>
      <point x="74" y="382" type="line"/>
      <point x="94" y="521" type="line"/>
    </contour>
  </outline>
</glyph>
<glyph name="at" format="1">
  <advance width="907"/>
  <unicode hex="0040"/>
  <outline>
    <contour>
      <point x="526" y="697" type="curve" smooth="yes"/>
      <point x="737" y="697"/>
      <point x="888" y="608"/>
      <point x="888" y="395" type="curve" smooth="yes"/>
      <point x="888" y="103"/>
      <point x="725" y="22"/>
      <point x="622" y="22" type="curve" smooth="yes"/>
      <point x="543" y="22"/>
      <point x="515" y="59"/>
      <point x="504" y="99" type="curve"/>
      <point x="466" y="61"/>
      <point x="416" y="23"/>
      <point x="339" y="23" type="curve" smooth="yes"/>
      <point x="263" y="23"/>
      <point x="187" y="53"/>
      <point x="187" y="149" type="curve" smooth="yes"/>
      <point x="187" y="297"/>
      <point x="327" y="329"/>
      <point x="527" y="329" type="curve"/>
      <point x="529" y="343" type="line" smooth="yes"/>
      <point x="530" y="351"/>
      <point x="531" y="359"/>
      <point x="531" y="366" type="curve" smooth="yes"/>
      <point x="531" y="397"/>
      <point x="508" y="412"/>
      <point x="477" y="412" type="curve" smooth="yes"/>
      <point x="451" y="412"/>
      <point x="414" y="395"/>
      <point x="411" y="368" type="curve" smooth="yes"/>
      <point x="410" y="364" type="line"/>
      <point x="232" y="364" type="line"/>
      <point x="232" y="449"/>
      <point x="332" y="521"/>
      <point x="478" y="521" type="curve" smooth="yes"/>
      <point x="509" y="521" type="line" smooth="yes"/>
      <point x="649" y="521"/>
      <point x="713" y="465"/>
      <point x="713" y="389" type="curve" smooth="yes"/>
      <point x="713" y="379" type="line" smooth="yes"/>
      <point x="713" y="376"/>
      <point x="713" y="372"/>
      <point x="712" y="369" type="curve" smooth="yes"/>
      <point x="684" y="171" type="line" smooth="yes"/>
      <point x="684" y="146"/>
      <point x="697" y="136"/>
      <point x="712" y="136" type="curve" smooth="yes"/>
      <point x="761" y="136"/>
      <point x="815" y="237"/>
      <point x="815" y="386" type="curve" smooth="yes"/>
      <point x="815" y="562"/>
      <point x="696" y="636"/>
      <point x="517" y="636" type="curve" smooth="yes"/>
      <point x="277" y="636"/>
      <point x="96" y="485"/>
      <point x="96" y="172" type="curve" smooth="yes"/>
      <point x="96" y="-4"/>
      <point x="185" y="-92"/>
      <point x="380" y="-92" type="curve" smooth="yes"/>
      <point x="426" y="-92"/>
      <point x="512" y="-78"/>
      <point x="550" y="-60" type="curve"/>
      <point x="541" y="-126" type="line"/>
      <point x="496" y="-142"/>
      <point x="415" y="-153"/>
      <point x="372" y="-153" type="curve" smooth="yes"/>
      <point x="154" y="-153"/>
      <point x="23" y="-54"/>
      <point x="23" y="167" type="curve" smooth="yes"/>
      <point x="23" y="198"/>
      <point x="25" y="227"/>
      <point x="30" y="262" type="curve" smooth="yes"/>
      <point x="75" y="579"/>
      <point x="291" y="697"/>
    </contour>
    <contour>
      <point x="509" y="202" type="curve" smooth="yes"/>
      <point x="514" y="243" type="line"/>
      <point x="422" y="243"/>
      <point x="385" y="213"/>
      <point x="385" y="172" type="curve" smooth="yes"/>
      <point x="385" y="143"/>
      <point x="408" y="136"/>
      <point x="435" y="136" type="curve" smooth="yes"/>
      <point x="468" y="136"/>
      <point x="504" y="163"/>
    </contour>
  </outline>
</glyph>
<glyph name="B" format="1">
  <advance width="656"/>
  <unicode hex="0042"/>
  <outline>
    <contour>
      <point x="113" y="686" type="line"/>
      <point x="489" y="686" type="line" smooth="yes"/>
      <point x="581" y="686"/>
      <point x="646" y="622"/>
      <point x="646" y="540" type="curve" smooth="yes"/>
      <point x="646" y="424"/>
      <point x="572" y="377"/>
      <point x="508" y="358" type="curve"/>
      <point x="507" y="354" type="line"/>
      <point x="568" y="339"/>
      <point x="616" y="302"/>
      <point x="616" y="218" type="curve" smooth="yes"/>
      <point x="616" y="109"/>
      <point x="533" y="0"/>
      <point x="398" y="0" type="curve" smooth="yes"/>
      <point x="16" y="0" type="line"/>
    </contour>
    <contour>
      <point x="285" y="540" type="line"/>
      <point x="269" y="423" type="line"/>
      <point x="384" y="423" type="line" smooth="yes"/>
      <point x="410" y="423"/>
      <point x="439" y="445"/>
      <point x="441" y="473" type="curve" smooth="yes"/>
      <point x="443" y="497" type="line" smooth="yes"/>
      <point x="443" y="522"/>
      <point x="425" y="540"/>
      <point x="400" y="540" type="curve" smooth="yes"/>
    </contour>
    <contour>
      <point x="248" y="277" type="line"/>
      <point x="232" y="159" type="line"/>
      <point x="359" y="159" type="line" smooth="yes"/>
      <point x="385" y="159"/>
      <point x="414" y="181"/>
      <point x="416" y="209" type="curve" smooth="yes"/>
      <point x="418" y="234" type="line" smooth="yes"/>
      <point x="418" y="259"/>
      <point x="400" y="277"/>
      <point x="375" y="277" type="curve" smooth="yes"/>
    </contour>
  </outline>
</glyph>
<glyph name="D" format="1">
  <advance width="697"/>
  <unicode hex="0044"/>
  <outline>
    <contour>
      <point x="113" y="686" type="line"/>
      <point x="422" y="686" type="line" smooth="yes"/>
      <point x="574" y="686"/>
      <point x="683" y="574"/>
      <point x="683" y="428" type="curve" smooth="yes"/>
      <point x="683" y="414"/>
      <point x="682" y="400"/>
      <point x="680" y="386" type="curve" smooth="yes"/>
      <point x="667" y="300" type="line" smooth="yes"/>
      <point x="642" y="134"/>
      <point x="520" y="0"/>
      <point x="325" y="0" type="curve" smooth="yes"/>
      <point x="16" y="0" type="line"/>
    </contour>
    <contour>
      <point x="303" y="530" type="line"/>
      <point x="251" y="159" type="line"/>
      <point x="328" y="159" type="line" smooth="yes"/>
      <point x="396" y="159"/>
      <point x="434" y="203"/>
      <point x="442" y="259" type="curve" smooth="yes"/>
      <point x="467" y="443" type="line"/>
      <point x="467" y="492"/>
      <point x="431" y="530"/>
      <point x="380" y="530" type="curve" smooth="yes"/>
    </contour>
  </outline>
</glyph>
<glyph name="F" format="1">
  <advance width="563"/>
  <unicode hex="0046"/>
  <outline>
    <contour>
      <point x="566" y="523" type="line"/>
      <point x="295" y="523" type="line"/>
      <point x="279" y="411" type="line"/>
      <point x="531" y="411" type="line"/>
      <point x="509" y="257" type="line"/>
      <point x="257" y="257" type="line"/>
      <point x="221" y="0" type="line"/>
      <point x="16" y="0" type="line"/>
      <point x="113" y="686" type="line"/>
      <point x="609" y="686" type="line"/>
    </contour>
  </outline>
</glyph>
<glyph name="H" format="1">
  <advance width="697"/>
  <unicode hex="0048"/>
  <outline>
    <contour>
      <point x="599" y="0" type="line"/>
      <point x="389" y="0" type="line"/>
      <point x="427" y="267" type="line"/>
      <point x="265" y="267" type="line"/>
      <point x="227" y="0" type="line"/>
      <point x="16" y="0" type="line"/>
      <point x="113" y="686" type="line"/>
      <point x="323" y="686" type="line"/>
      <point x="287" y="433" type="line"/>
      <point x="449" y="433" type="line"/>
      <point x="485" y="686" type="line"/>
      <point x="696" y="686" type="line"/>
    </contour>
  </outline>
</glyph>
<glyph name="J" format="1">
  <advance width="543"/>
  <unicode hex="004A"/>
  <outline>
    <contour>
      <point x="544" y="686" type="line"/>
      <point x="473" y="180" type="line" smooth="yes"/>
      <point x="454" y="55"/>
      <point x="350" y="-10"/>
      <point x="217" y="-10" type="curve" smooth="yes"/>
      <point x="186" y="-10" type="line" smooth="yes"/>
      <point x="63" y="-10"/>
      <point x="-9" y="46"/>
      <point x="-9" y="147" type="curve" smooth="yes"/>
      <point x="-9" y="158" type="line" smooth="yes"/>
      <point x="-9" y="170"/>
      <point x="-7" y="189"/>
      <point x="3" y="248" type="curve"/>
      <point x="195" y="248" type="line"/>
      <point x="190" y="216" type="line" smooth="yes"/>
      <point x="187" y="199"/>
      <point x="185" y="182"/>
      <point x="185" y="178" type="curve" smooth="yes"/>
      <point x="185" y="155"/>
      <point x="201" y="140"/>
      <point x="221" y="140" type="curve" smooth="yes"/>
      <point x="244" y="140"/>
      <point x="265" y="158"/>
      <point x="269" y="186" type="curve" smooth="yes"/>
      <point x="339" y="686" type="line"/>
    </contour>
  </outline>
</glyph>
<glyph name="K" format="1">
  <advance width="684"/>
  <unicode hex="004B"/>
  <outline>
    <contour>
      <point x="342" y="0" type="move" name="Bottom"/>
    </contour>
    <contour>
      <point x="497" y="411" type="line"/>
      <point x="654" y="0" type="line"/>
      <point x="419" y="0" type="line"/>
      <point x="335" y="248" type="line"/>
      <point x="242" y="152" type="line"/>
      <point x="220" y="0" type="line"/>
      <point x="16" y="0" type="line"/>
      <point x="113" y="686" type="line"/>
      <point x="317" y="686" type="line"/>
      <point x="279" y="415" type="line"/>
      <point x="513" y="686" type="line"/>
      <point x="745" y="686" type="line"/>
    </contour>
  </outline>
</glyph>
<glyph name="L" format="1">
  <advance width="540"/>
  <unicode hex="004C"/>
  <outline>
    <contour>
      <point x="270" y="0" type="move" name="Bottom"/>
    </contour>
    <contour>
      <point x="252" y="168" type="line"/>
      <point x="497" y="168" type="line"/>
      <point x="497" y="0" type="line"/>
      <point x="16" y="0" type="line"/>
      <point x="113" y="686" type="line"/>
      <point x="325" y="686" type="line"/>
    </contour>
  </outline>
</glyph>
<glyph name="N" format="1">
  <advance width="696"/>
  <unicode hex="004E"/>
  <outline>
    <contour>
      <point x="348" y="0" type="move" name="Bottom"/>
    </contour>
    <contour>
      <point x="598" y="0" type="line"/>
      <point x="418" y="0" type="line"/>
      <point x="282" y="246" type="line" smooth="yes"/>
      <point x="279" y="250"/>
      <point x="271" y="265"/>
      <point x="265" y="278" type="curve" smooth="yes"/>
      <point x="252" y="304" type="line"/>
      <point x="209" y="0" type="line"/>
      <point x="16" y="0" type="line"/>
      <point x="113" y="686" type="line"/>
      <point x="289" y="686" type="line"/>
      <point x="429" y="431" type="line"/>
      <point x="457" y="375" type="line"/>
      <point x="501" y="686" type="line"/>
      <point x="695" y="686" type="line"/>
    </contour>
  </outline>
</glyph>
<glyph name="P" format="1">
  <advance width="645"/>
  <unicode hex="0050"/>
  <outline>
    <contour>
      <point x="113" y="686" type="line"/>
      <point x="478" y="686" type="line" smooth="yes"/>
      <point x="585" y="686"/>
      <point x="660" y="606"/>
      <point x="660" y="505" type="curve" smooth="yes"/>
      <point x="660" y="368"/>
      <point x="570" y="244"/>
      <point x="416" y="244" type="curve" smooth="yes"/>
      <point x="261" y="244" type="line"/>
      <point x="226" y="0" type="line"/>
      <point x="16" y="0" type="line"/>
    </contour>
    <contour>
      <point x="301" y="529" type="line"/>
      <point x="282" y="397" type="line"/>
      <point x="374" y="397" type="line" smooth="yes"/>
      <point x="417" y="397"/>
      <point x="440" y="429"/>
      <point x="443" y="457" type="curve" smooth="yes"/>
      <point x="445" y="478" type="line" smooth="yes"/>
      <point x="445" y="503"/>
      <point x="429" y="529"/>
      <point x="393" y="529" type="curve" smooth="yes"/>
    </contour>
  </outline>
</glyph>
<glyph name="Q" format="1">
  <advance width="718"/>
  <unicode hex="0051"/>
  <outline>
    <contour>
      <point x="388" y="694" type="curve" smooth="yes"/>
      <point x="444" y="694" type="line" smooth="yes"/>
      <point x="595" y="694"/>
      <point x="704" y="584"/>
      <point x="704" y="437" type="curve" smooth="yes"/>
      <point x="704" y="393"/>
      <point x="703" y="410"/>
      <point x="687" y="290" type="curve" smooth="yes"/>
      <point x="668" y="157"/>
      <point x="586" y="49"/>
      <point x="444" y="6" type="curve"/>
      <point x="451" y="-18"/>
      <point x="468" y="-39"/>
      <point x="516" y="-39" type="curve" smooth="yes"/>
      <point x="552" y="-39"/>
      <point x="605" y="-27"/>
      <point x="632" y="-19" type="curve" smooth="yes"/>
      <point x="645" y="-15" type="line"/>
      <point x="630" y="-120" type="line"/>
      <point x="590" y="-140"/>
      <point x="532" y="-162"/>
      <point x="443" y="-162" type="curve" smooth="yes"/>
      <point x="291" y="-162"/>
      <point x="237" y="-72"/>
      <point x="232" y="-4" type="curve"/>
      <point x="110" y="20"/>
      <point x="28" y="118"/>
      <point x="28" y="247" type="curve" smooth="yes"/>
      <point x="28" y="261"/>
      <point x="29" y="274"/>
      <point x="45" y="394" type="curve" smooth="yes"/>
      <point x="66" y="560"/>
      <point x="206" y="694"/>
    </contour>
    <contour>
      <point x="397" y="540" type="curve" smooth="yes"/>
      <point x="392" y="540" type="line" smooth="yes"/>
      <point x="324" y="540"/>
      <point x="286" y="496"/>
      <point x="278" y="440" type="curve" smooth="yes"/>
      <point x="251" y="247" type="line" smooth="yes"/>
      <point x="250" y="244"/>
      <point x="250" y="242"/>
      <point x="250" y="240" type="curve" smooth="yes"/>
      <point x="250" y="233" type="line" smooth="yes"/>
      <point x="250" y="184"/>
      <point x="286" y="147"/>
      <point x="337" y="147" type="curve" smooth="yes"/>
      <point x="342" y="147" type="line" smooth="yes"/>
      <point x="410" y="147"/>
      <point x="448" y="191"/>
      <point x="456" y="247" type="curve" smooth="yes"/>
      <point x="483" y="440" type="line" smooth="yes"/>
      <point x="484" y="443"/>
      <point x="484" y="448"/>
      <point x="484" y="454" type="curve" smooth="yes"/>
      <point x="484" y="502"/>
      <point x="448" y="540"/>
    </contour>
  </outline>
</glyph>
<glyph name="T" format="1">
  <advance width="585"/>
  <unicode hex="0054"/>
  <outline>
    <contour>
      <point x="251" y="0" type="move" name="Bottom"/>
    </contour>
    <contour>
      <point x="603" y="521" type="line"/>
      <point x="429" y="521" type="line"/>
      <point x="355" y="0" type="line"/>
      <point x="147" y="0" type="line"/>
      <point x="221" y="521" type="line"/>
      <point x="47" y="521" type="line"/>
      <point x="70" y="686" type="line"/>
      <point x="626" y="686" type="line"/>
    </contour>
  </outline>
</glyph>
<glyph name="U" format="1">
  <advance width="687"/>
  <unicode hex="0055"/>
  <outline>
    <contour>
      <point x="690" y="686" type="line"/>
      <point x="625" y="218" type="line" smooth="yes"/>
      <point x="604" y="80"/>
      <point x="504" y="-10"/>
      <point x="323" y="-10" type="curve" smooth="yes"/>
      <point x="280" y="-10" type="line" smooth="yes"/>
      <point x="131" y="-10"/>
      <point x="39" y="65"/>
      <point x="39" y="182" type="curve" smooth="yes"/>
      <point x="39" y="194"/>
      <point x="40" y="206"/>
      <point x="42" y="218" type="curve" smooth="yes"/>
      <point x="107" y="686" type="line"/>
      <point x="318" y="686" type="line"/>
      <point x="253" y="221" type="line" smooth="yes"/>
      <point x="252" y="218"/>
      <point x="252" y="215"/>
      <point x="252" y="210" type="curve" smooth="yes"/>
      <point x="252" y="171"/>
      <point x="283" y="146"/>
      <point x="324" y="146" type="curve" smooth="yes"/>
      <point x="379" y="146"/>
      <point x="409" y="177"/>
      <point x="415" y="221" type="curve" smooth="yes"/>
      <point x="480" y="686" type="line"/>
    </contour>
  </outline>
</glyph>
<glyph name="V" format="1">
  <advance width="655"/>
  <unicode hex="0056"/>
  <outline>
    <contour>
      <point x="409" y="0" type="line"/>
      <point x="159" y="0" type="line"/>
      <point x="51" y="686" type="line"/>
      <point x="269" y="686" type="line"/>
      <point x="329" y="260" type="line"/>
      <point x="333" y="260" type="line"/>
      <point x="512" y="686" type="line"/>
      <point x="714" y="686" type="line"/>
    </contour>
  </outline>
</glyph>
<glyph name="W" format="1">
  <advance width="1022"/>
  <unicode hex="0057"/>
  <outline>
    <contour>
      <point x="795" y="0" type="line"/>
      <point x="557" y="0" type="line"/>
      <point x="521" y="329" type="line"/>
      <point x="515" y="329" type="line"/>
      <point x="385" y="0" type="line"/>
      <point x="143" y="0" type="line"/>
      <point x="53" y="686" type="line"/>
      <point x="270" y="686" type="line"/>
      <point x="313" y="305" type="line"/>
      <point x="317" y="305" type="line"/>
      <point x="469" y="686" type="line"/>
      <point x="684" y="686" type="line"/>
      <point x="726" y="305" type="line"/>
      <point x="730" y="305" type="line"/>
      <point x="881" y="686" type="line"/>
      <point x="1078" y="686" type="line"/>
    </contour>
  </outline>
</glyph>
<glyph name="Y" format="1">
  <advance width="644"/>
  <unicode hex="0059"/>
  <outline>
    <contour>
      <point x="421" y="262" type="line"/>
      <point x="384" y="0" type="line"/>
      <point x="175" y="0" type="line"/>
      <point x="212" y="262" type="line"/>
      <point x="44" y="686" type="line"/>
      <point x="280" y="686" type="line"/>
      <point x="351" y="461" type="line"/>
      <point x="356" y="461" type="line"/>
      <point x="493" y="686" type="line"/>
      <point x="708" y="686" type="line"/>
    </contour>
  </outline>
</glyph>
<glyph name="bracketleft" format="1">
  <advance width="318"/>
  <unicode hex="005B"/>
  <outline>
    <contour>
      <point x="337" y="603" type="line"/>
      <point x="249" y="603" type="line"/>
      <point x="154" y="-78" type="line"/>
      <point x="242" y="-78" type="line"/>
      <point x="230" y="-161" type="line"/>
      <point x="-7" y="-161" type="line"/>
      <point x="112" y="686" type="line"/>
      <point x="349" y="686" type="line"/>
    </contour>
  </outline>
</glyph>
<glyph name="backslash" format="1">
  <advance width="648"/>
  <unicode hex="005C"/>
  <outline>
    <contour>
      <point x="568" y="-171" type="line"/>
      <point x="436" y="-171" type="line"/>
      <point x="68" y="686" type="line"/>
      <point x="199" y="686" type="line"/>
    </contour>
  </outline>
</glyph>
<glyph name="bracketright" format="1">
  <advance width="317"/>
  <unicode hex="005D"/>
  <outline>
    <contour>
      <point x="197" y="-161" type="line"/>
      <point x="-40" y="-161" type="line"/>
      <point x="-28" y="-78" type="line"/>
      <point x="60" y="-78" type="line"/>
      <point x="155" y="603" type="line"/>
      <point x="67" y="603" type="line"/>
      <point x="79" y="686" type="line"/>
      <point x="316" y="686" type="line"/>
    </contour>
  </outline>
</glyph>
<glyph name="asciicircum" format="1">
  <advance width="600"/>
  <unicode hex="005E"/>
  <outline>
    <contour>
      <point x="530" y="0" type="line"/>
      <point x="392" y="0" type="line"/>
      <point x="314" y="350" type="line"/>
      <point x="137" y="0" type="line"/>
      <point x="-2" y="0" type="line"/>
      <point x="265" y="511" type="line"/>
      <point x="404" y="511" type="line"/>
    </contour>
  </outline>
</glyph>
<glyph name="underscore" format="1">
  <advance width="662"/>
  <unicode hex="005F"/>
  <outline>
    <contour>
      <point x="521" y="-127" type="line"/>
      <point x="22" y="-127" type="line"/>
      <point x="30" y="-65" type="line"/>
      <point x="530" y="-65" type="line"/>
    </contour>
  </outline>
</glyph>
<glyph name="grave" format="1">
  <advance width="333"/>
  <unicode hex="0060"/>
  <outline>
    <contour>
      <point x="275" y="575" type="line"/>
      <point x="157" y="575" type="line"/>
      <point x="51" y="717" type="line"/>
      <point x="54" y="720" type="line"/>
      <point x="205" y="720" type="line"/>
    </contour>
  </outline>
</glyph>
<glyph name="b" format="1">
  <advance width="599"/>
  <unicode hex="0062"/>
  <outline>
    <contour>
      <point x="307" y="720" type="line"/>
      <point x="270" y="458" type="line"/>
      <point x="294" y="482"/>
      <point x="341" y="521"/>
      <point x="411" y="521" type="curve" smooth="yes"/>
      <point x="504" y="521"/>
      <point x="572" y="457"/>
      <point x="572" y="326" type="curve" smooth="yes"/>
      <point x="572" y="162"/>
      <point x="495" y="-10"/>
      <point x="312" y="-10" type="curve" smooth="yes"/>
      <point x="240" y="-10"/>
      <point x="187" y="20"/>
      <point x="156" y="75" type="curve"/>
      <point x="78" y="0" type="line"/>
      <point x="9" y="0" type="line"/>
      <point x="109" y="720" type="line"/>
    </contour>
    <contour>
      <point x="323" y="396" type="curve" smooth="yes"/>
      <point x="286" y="396"/>
      <point x="256" y="365"/>
      <point x="251" y="326" type="curve" smooth="yes"/>
      <point x="230" y="178"/>
      <point x="230" y="174"/>
      <point x="230" y="170" type="curve" smooth="yes"/>
      <point x="230" y="135"/>
      <point x="252" y="111"/>
      <point x="283" y="111" type="curve" smooth="yes"/>
      <point x="326" y="111"/>
      <point x="349" y="142"/>
      <point x="355" y="181" type="curve" smooth="yes"/>
      <point x="365" y="253" type="line" smooth="yes"/>
      <point x="370" y="290"/>
      <point x="376" y="329"/>
      <point x="376" y="338" type="curve" smooth="yes"/>
      <point x="376" y="377"/>
      <point x="354" y="396"/>
    </contour>
  </outline>
</glyph>
<glyph name="h" format="1">
  <advance width="597"/>
  <unicode hex="0068"/>
  <outline>
    <contour>
      <point x="307" y="720" type="line"/>
      <point x="269" y="451" type="line"/>
      <point x="288" y="478"/>
      <point x="335" y="521"/>
      <point x="420" y="521" type="curve" smooth="yes"/>
      <point x="548" y="521"/>
      <point x="563" y="428"/>
      <point x="563" y="392" type="curve" smooth="yes"/>
      <point x="563" y="380" type="line" smooth="yes"/>
      <point x="563" y="360"/>
      <point x="553" y="313"/>
      <point x="510" y="0" type="curve"/>
      <point x="312" y="0" type="line"/>
      <point x="356" y="323"/>
      <point x="358" y="313"/>
      <point x="358" y="333" type="curve" smooth="yes"/>
      <point x="358" y="358"/>
      <point x="343" y="380"/>
      <point x="312" y="380" type="curve" smooth="yes"/>
      <point x="277" y="380"/>
      <point x="256" y="353"/>
      <point x="251" y="320" type="curve" smooth="yes"/>
      <point x="206" y="0" type="line"/>
      <point x="9" y="0" type="line"/>
      <point x="109" y="720" type="line"/>
    </contour>
  </outline>
</glyph>
<glyph name="i" format="1">
  <advance width="296"/>
  <unicode hex="0069"/>
  <outline>
    <contour>
      <point x="286" y="577" type="line"/>
      <point x="89" y="577" type="line"/>
      <point x="109" y="720" type="line"/>
      <point x="306" y="720" type="line"/>
    </contour>
    <contour>
      <point x="205" y="0" type="line"/>
      <point x="9" y="0" type="line"/>
      <point x="80" y="511" type="line"/>
      <point x="277" y="511" type="line"/>
    </contour>
  </outline>
</glyph>
<glyph name="j" format="1">
  <advance width="298"/>
  <unicode hex="006A"/>
  <outline>
    <contour>
      <point x="288" y="577" type="line"/>
      <point x="89" y="577" type="line"/>
      <point x="109" y="720" type="line"/>
      <point x="308" y="720" type="line"/>
    </contour>
    <contour>
      <point x="279" y="511" type="line"/>
      <point x="203" y="-26" type="line" smooth="yes"/>
      <point x="188" y="-134"/>
      <point x="107" y="-187"/>
      <point x="-2" y="-187" type="curve" smooth="yes"/>
      <point x="-37" y="-187"/>
      <point x="-100" y="-178"/>
      <point x="-132" y="-165" type="curve"/>
      <point x="-116" y="-53" type="line"/>
      <point x="-101" y="-60"/>
      <point x="-71" y="-65"/>
      <point x="-56" y="-65" type="curve" smooth="yes"/>
      <point x="-28" y="-65"/>
      <point x="1" y="-55"/>
      <point x="9" y="4" type="curve" smooth="yes"/>
      <point x="80" y="511" type="line"/>
    </contour>
  </outline>
</glyph>
<glyph name="k" format="1">
  <advance width="601"/>
  <unicode hex="006B"/>
  <outline>
    <contour>
      <point x="301" y="0" type="move" name="Bottom"/>
    </contour>
    <contour>
      <point x="251" y="321" type="line"/>
      <point x="408" y="511" type="line"/>
      <point x="634" y="511" type="line"/>
      <point x="422" y="280" type="line"/>
      <point x="565" y="0" type="line"/>
      <point x="332" y="0" type="line"/>
      <point x="262" y="145" type="line"/>
      <point x="222" y="114" type="line"/>
      <point x="206" y="0" type="line"/>
      <point x="9" y="0" type="line"/>
      <point x="109" y="720" type="line"/>
      <point x="307" y="720" type="line"/>
    </contour>
  </outline>
</glyph>
<glyph name="l" format="1">
  <advance width="297"/>
  <unicode hex="006C"/>
  <outline>
    <contour>
      <point x="108" y="0" type="move" name="Bottom"/>
    </contour>
    <contour>
      <point x="206" y="0" type="line"/>
      <point x="9" y="0" type="line"/>
      <point x="109" y="720" type="line"/>
      <point x="307" y="720" type="line"/>
    </contour>
  </outline>
</glyph>
<glyph name="m" format="1">
  <advance width="869"/>
  <unicode hex="006D"/>
  <outline>
    <contour>
      <point x="692" y="521" type="curve" smooth="yes"/>
      <point x="788" y="521"/>
      <point x="835" y="465"/>
      <point x="835" y="392" type="curve" smooth="yes"/>
      <point x="835" y="380"/>
      <point x="828" y="322"/>
      <point x="818" y="254" type="curve" smooth="yes"/>
      <point x="808" y="184" type="line" smooth="yes"/>
      <point x="800" y="129"/>
      <point x="793" y="67"/>
      <point x="782" y="0" type="curve"/>
      <point x="588" y="0" type="line"/>
      <point x="608" y="154"/>
      <point x="634" y="310"/>
      <point x="634" y="334" type="curve" smooth="yes"/>
      <point x="634" y="361"/>
      <point x="616" y="379"/>
      <point x="593" y="379" type="curve" smooth="yes"/>
      <point x="563" y="379"/>
      <point x="541" y="357"/>
      <point x="537" y="324" type="curve" smooth="yes"/>
      <point x="492" y="0" type="line"/>
      <point x="298" y="0" type="line"/>
      <point x="318" y="154"/>
      <point x="344" y="310"/>
      <point x="344" y="334" type="curve" smooth="yes"/>
      <point x="344" y="361"/>
      <point x="326" y="379"/>
      <point x="303" y="379" type="curve" smooth="yes"/>
      <point x="273" y="379"/>
      <point x="251" y="357"/>
      <point x="247" y="324" type="curve" smooth="yes"/>
      <point x="202" y="0" type="line"/>
      <point x="8" y="0" type="line"/>
      <point x="80" y="511" type="line"/>
      <point x="228" y="511" type="line"/>
      <point x="238" y="437" type="line"/>
      <point x="256" y="463"/>
      <point x="313" y="521"/>
      <point x="402" y="521" type="curve" smooth="yes"/>
      <point x="478" y="521"/>
      <point x="516" y="490"/>
      <point x="535" y="443" type="curve"/>
      <point x="568" y="488"/>
      <point x="613" y="521"/>
    </contour>
  </outline>
</glyph>
<glyph name="p" format="1">
  <advance width="599"/>
  <unicode hex="0070"/>
  <outline>
    <contour>
      <point x="387" y="521" type="curve" smooth="yes"/>
      <point x="494" y="521"/>
      <point x="572" y="455"/>
      <point x="572" y="319" type="curve" smooth="yes"/>
      <point x="572" y="178"/>
      <point x="507" y="-10"/>
      <point x="337" y="-10" type="curve" smooth="yes"/>
      <point x="276" y="-10"/>
      <point x="230" y="18"/>
      <point x="214" y="53" type="curve"/>
      <point x="181" y="-181" type="line"/>
      <point x="-16" y="-181" type="line"/>
      <point x="80" y="511" type="line"/>
      <point x="238" y="511" type="line"/>
      <point x="248" y="452" type="line"/>
      <point x="281" y="487"/>
      <point x="324" y="521"/>
    </contour>
    <contour>
      <point x="325" y="400" type="curve" smooth="yes"/>
      <point x="288" y="400"/>
      <point x="258" y="369"/>
      <point x="253" y="330" type="curve" smooth="yes"/>
      <point x="232" y="182"/>
      <point x="232" y="178"/>
      <point x="232" y="174" type="curve" smooth="yes"/>
      <point x="232" y="139"/>
      <point x="254" y="115"/>
      <point x="285" y="115" type="curve" smooth="yes"/>
      <point x="328" y="115"/>
      <point x="351" y="146"/>
      <point x="357" y="185" type="curve" smooth="yes"/>
      <point x="367" y="257" type="line" smooth="yes"/>
      <point x="372" y="294"/>
      <point x="378" y="333"/>
      <point x="378" y="342" type="curve" smooth="yes"/>
      <point x="378" y="381"/>
      <point x="356" y="400"/>
    </contour>
  </outline>
</glyph>
<glyph name="t" format="1">
  <advance width="419"/>
  <unicode hex="0074"/>
  <outline>
    <contour>
      <point x="210" y="0" type="move" name="Bottom"/>
    </contour>
    <contour>
      <point x="308" y="511" type="line"/>
      <point x="428" y="511" type="line"/>
      <point x="408" y="369" type="line"/>
      <point x="288" y="369" type="line"/>
      <point x="259" y="173"/>
      <point x="259" y="167"/>
      <point x="259" y="161" type="curve" smooth="yes"/>
      <point x="259" y="118"/>
      <point x="280" y="111"/>
      <point x="309" y="111" type="curve" smooth="yes"/>
      <point x="324" y="111"/>
      <point x="355" y="116"/>
      <point x="372" y="123" type="curve"/>
      <point x="356" y="11" type="line"/>
      <point x="322" y="-2"/>
      <point x="253" y="-11"/>
      <point x="219" y="-11" type="curve" smooth="yes"/>
      <point x="120" y="-11"/>
      <point x="54" y="16"/>
      <point x="54" y="102" type="curve" smooth="yes"/>
      <point x="54" y="124"/>
      <point x="55" y="120"/>
      <point x="90" y="369" type="curve"/>
      <point x="34" y="369" type="line"/>
      <point x="54" y="511" type="line"/>
      <point x="110" y="511" type="line"/>
      <point x="133" y="674" type="line"/>
      <point x="342" y="674" type="line"/>
    </contour>
  </outline>
</glyph>
<glyph name="v" format="1">
  <advance width="558"/>
  <unicode hex="0076"/>
  <outline>
    <contour>
      <point x="350" y="0" type="line"/>
      <point x="121" y="0" type="line"/>
      <point x="27" y="511" type="line"/>
      <point x="238" y="511" type="line"/>
      <point x="272" y="219" type="line"/>
      <point x="279" y="219" type="line"/>
      <point x="395" y="511" type="line"/>
      <point x="588" y="511" type="line"/>
    </contour>
  </outline>
</glyph>
<glyph name="w" format="1">
  <advance width="855"/>
  <unicode hex="0077"/>
  <outline>
    <contour>
      <point x="664" y="0" type="line"/>
      <point x="440" y="0" type="line"/>
      <point x="421" y="213" type="line"/>
      <point x="413" y="213" type="line"/>
      <point x="335" y="0" type="line"/>
      <point x="107" y="0" type="line"/>
      <point x="33" y="511" type="line"/>
      <point x="239" y="511" type="line"/>
      <point x="260" y="253" type="line"/>
      <point x="267" y="253" type="line"/>
      <point x="364" y="511" type="line"/>
      <point x="564" y="511" type="line"/>
      <point x="588" y="253" type="line"/>
      <point x="596" y="253" type="line"/>
      <point x="689" y="511" type="line"/>
      <point x="881" y="511" type="line"/>
    </contour>
  </outline>
</glyph>
<glyph name="x" format="1">
  <advance width="583"/>
  <unicode hex="0078"/>
  <outline>
    <contour>
      <point x="418" y="265" type="line"/>
      <point x="548" y="0" type="line"/>
      <point x="321" y="0" type="line"/>
      <point x="265" y="143" type="line"/>
      <point x="261" y="143" type="line"/>
      <point x="164" y="0" type="line"/>
      <point x="-48" y="0" type="line"/>
      <point x="159" y="270" type="line"/>
      <point x="40" y="511" type="line"/>
      <point x="267" y="511" type="line"/>
      <point x="313" y="393" type="line"/>
      <point x="317" y="393" type="line"/>
      <point x="395" y="511" type="line"/>
      <point x="608" y="511" type="line"/>
    </contour>
  </outline>
</glyph>
<glyph name="y" format="1">
  <advance width="552"/>
  <unicode hex="0079"/>
  <outline>
    <contour>
      <point x="586" y="511" type="line"/>
      <point x="347" y="36" type="line" smooth="yes"/>
      <point x="283" y="-91"/>
      <point x="183" y="-187"/>
      <point x="61" y="-187" type="curve" smooth="yes"/>
      <point x="18" y="-187"/>
      <point x="-15" y="-183"/>
      <point x="-34" y="-172" type="curve"/>
      <point x="-17" y="-43" type="line"/>
      <point x="-4" y="-50"/>
      <point x="28" y="-57"/>
      <point x="56" y="-57" type="curve" smooth="yes"/>
      <point x="117" y="-57"/>
      <point x="136" y="-10"/>
      <point x="144" y="15" type="curve"/>
      <point x="26" y="511" type="line"/>
      <point x="237" y="511" type="line"/>
      <point x="278" y="246" type="line"/>
      <point x="286" y="246" type="line"/>
      <point x="391" y="511" type="line"/>
    </contour>
  </outline>
</glyph>
<glyph name="z" format="1">
  <advance width="497"/>
  <unicode hex="007A"/>
  <outline>
    <contour>
      <point x="488" y="451" type="line"/>
      <point x="253" y="124" type="line"/>
      <point x="450" y="124" type="line"/>
      <point x="433" y="0" type="line"/>
      <point x="-18" y="0" type="line"/>
      <point x="-10" y="63" type="line"/>
      <point x="223" y="387" type="line"/>
      <point x="46" y="387" type="line"/>
      <point x="63" y="511" type="line"/>
      <point x="496" y="511" type="line"/>
    </contour>
  </outline>
</glyph>
<glyph name="braceleft" format="1">
  <advance width="342"/>
  <unicode hex="007B"/>
  <outline>
    <contour>
      <point x="375" y="686" type="line"/>
      <point x="365" y="618" type="line"/>
      <point x="338" y="618"/>
      <point x="291" y="614"/>
      <point x="284" y="577" type="curve" smooth="yes"/>
      <point x="245" y="371" type="line" smooth="yes"/>
      <point x="233" y="306"/>
      <point x="196" y="268"/>
      <point x="129" y="268" type="curve"/>
      <point x="128" y="259" type="line"/>
      <point x="188" y="259"/>
      <point x="215" y="228"/>
      <point x="215" y="175" type="curve" smooth="yes"/>
      <point x="215" y="131"/>
      <point x="196" y="-22"/>
      <point x="196" y="-54" type="curve" smooth="yes"/>
      <point x="196" y="-87"/>
      <point x="238" y="-91"/>
      <point x="266" y="-91" type="curve"/>
      <point x="256" y="-159" type="line"/>
      <point x="175" y="-159" type="line" smooth="yes"/>
      <point x="112" y="-159"/>
      <point x="49" y="-130"/>
      <point x="49" y="-63" type="curve" smooth="yes"/>
      <point x="49" y="-29"/>
      <point x="81" y="149"/>
      <point x="81" y="178" type="curve" smooth="yes"/>
      <point x="81" y="211"/>
      <point x="48" y="224"/>
      <point x="11" y="224" type="curve"/>
      <point x="22" y="303" type="line"/>
      <point x="56" y="303"/>
      <point x="101" y="320"/>
      <point x="107" y="360" type="curve" smooth="yes"/>
      <point x="137" y="574" type="line" smooth="yes"/>
      <point x="148" y="651"/>
      <point x="226" y="686"/>
      <point x="294" y="686" type="curve" smooth="yes"/>
    </contour>
  </outline>
</glyph>
<glyph name="braceright" format="1">
  <advance width="341"/>
  <unicode hex="007D"/>
  <outline>
    <contour>
      <point x="77" y="686" type="line"/>
      <point x="158" y="686" type="line" smooth="yes"/>
      <point x="221" y="686"/>
      <point x="284" y="657"/>
      <point x="284" y="590" type="curve" smooth="yes"/>
      <point x="283" y="582"/>
      <point x="281" y="555"/>
      <point x="276" y="522" type="curve" smooth="yes"/>
      <point x="260" y="418" type="line" smooth="yes"/>
      <point x="255" y="385"/>
      <point x="253" y="359"/>
      <point x="252" y="352" type="curve" smooth="yes"/>
      <point x="252" y="317"/>
      <point x="287" y="303"/>
      <point x="322" y="303" type="curve"/>
      <point x="310" y="224" type="line"/>
      <point x="274" y="224"/>
      <point x="231" y="209"/>
      <point x="226" y="169" type="curve" smooth="yes"/>
      <point x="196" y="-47" type="line" smooth="yes"/>
      <point x="185" y="-124"/>
      <point x="107" y="-159"/>
      <point x="39" y="-159" type="curve" smooth="yes"/>
      <point x="-41" y="-159" type="line"/>
      <point x="-31" y="-91" type="line"/>
      <point x="-4" y="-91"/>
      <point x="43" y="-87"/>
      <point x="50" y="-49" type="curve" smooth="yes"/>
      <point x="88" y="156" type="line" smooth="yes"/>
      <point x="100" y="221"/>
      <point x="137" y="259"/>
      <point x="204" y="259" type="curve"/>
      <point x="205" y="268" type="line"/>
      <point x="145" y="268"/>
      <point x="118" y="298"/>
      <point x="118" y="351" type="curve" smooth="yes"/>
      <point x="118" y="379"/>
      <point x="138" y="562"/>
      <point x="138" y="580" type="curve" smooth="yes"/>
      <point x="138" y="615"/>
      <point x="94" y="618"/>
      <point x="67" y="618" type="curve"/>
    </contour>
  </outline>
</glyph>
<glyph name="asciitilde" format="1">
  <advance width="649"/>
  <unicode hex="007E"/>
  <outline>
    <contour>
      <point x="624" y="406" type="curve"/>
      <point x="606" y="280" type="line"/>
      <point x="572" y="246"/>
      <point x="507" y="202"/>
      <point x="432" y="202" type="curve" smooth="yes"/>
      <point x="346" y="202"/>
      <point x="291" y="268"/>
      <point x="203" y="268" type="curve" smooth="yes"/>
      <point x="125" y="268"/>
      <point x="63" y="222"/>
      <point x="29" y="190" type="curve"/>
      <point x="47" y="316" type="line"/>
      <point x="81" y="348"/>
      <point x="143" y="394"/>
      <point x="221" y="394" type="curve" smooth="yes"/>
      <point x="307" y="394"/>
      <point x="362" y="328"/>
      <point x="450" y="328" type="curve" smooth="yes"/>
      <point x="525" y="328"/>
      <point x="590" y="372"/>
    </contour>
  </outline>
</glyph>
<glyph name="cent" format="1">
  <advance width="580"/>
  <unicode hex="00A2"/>
  <outline>
    <contour>
      <point x="419" y="694" type="line"/>
      <point x="395" y="604" type="line"/>
      <point x="538" y="585"/>
      <point x="568" y="491"/>
      <point x="568" y="426" type="curve" smooth="yes"/>
      <point x="568" y="414"/>
      <point x="567" y="402"/>
      <point x="565" y="390" type="curve"/>
      <point x="397" y="390" type="line"/>
      <point x="397" y="404"/>
      <point x="400" y="419"/>
      <point x="400" y="425" type="curve" smooth="yes"/>
      <point x="400" y="460"/>
      <point x="376" y="486"/>
      <point x="341" y="486" type="curve" smooth="yes"/>
      <point x="294" y="486"/>
      <point x="267" y="455"/>
      <point x="262" y="416" type="curve" smooth="yes"/>
      <point x="249" y="346"/>
      <point x="240" y="273"/>
      <point x="240" y="257" type="curve" smooth="yes"/>
      <point x="240" y="222"/>
      <point x="264" y="197"/>
      <point x="307" y="197" type="curve" smooth="yes"/>
      <point x="362" y="197"/>
      <point x="385" y="236"/>
      <point x="390" y="267" type="curve" smooth="yes"/>
      <point x="394" y="293" type="line"/>
      <point x="552" y="293" type="line"/>
      <point x="533" y="166"/>
      <point x="446" y="91"/>
      <point x="322" y="78" type="curve"/>
      <point x="322" y="-10" type="line"/>
      <point x="191" y="-10" type="line"/>
      <point x="218" y="81" type="line"/>
      <point x="93" y="102"/>
      <point x="35" y="191"/>
      <point x="35" y="284" type="curve" smooth="yes"/>
      <point x="35" y="443"/>
      <point x="122" y="579"/>
      <point x="290" y="603" type="curve"/>
      <point x="290" y="694" type="line"/>
    </contour>
  </outline>
</glyph>
<glyph name="sterling" format="1">
  <advance width="668"/>
  <unicode hex="00A3"/>
  <outline>
    <contour>
      <point x="442" y="700" type="curve" smooth="yes"/>
      <point x="574" y="700"/>
      <point x="672" y="620"/>
      <point x="672" y="517" type="curve" smooth="yes"/>
      <point x="672" y="506"/>
      <point x="670" y="495"/>
      <point x="669" y="484" type="curve" smooth="yes"/>
      <point x="666" y="466" type="line"/>
      <point x="467" y="466" type="line"/>
      <point x="469" y="478" type="line" smooth="yes"/>
      <point x="470" y="485"/>
      <point x="471" y="494"/>
      <point x="471" y="501" type="curve" smooth="yes"/>
      <point x="471" y="530"/>
      <point x="450" y="552"/>
      <point x="421" y="552" type="curve" smooth="yes"/>
      <point x="381" y="552"/>
      <point x="360" y="526"/>
      <point x="355" y="494" type="curve" smooth="yes"/>
      <point x="343" y="413" type="line"/>
      <point x="439" y="413" type="line"/>
      <point x="419" y="266" type="line"/>
      <point x="322" y="266" type="line"/>
      <point x="285" y="147" type="line"/>
      <point x="567" y="147" type="line"/>
      <point x="546" y="0" type="line"/>
      <point x="24" y="0" type="line"/>
      <point x="44" y="147" type="line"/>
      <point x="108" y="147" type="line"/>
      <point x="125" y="266" type="line"/>
      <point x="32" y="266" type="line"/>
      <point x="51" y="413" type="line"/>
      <point x="145" y="413" type="line"/>
      <point x="157" y="493" type="line" smooth="yes"/>
      <point x="174" y="609"/>
      <point x="281" y="700"/>
    </contour>
  </outline>
</glyph>
<glyph name="currency" format="1">
  <advance width="607"/>
  <unicode hex="00A4"/>
  <outline>
    <contour>
      <point x="600" y="535" type="line"/>
      <point x="536" y="479" type="line"/>
      <point x="552" y="458"/>
      <point x="561" y="422"/>
      <point x="561" y="381" type="curve" smooth="yes"/>
      <point x="561" y="313"/>
      <point x="537" y="241"/>
      <point x="494" y="197" type="curve"/>
      <point x="542" y="141" type="line"/>
      <point x="474" y="81" type="line"/>
      <point x="424" y="139" type="line"/>
      <point x="389" y="108"/>
      <point x="332" y="91"/>
      <point x="275" y="91" type="curve" smooth="yes"/>
      <point x="219" y="91"/>
      <point x="168" y="108"/>
      <point x="140" y="137" type="curve"/>
      <point x="75" y="80" type="line"/>
      <point x="22" y="141" type="line"/>
      <point x="88" y="199" type="line"/>
      <point x="69" y="224"/>
      <point x="59" y="261"/>
      <point x="59" y="302" type="curve" smooth="yes"/>
      <point x="59" y="365"/>
      <point x="85" y="441"/>
      <point x="128" y="479" type="curve"/>
      <point x="78" y="537" type="line"/>
      <point x="150" y="600" type="line"/>
      <point x="199" y="543" type="line"/>
      <point x="232" y="570"/>
      <point x="292" y="587"/>
      <point x="345" y="587" type="curve" smooth="yes"/>
      <point x="401" y="587"/>
      <point x="452" y="569"/>
      <point x="475" y="545" type="curve"/>
      <point x="541" y="603" type="line"/>
    </contour>
    <contour>
      <point x="330" y="477" type="curve" smooth="yes"/>
      <point x="249" y="477"/>
      <point x="180" y="402"/>
      <point x="180" y="317" type="curve" smooth="yes"/>
      <point x="180" y="250"/>
      <point x="224" y="201"/>
      <point x="291" y="201" type="curve" smooth="yes"/>
      <point x="375" y="201"/>
      <point x="440" y="279"/>
      <point x="440" y="362" type="curve" smooth="yes"/>
      <point x="440" y="426"/>
      <point x="399" y="477"/>
    </contour>
  </outline>
</glyph>
<glyph name="brokenbar" format="1">
  <advance width="270"/>
  <unicode hex="00A6"/>
  <outline>
    <contour>
      <point x="227" y="412" type="line"/>
      <point x="77" y="412" type="line"/>
      <point x="116" y="686" type="line"/>
      <point x="266" y="686" type="line"/>
    </contour>
    <contour>
      <point x="169" y="0" type="line"/>
      <point x="19" y="0" type="line"/>
      <point x="58" y="274" type="line"/>
      <point x="208" y="274" type="line"/>
    </contour>
  </outline>
</glyph>
<glyph name="section" format="1">
  <advance width="568"/>
  <unicode hex="00A7"/>
  <outline>
    <contour>
      <point x="337" y="696" type="curve" smooth="yes"/>
      <point x="430" y="696"/>
      <point x="553" y="666"/>
      <point x="553" y="563" type="curve" smooth="yes"/>
      <point x="553" y="552" type="line" smooth="yes"/>
      <point x="553" y="548"/>
      <point x="552" y="542"/>
      <point x="551" y="533" type="curve"/>
      <point x="387" y="533" type="line"/>
      <point x="387" y="564"/>
      <point x="357" y="578"/>
      <point x="322" y="578" type="curve" smooth="yes"/>
      <point x="297" y="578"/>
      <point x="254" y="573"/>
      <point x="254" y="537" type="curve" smooth="yes"/>
      <point x="254" y="457"/>
      <point x="535" y="449"/>
      <point x="535" y="280" type="curve" smooth="yes"/>
      <point x="535" y="190"/>
      <point x="474" y="132"/>
      <point x="433" y="109" type="curve"/>
      <point x="465" y="88"/>
      <point x="481" y="45"/>
      <point x="481" y="4" type="curve" smooth="yes"/>
      <point x="481" y="-138"/>
      <point x="329" y="-185"/>
      <point x="222" y="-185" type="curve" smooth="yes"/>
      <point x="128" y="-185"/>
      <point x="6" y="-155"/>
      <point x="6" y="-51" type="curve" smooth="yes"/>
      <point x="6" y="-41" type="line" smooth="yes"/>
      <point x="6" y="-38"/>
      <point x="7" y="-32"/>
      <point x="8" y="-25" type="curve"/>
      <point x="172" y="-25" type="line"/>
      <point x="172" y="-57"/>
      <point x="205" y="-67"/>
      <point x="242" y="-67" type="curve" smooth="yes"/>
      <point x="266" y="-67"/>
      <point x="304" y="-63"/>
      <point x="304" y="-26" type="curve" smooth="yes"/>
      <point x="304" y="54"/>
      <point x="24" y="61"/>
      <point x="24" y="232" type="curve" smooth="yes"/>
      <point x="24" y="319"/>
      <point x="66" y="366"/>
      <point x="126" y="402" type="curve"/>
      <point x="94" y="423"/>
      <point x="77" y="466"/>
      <point x="77" y="507" type="curve" smooth="yes"/>
      <point x="77" y="649"/>
      <point x="230" y="696"/>
    </contour>
    <contour>
      <point x="221" y="343" type="curve"/>
      <point x="198" y="334"/>
      <point x="183" y="309"/>
      <point x="183" y="286" type="curve" smooth="yes"/>
      <point x="183" y="223"/>
      <point x="296" y="187"/>
      <point x="343" y="164" type="curve"/>
      <point x="358" y="170"/>
      <point x="380" y="187"/>
      <point x="380" y="220" type="curve" smooth="yes"/>
      <point x="380" y="284"/>
      <point x="266" y="319"/>
    </contour>
  </outline>
</glyph>
<glyph name="dieresis" format="1">
  <advance width="440"/>
  <unicode hex="00A8"/>
  <outline>
    <contour>
      <point x="178" y="603" type="line"/>
      <point x="26" y="603" type="line"/>
      <point x="47" y="750" type="line"/>
      <point x="199" y="750" type="line"/>
    </contour>
    <contour>
      <point x="398" y="603" type="line"/>
      <point x="246" y="603" type="line"/>
      <point x="267" y="750" type="line"/>
      <point x="419" y="750" type="line"/>
    </contour>
  </outline>
</glyph>
<glyph name="copyright" format="1">
  <advance width="775"/>
  <unicode hex="00A9"/>
  <outline>
    <contour>
      <point x="395" y="696" type="curve" smooth="yes"/>
      <point x="590" y="696"/>
      <point x="749" y="539"/>
      <point x="749" y="344" type="curve" smooth="yes"/>
      <point x="749" y="147"/>
      <point x="590" y="-10"/>
      <point x="395" y="-10" type="curve" smooth="yes"/>
      <point x="198" y="-10"/>
      <point x="41" y="147"/>
      <point x="41" y="344" type="curve" smooth="yes"/>
      <point x="41" y="539"/>
      <point x="198" y="696"/>
    </contour>
    <contour>
      <point x="395" y="632" type="curve" smooth="yes"/>
      <point x="224" y="632"/>
      <point x="117" y="518"/>
      <point x="117" y="344" type="curve" smooth="yes"/>
      <point x="117" y="168"/>
      <point x="224" y="55"/>
      <point x="395" y="55" type="curve" smooth="yes"/>
      <point x="563" y="55"/>
      <point x="673" y="168"/>
      <point x="673" y="344" type="curve" smooth="yes"/>
      <point x="673" y="518"/>
      <point x="563" y="632"/>
    </contour>
    <contour>
      <point x="388" y="555" type="curve" smooth="yes"/>
      <point x="404" y="555" type="line" smooth="yes"/>
      <point x="502" y="555"/>
      <point x="578" y="497"/>
      <point x="578" y="380" type="curve"/>
      <point x="460" y="380" type="line"/>
      <point x="460" y="401" type="line" smooth="yes"/>
      <point x="460" y="438"/>
      <point x="433" y="461"/>
      <point x="397" y="461" type="curve" smooth="yes"/>
      <point x="364" y="461"/>
      <point x="337" y="434"/>
      <point x="337" y="401" type="curve" smooth="yes"/>
      <point x="337" y="285" type="line" smooth="yes"/>
      <point x="337" y="252"/>
      <point x="364" y="225"/>
      <point x="397" y="225" type="curve" smooth="yes"/>
      <point x="406" y="225" type="line" smooth="yes"/>
      <point x="439" y="225"/>
      <point x="466" y="246"/>
      <point x="466" y="285" type="curve" smooth="yes"/>
      <point x="466" y="305" type="line"/>
      <point x="578" y="305" type="line"/>
      <point x="578" y="197"/>
      <point x="505" y="131"/>
      <point x="409" y="131" type="curve" smooth="yes"/>
      <point x="392" y="131" type="line" smooth="yes"/>
      <point x="287" y="131"/>
      <point x="202" y="196"/>
      <point x="202" y="311" type="curve" smooth="yes"/>
      <point x="202" y="375" type="line" smooth="yes"/>
      <point x="202" y="483"/>
      <point x="288" y="555"/>
    </contour>
  </outline>
</glyph>
<glyph name="ordfeminine" format="1">
  <advance width="418"/>
  <unicode hex="00AA"/>
  <outline>
    <contour>
      <point x="208" y="696" type="curve" smooth="yes"/>
      <point x="240" y="696"/>
      <point x="270" y="681"/>
      <point x="289" y="653" type="curve"/>
      <point x="293" y="653" type="line"/>
      <point x="313" y="690" type="line"/>
      <point x="403" y="690" type="line"/>
      <point x="381" y="543" type="line" smooth="yes"/>
      <point x="375" y="504"/>
      <point x="371" y="471"/>
      <point x="371" y="465" type="curve" smooth="yes"/>
      <point x="371" y="454"/>
      <point x="376" y="448"/>
      <point x="387" y="448" type="curve" smooth="yes"/>
      <point x="395" y="448"/>
      <point x="402" y="452"/>
      <point x="409" y="456" type="curve"/>
      <point x="400" y="390" type="line"/>
      <point x="381" y="381"/>
      <point x="357" y="376"/>
      <point x="338" y="376" type="curve" smooth="yes"/>
      <point x="301" y="376"/>
      <point x="267" y="382"/>
      <point x="256" y="423" type="curve"/>
      <point x="235" y="396"/>
      <point x="201" y="376"/>
      <point x="166" y="376" type="curve" smooth="yes"/>
      <point x="91" y="376"/>
      <point x="63" y="430"/>
      <point x="63" y="498" type="curve" smooth="yes"/>
      <point x="63" y="586"/>
      <point x="104" y="696"/>
    </contour>
    <contour>
      <point x="237" y="621" type="curve" smooth="yes"/>
      <point x="214" y="621"/>
      <point x="197" y="602"/>
      <point x="194" y="578" type="curve" smooth="yes"/>
      <point x="184" y="512"/>
      <point x="181" y="493"/>
      <point x="181" y="488" type="curve" smooth="yes"/>
      <point x="181" y="484" type="line" smooth="yes"/>
      <point x="181" y="464"/>
      <point x="194" y="449"/>
      <point x="213" y="449" type="curve" smooth="yes"/>
      <point x="240" y="449"/>
      <point x="253" y="468"/>
      <point x="256" y="491" type="curve" smooth="yes"/>
      <point x="262" y="534" type="line" smooth="yes"/>
      <point x="265" y="557"/>
      <point x="269" y="579"/>
      <point x="269" y="586" type="curve" smooth="yes"/>
      <point x="269" y="609"/>
      <point x="256" y="621"/>
    </contour>
  </outline>
</glyph>
<glyph name="logicalnot" format="1">
  <advance width="621"/>
  <unicode hex="00AC"/>
  <outline>
    <contour>
      <point x="551" y="158" type="line"/>
      <point x="401" y="158" type="line"/>
      <point x="425" y="334" type="line"/>
      <point x="37" y="334" type="line"/>
      <point x="58" y="484" type="line"/>
      <point x="596" y="484" type="line"/>
    </contour>
  </outline>
</glyph>
<glyph name="softhyphen" format="1">
  <advance width="351"/>
  <unicode hex="00AD"/>
  <outline>
    <contour>
      <point x="288" y="196" type="line"/>
      <point x="35" y="196" type="line"/>
      <point x="57" y="354" type="line"/>
      <point x="311" y="354" type="line"/>
    </contour>
  </outline>
</glyph>
<glyph name="registered" format="1">
  <advance width="775"/>
  <unicode hex="00AE"/>
  <outline>
    <contour>
      <point x="395" y="696" type="curve" smooth="yes"/>
      <point x="590" y="696"/>
      <point x="749" y="539"/>
      <point x="749" y="344" type="curve" smooth="yes"/>
      <point x="749" y="147"/>
      <point x="590" y="-10"/>
      <point x="395" y="-10" type="curve" smooth="yes"/>
      <point x="198" y="-10"/>
      <point x="41" y="147"/>
      <point x="41" y="344" type="curve" smooth="yes"/>
      <point x="41" y="539"/>
      <point x="198" y="696"/>
    </contour>
    <contour>
      <point x="395" y="632" type="curve" smooth="yes"/>
      <point x="224" y="632"/>
      <point x="117" y="518"/>
      <point x="117" y="344" type="curve" smooth="yes"/>
      <point x="117" y="168"/>
      <point x="224" y="55"/>
      <point x="395" y="55" type="curve" smooth="yes"/>
      <point x="563" y="55"/>
      <point x="673" y="168"/>
      <point x="673" y="344" type="curve" smooth="yes"/>
      <point x="673" y="518"/>
      <point x="563" y="632"/>
    </contour>
    <contour>
      <point x="230" y="547" type="line"/>
      <point x="461" y="547" type="line" smooth="yes"/>
      <point x="520" y="547"/>
      <point x="575" y="507"/>
      <point x="575" y="445" type="curve" smooth="yes"/>
      <point x="575" y="401"/>
      <point x="544" y="362"/>
      <point x="501" y="354" type="curve"/>
      <point x="500" y="351" type="line"/>
      <point x="547" y="336"/>
      <point x="567" y="290"/>
      <point x="567" y="239" type="curve" smooth="yes"/>
      <point x="567" y="214"/>
      <point x="568" y="173"/>
      <point x="597" y="165" type="curve"/>
      <point x="597" y="141" type="line"/>
      <point x="576" y="132"/>
      <point x="548" y="129"/>
      <point x="525" y="129" type="curve" smooth="yes"/>
      <point x="472" y="129"/>
      <point x="441" y="148"/>
      <point x="441" y="207" type="curve" smooth="yes"/>
      <point x="441" y="245"/>
      <point x="439" y="303"/>
      <point x="387" y="303" type="curve" smooth="yes"/>
      <point x="353" y="303" type="line"/>
      <point x="353" y="135" type="line"/>
      <point x="230" y="135" type="line"/>
    </contour>
    <contour>
      <point x="353" y="459" type="line"/>
      <point x="353" y="389" type="line"/>
      <point x="416" y="389" type="line" smooth="yes"/>
      <point x="433" y="389"/>
      <point x="446" y="402"/>
      <point x="446" y="419" type="curve" smooth="yes"/>
      <point x="446" y="429" type="line" smooth="yes"/>
      <point x="446" y="446"/>
      <point x="433" y="459"/>
      <point x="416" y="459" type="curve" smooth="yes"/>
    </contour>
  </outline>
</glyph>
<glyph name="macron" format="1">
  <advance width="460"/>
  <unicode hex="00AF"/>
  <outline>
    <contour>
      <point x="389" y="662" type="line"/>
      <point x="71" y="662" type="line"/>
      <point x="71" y="736" type="line"/>
      <point x="389" y="736" type="line"/>
    </contour>
  </outline>
</glyph>
<glyph name="degree" format="1">
  <advance width="354"/>
  <unicode hex="00B0"/>
  <outline>
    <contour>
      <point x="234" y="696" type="curve" smooth="yes"/>
      <point x="309" y="696"/>
      <point x="364" y="638"/>
      <point x="364" y="566" type="curve" smooth="yes"/>
      <point x="364" y="481"/>
      <point x="284" y="396"/>
      <point x="191" y="396" type="curve" smooth="yes"/>
      <point x="115" y="396"/>
      <point x="61" y="452"/>
      <point x="61" y="525" type="curve" smooth="yes"/>
      <point x="61" y="616"/>
      <point x="144" y="696"/>
    </contour>
    <contour>
      <point x="219" y="607" type="curve" smooth="yes"/>
      <point x="185" y="607"/>
      <point x="148" y="575"/>
      <point x="148" y="538" type="curve" smooth="yes"/>
      <point x="148" y="507"/>
      <point x="171" y="483"/>
      <point x="203" y="483" type="curve" smooth="yes"/>
      <point x="240" y="483"/>
      <point x="274" y="515"/>
      <point x="274" y="554" type="curve" smooth="yes"/>
      <point x="274" y="585"/>
      <point x="251" y="607"/>
    </contour>
  </outline>
</glyph>
<glyph name="plusminus" format="1">
  <advance width="615"/>
  <unicode hex="00B1"/>
  <outline>
    <contour>
      <point x="387" y="400" type="line"/>
      <point x="579" y="400" type="line"/>
      <point x="561" y="272" type="line"/>
      <point x="369" y="272" type="line"/>
      <point x="353" y="160" type="line"/>
      <point x="225" y="160" type="line"/>
      <point x="241" y="272" type="line"/>
      <point x="49" y="272" type="line"/>
      <point x="67" y="400" type="line"/>
      <point x="259" y="400" type="line"/>
      <point x="274" y="512" type="line"/>
      <point x="402" y="512" type="line"/>
    </contour>
    <contour>
      <point x="523" y="0" type="line"/>
      <point x="11" y="0" type="line"/>
      <point x="29" y="128" type="line"/>
      <point x="541" y="128" type="line"/>
    </contour>
  </outline>
</glyph>
<glyph name="twosuperior" format="1">
  <advance width="369"/>
  <unicode hex="00B2"/>
  <outline>
    <contour>
      <point x="247" y="804" type="curve" smooth="yes"/>
      <point x="264" y="804" type="line" smooth="yes"/>
      <point x="337" y="804"/>
      <point x="381" y="763"/>
      <point x="381" y="702" type="curve" smooth="yes"/>
      <point x="381" y="604"/>
      <point x="288" y="563"/>
      <point x="214" y="512" type="curve"/>
      <point x="355" y="512" type="line"/>
      <point x="343" y="422" type="line"/>
      <point x="56" y="422" type="line"/>
      <point x="58" y="441" type="line" smooth="yes"/>
      <point x="62" y="482"/>
      <point x="79" y="507"/>
      <point x="114" y="534" type="curve" smooth="yes"/>
      <point x="233" y="626" type="line" smooth="yes"/>
      <point x="258" y="645"/>
      <point x="270" y="666"/>
      <point x="270" y="689" type="curve" smooth="yes"/>
      <point x="270" y="708"/>
      <point x="258" y="720"/>
      <point x="239" y="720" type="curve" smooth="yes"/>
      <point x="232" y="720" type="line" smooth="yes"/>
      <point x="211" y="720"/>
      <point x="191" y="704"/>
      <point x="188" y="683" type="curve" smooth="yes"/>
      <point x="186" y="668" type="line"/>
      <point x="91" y="668" type="line"/>
      <point x="91" y="716"/>
      <point x="127" y="804"/>
    </contour>
  </outline>
</glyph>
<glyph name="threesuperior" format="1">
  <advance width="354"/>
  <unicode hex="00B3"/>
  <outline>
    <contour>
      <point x="239" y="801" type="curve" smooth="yes"/>
      <point x="255" y="801" type="line" smooth="yes"/>
      <point x="327" y="801"/>
      <point x="371" y="763"/>
      <point x="371" y="712" type="curve" smooth="yes"/>
      <point x="371" y="669"/>
      <point x="342" y="631"/>
      <point x="307" y="616" type="curve"/>
      <point x="340" y="603"/>
      <point x="356" y="577"/>
      <point x="356" y="539" type="curve" smooth="yes"/>
      <point x="356" y="450"/>
      <point x="275" y="413"/>
      <point x="200" y="413" type="curve" smooth="yes"/>
      <point x="178" y="413" type="line" smooth="yes"/>
      <point x="94" y="413"/>
      <point x="52" y="453"/>
      <point x="52" y="506" type="curve" smooth="yes"/>
      <point x="52" y="510"/>
      <point x="52" y="515"/>
      <point x="55" y="531" type="curve"/>
      <point x="150" y="531" type="line"/>
      <point x="150" y="511"/>
      <point x="154" y="493"/>
      <point x="187" y="493" type="curve" smooth="yes"/>
      <point x="201" y="493" type="line" smooth="yes"/>
      <point x="233" y="493"/>
      <point x="251" y="515"/>
      <point x="251" y="546" type="curve" smooth="yes"/>
      <point x="251" y="569"/>
      <point x="237" y="578"/>
      <point x="218" y="578" type="curve" smooth="yes"/>
      <point x="163" y="578" type="line"/>
      <point x="173" y="644" type="line"/>
      <point x="220" y="644" type="line" smooth="yes"/>
      <point x="240" y="644"/>
      <point x="262" y="655"/>
      <point x="262" y="690" type="curve" smooth="yes"/>
      <point x="262" y="707"/>
      <point x="250" y="721"/>
      <point x="231" y="721" type="curve" smooth="yes"/>
      <point x="221" y="721" type="line" smooth="yes"/>
      <point x="200" y="721"/>
      <point x="182" y="706"/>
      <point x="179" y="687" type="curve"/>
      <point x="89" y="687" type="line"/>
      <point x="89" y="756"/>
      <point x="157" y="801"/>
    </contour>
  </outline>
</glyph>
<glyph name="acute" format="1">
  <advance width="333"/>
  <unicode hex="00B4"/>
  <outline>
    <contour>
      <point x="295" y="717" type="line"/>
      <point x="149" y="575" type="line"/>
      <point x="31" y="575" type="line"/>
      <point x="143" y="720" type="line"/>
      <point x="294" y="720" type="line"/>
    </contour>
  </outline>
</glyph>
<glyph name="micro" format="1">
  <advance width="650"/>
  <unicode hex="00B5"/>
  <outline>
    <contour>
      <point x="391" y="511" type="line"/>
      <point x="589" y="511" type="line"/>
      <point x="563" y="336"/>
      <point x="537" y="158"/>
      <point x="537" y="140" type="curve" smooth="yes"/>
      <point x="537" y="120"/>
      <point x="551" y="111"/>
      <point x="564" y="111" type="curve" smooth="yes"/>
      <point x="576" y="111"/>
      <point x="586" y="114"/>
      <point x="600" y="120" type="curve"/>
      <point x="585" y="13" type="line"/>
      <point x="564" y="0"/>
      <point x="531" y="-10"/>
      <point x="481" y="-10" type="curve" smooth="yes"/>
      <point x="392" y="-10"/>
      <point x="356" y="20"/>
      <point x="345" y="71" type="curve"/>
      <point x="329" y="50"/>
      <point x="283" y="0"/>
      <point x="205" y="-8" type="curve"/>
      <point x="205" y="-18" type="line" smooth="yes"/>
      <point x="205" y="-33"/>
      <point x="205" y="-56"/>
      <point x="201" y="-83" type="curve" smooth="yes"/>
      <point x="190" y="-161" type="line"/>
      <point x="-8" y="-161" type="line"/>
      <point x="87" y="511" type="line"/>
      <point x="285" y="511" type="line"/>
      <point x="262" y="352" type="line" smooth="yes"/>
      <point x="249" y="272"/>
      <point x="239" y="188"/>
      <point x="239" y="181" type="curve" smooth="yes"/>
      <point x="239" y="153"/>
      <point x="254" y="131"/>
      <point x="285" y="131" type="curve" smooth="yes"/>
      <point x="320" y="131"/>
      <point x="341" y="158"/>
      <point x="346" y="191" type="curve" smooth="yes"/>
    </contour>
  </outline>
</glyph>
<glyph name="periodcentered" format="1">
  <advance width="287"/>
  <unicode hex="00B7"/>
  <outline>
    <contour>
      <point x="226" y="197" type="line"/>
      <point x="35" y="197" type="line"/>
      <point x="60" y="380" type="line"/>
      <point x="251" y="380" type="line"/>
    </contour>
  </outline>
</glyph>
<glyph name="cedilla" format="1">
  <advance width="334"/>
  <unicode hex="00B8"/>
  <outline>
    <contour>
      <point x="160" y="-17" type="line"/>
      <point x="181" y="-17" type="line" smooth="yes"/>
      <point x="235" y="-17"/>
      <point x="291" y="-32"/>
      <point x="291" y="-92" type="curve" smooth="yes"/>
      <point x="291" y="-100" type="line" smooth="yes"/>
      <point x="291" y="-180"/>
      <point x="202" y="-197"/>
      <point x="160" y="-197" type="curve" smooth="yes"/>
      <point x="113" y="-197"/>
      <point x="66" y="-185"/>
      <point x="39" y="-161" type="curve"/>
      <point x="79" y="-107" type="line"/>
      <point x="89" y="-120"/>
      <point x="115" y="-139"/>
      <point x="159" y="-139" type="curve" smooth="yes"/>
      <point x="186" y="-139"/>
      <point x="204" y="-129"/>
      <point x="204" y="-100" type="curve" smooth="yes"/>
      <point x="204" y="-85"/>
      <point x="195" y="-76"/>
      <point x="170" y="-76" type="curve" smooth="yes"/>
      <point x="152" y="-76" type="line"/>
    </contour>
  </outline>
</glyph>
<glyph name="onesuperior" format="1">
  <advance width="335"/>
  <unicode hex="00B9"/>
  <outline>
    <contour>
      <point x="256" y="504" type="line"/>
      <point x="334" y="504" type="line"/>
      <point x="322" y="422" type="line"/>
      <point x="57" y="422" type="line"/>
      <point x="69" y="504" type="line"/>
      <point x="151" y="504" type="line"/>
      <point x="175" y="676" type="line"/>
      <point x="93" y="676" type="line"/>
      <point x="102" y="738" type="line"/>
      <point x="151" y="741"/>
      <point x="216" y="769"/>
      <point x="261" y="796" type="curve"/>
      <point x="297" y="796" type="line"/>
    </contour>
  </outline>
</glyph>
<glyph name="ordmasculine" format="1">
  <advance width="395"/>
  <unicode hex="00BA"/>
  <outline>
    <contour>
      <point x="244" y="696" type="curve" smooth="yes"/>
      <point x="254" y="696" type="line" smooth="yes"/>
      <point x="350" y="696"/>
      <point x="402" y="644"/>
      <point x="402" y="567" type="curve" smooth="yes"/>
      <point x="402" y="458"/>
      <point x="327" y="378"/>
      <point x="218" y="378" type="curve" smooth="yes"/>
      <point x="209" y="378" type="line" smooth="yes"/>
      <point x="112" y="378"/>
      <point x="60" y="430"/>
      <point x="60" y="507" type="curve" smooth="yes"/>
      <point x="60" y="597"/>
      <point x="117" y="696"/>
    </contour>
    <contour>
      <point x="243" y="624" type="curve" smooth="yes"/>
      <point x="218" y="624"/>
      <point x="199" y="605"/>
      <point x="196" y="582" type="curve" smooth="yes"/>
      <point x="189" y="536" type="line" smooth="yes"/>
      <point x="185" y="513"/>
      <point x="183" y="489"/>
      <point x="183" y="486" type="curve" smooth="yes"/>
      <point x="183" y="466"/>
      <point x="198" y="450"/>
      <point x="219" y="450" type="curve" smooth="yes"/>
      <point x="245" y="450"/>
      <point x="263" y="469"/>
      <point x="266" y="492" type="curve" smooth="yes"/>
      <point x="272" y="536" type="line" smooth="yes"/>
      <point x="275" y="559"/>
      <point x="279" y="582"/>
      <point x="279" y="587" type="curve" smooth="yes"/>
      <point x="279" y="606"/>
      <point x="266" y="624"/>
    </contour>
  </outline>
</glyph>
<glyph name="guillemetright" format="1">
  <advance width="443"/>
  <unicode hex="00BB"/>
  <outline>
    <contour>
      <point x="238" y="337" type="line"/>
      <point x="93" y="163" type="line"/>
      <point x="19" y="163" type="line"/>
      <point x="129" y="337" type="line"/>
      <point x="68" y="511" type="line"/>
      <point x="142" y="511" type="line"/>
    </contour>
    <contour>
      <point x="419" y="337" type="line"/>
      <point x="274" y="163" type="line"/>
      <point x="200" y="163" type="line"/>
      <point x="310" y="337" type="line"/>
      <point x="249" y="511" type="line"/>
      <point x="323" y="511" type="line"/>
    </contour>
  </outline>
</glyph>
<glyph name="onequarter" format="1">
  <advance width="765"/>
  <unicode hex="00BC"/>
  <outline>
    <contour>
      <point x="192" y="0" type="line"/>
      <point x="103" y="0" type="line"/>
      <point x="620" y="686" type="line"/>
      <point x="706" y="686" type="line"/>
    </contour>
    <contour>
      <point x="238" y="393" type="line"/>
      <point x="316" y="393" type="line"/>
      <point x="304" y="311" type="line"/>
      <point x="39" y="311" type="line"/>
      <point x="51" y="393" type="line"/>
      <point x="133" y="393" type="line"/>
      <point x="157" y="565" type="line"/>
      <point x="75" y="565" type="line"/>
      <point x="83" y="627" type="line"/>
      <point x="133" y="630"/>
      <point x="198" y="658"/>
      <point x="243" y="685" type="curve"/>
      <point x="279" y="685" type="line"/>
    </contour>
    <contour>
      <point x="529" y="375" type="curve"/>
      <point x="624" y="375" type="line"/>
      <point x="608" y="317"/>
      <point x="529" y="207"/>
      <point x="485" y="161" type="curve"/>
      <point x="566" y="161" type="line"/>
      <point x="574" y="216" type="line"/>
      <point x="595" y="242"/>
      <point x="636" y="309"/>
      <point x="647" y="339" type="curve"/>
      <point x="692" y="339" type="line"/>
      <point x="667" y="161" type="line"/>
      <point x="720" y="161" type="line"/>
      <point x="709" y="81" type="line"/>
      <point x="656" y="81" type="line"/>
      <point x="644" y="0" type="line"/>
      <point x="543" y="0" type="line"/>
      <point x="555" y="81" type="line"/>
      <point x="404" y="81" type="line"/>
      <point x="415" y="162" type="line"/>
      <point x="449" y="209"/>
      <point x="510" y="322"/>
    </contour>
  </outline>
</glyph>
<glyph name="onehalf" format="1">
  <advance width="765"/>
  <unicode hex="00BD"/>
  <outline>
    <contour>
      <point x="235" y="394" type="line"/>
      <point x="313" y="394" type="line"/>
      <point x="301" y="312" type="line"/>
      <point x="36" y="312" type="line"/>
      <point x="48" y="394" type="line"/>
      <point x="130" y="394" type="line"/>
      <point x="154" y="566" type="line"/>
      <point x="72" y="566" type="line"/>
      <point x="81" y="628" type="line"/>
      <point x="130" y="631"/>
      <point x="195" y="659"/>
      <point x="240" y="686" type="curve"/>
      <point x="276" y="686" type="line"/>
    </contour>
    <contour>
      <point x="189" y="0" type="line"/>
      <point x="100" y="0" type="line"/>
      <point x="617" y="686" type="line"/>
      <point x="703" y="686" type="line"/>
    </contour>
    <contour>
      <point x="600" y="382" type="curve" smooth="yes"/>
      <point x="617" y="382" type="line" smooth="yes"/>
      <point x="690" y="382"/>
      <point x="734" y="341"/>
      <point x="734" y="280" type="curve" smooth="yes"/>
      <point x="734" y="182"/>
      <point x="641" y="141"/>
      <point x="567" y="90" type="curve"/>
      <point x="708" y="90" type="line"/>
      <point x="696" y="0" type="line"/>
      <point x="409" y="0" type="line"/>
      <point x="411" y="19" type="line" smooth="yes"/>
      <point x="415" y="60"/>
      <point x="432" y="85"/>
      <point x="467" y="112" type="curve" smooth="yes"/>
      <point x="586" y="204" type="line" smooth="yes"/>
      <point x="611" y="223"/>
      <point x="623" y="244"/>
      <point x="623" y="267" type="curve" smooth="yes"/>
      <point x="623" y="286"/>
      <point x="611" y="298"/>
      <point x="592" y="298" type="curve" smooth="yes"/>
      <point x="585" y="298" type="line" smooth="yes"/>
      <point x="564" y="298"/>
      <point x="544" y="282"/>
      <point x="541" y="261" type="curve" smooth="yes"/>
      <point x="539" y="246" type="line"/>
      <point x="444" y="246" type="line"/>
      <point x="444" y="294"/>
      <point x="480" y="382"/>
    </contour>
  </outline>
</glyph>
<glyph name="threequarters" format="1">
  <advance width="757"/>
  <unicode hex="00BE"/>
  <outline>
    <contour>
      <point x="230" y="693" type="curve" smooth="yes"/>
      <point x="246" y="693" type="line" smooth="yes"/>
      <point x="318" y="693"/>
      <point x="362" y="655"/>
      <point x="362" y="604" type="curve" smooth="yes"/>
      <point x="362" y="561"/>
      <point x="333" y="523"/>
      <point x="298" y="508" type="curve"/>
      <point x="331" y="495"/>
      <point x="347" y="469"/>
      <point x="347" y="431" type="curve" smooth="yes"/>
      <point x="347" y="342"/>
      <point x="266" y="305"/>
      <point x="191" y="305" type="curve" smooth="yes"/>
      <point x="169" y="305" type="line" smooth="yes"/>
      <point x="85" y="305"/>
      <point x="43" y="345"/>
      <point x="43" y="398" type="curve" smooth="yes"/>
      <point x="43" y="402"/>
      <point x="43" y="407"/>
      <point x="46" y="423" type="curve"/>
      <point x="141" y="423" type="line"/>
      <point x="141" y="403"/>
      <point x="145" y="385"/>
      <point x="178" y="385" type="curve" smooth="yes"/>
      <point x="192" y="385" type="line" smooth="yes"/>
      <point x="224" y="385"/>
      <point x="242" y="407"/>
      <point x="242" y="438" type="curve" smooth="yes"/>
      <point x="242" y="461"/>
      <point x="228" y="470"/>
      <point x="209" y="470" type="curve" smooth="yes"/>
      <point x="154" y="470" type="line"/>
      <point x="164" y="536" type="line"/>
      <point x="211" y="536" type="line" smooth="yes"/>
      <point x="231" y="536"/>
      <point x="253" y="547"/>
      <point x="253" y="582" type="curve" smooth="yes"/>
      <point x="253" y="599"/>
      <point x="241" y="613"/>
      <point x="222" y="613" type="curve" smooth="yes"/>
      <point x="212" y="613" type="line" smooth="yes"/>
      <point x="191" y="613"/>
      <point x="173" y="598"/>
      <point x="170" y="579" type="curve"/>
      <point x="80" y="579" type="line"/>
      <point x="80" y="648"/>
      <point x="148" y="693"/>
    </contour>
    <contour>
      <point x="185" y="0" type="line"/>
      <point x="96" y="0" type="line"/>
      <point x="612" y="686" type="line"/>
      <point x="698" y="686" type="line"/>
    </contour>
    <contour>
      <point x="522" y="375" type="curve"/>
      <point x="617" y="375" type="line"/>
      <point x="601" y="318"/>
      <point x="522" y="206"/>
      <point x="477" y="161" type="curve"/>
      <point x="558" y="161" type="line"/>
      <point x="566" y="216" type="line"/>
      <point x="587" y="242"/>
      <point x="628" y="309"/>
      <point x="639" y="339" type="curve"/>
      <point x="684" y="339" type="line"/>
      <point x="659" y="161" type="line"/>
      <point x="712" y="161" type="line"/>
      <point x="701" y="81" type="line"/>
      <point x="648" y="81" type="line"/>
      <point x="637" y="0" type="line"/>
      <point x="536" y="0" type="line"/>
      <point x="547" y="81" type="line"/>
      <point x="396" y="81" type="line"/>
      <point x="408" y="162" type="line"/>
      <point x="440" y="211"/>
      <point x="503" y="322"/>
    </contour>
  </outline>
</glyph>
<glyph name="questiondown" format="1">
  <advance width="578"/>
  <unicode hex="00BF"/>
  <outline>
    <contour>
      <point x="382" y="328" type="line"/>
      <point x="191" y="328" type="line"/>
      <point x="216" y="511" type="line"/>
      <point x="407" y="511" type="line"/>
    </contour>
    <contour>
      <point x="369" y="292" type="line"/>
      <point x="360" y="233" type="line" smooth="yes"/>
      <point x="347" y="150"/>
      <point x="200" y="108"/>
      <point x="200" y="12" type="curve" smooth="yes"/>
      <point x="200" y="-21"/>
      <point x="222" y="-48"/>
      <point x="257" y="-48" type="curve" smooth="yes"/>
      <point x="324" y="-48"/>
      <point x="337" y="15"/>
      <point x="337" y="63" type="curve"/>
      <point x="521" y="63" type="line"/>
      <point x="521" y="50"/>
      <point x="520" y="38"/>
      <point x="518" y="25" type="curve" smooth="yes"/>
      <point x="498" y="-106"/>
      <point x="384" y="-186"/>
      <point x="238" y="-186" type="curve" smooth="yes"/>
      <point x="200" y="-186" type="line" smooth="yes"/>
      <point x="85" y="-186"/>
      <point x="-12" y="-112"/>
      <point x="-12" y="2" type="curve" smooth="yes"/>
      <point x="-12" y="184"/>
      <point x="187" y="212"/>
      <point x="195" y="270" type="curve" smooth="yes"/>
      <point x="198" y="292" type="line"/>
    </contour>
  </outline>
</glyph>
<glyph name="Aacute" format="1">
  <advance width="709"/>
  <unicode hex="00C1"/>
  <outline>
    <contour>
      <point x="620" y="892" type="line"/>
      <point x="474" y="750" type="line"/>
      <point x="356" y="750" type="line"/>
      <point x="468" y="895" type="line"/>
      <point x="619" y="895" type="line"/>
    </contour>
    <contour>
      <point x="674" y="0" type="line"/>
      <point x="456" y="0" type="line"/>
      <point x="432" y="122" type="line"/>
      <point x="214" y="122" type="line"/>
      <point x="157" y="0" type="line"/>
      <point x="-44" y="0" type="line"/>
      <point x="281" y="686" type="line"/>
      <point x="542" y="686" type="line"/>
    </contour>
    <contour>
      <point x="371" y="475" type="line"/>
      <point x="283" y="267" type="line"/>
      <point x="405" y="267" type="line"/>
      <point x="376" y="475" type="line"/>
    </contour>
  </outline>
</glyph>
<glyph name="Atilde" format="1">
  <advance width="709"/>
  <unicode hex="00C3"/>
  <outline>
    <contour>
      <point x="572" y="889" type="curve"/>
      <point x="653" y="889" type="line"/>
      <point x="642" y="817"/>
      <point x="579" y="746"/>
      <point x="492" y="746" type="curve" smooth="yes"/>
      <point x="428" y="746"/>
      <point x="378" y="786"/>
      <point x="325" y="786" type="curve" smooth="yes"/>
      <point x="300" y="786"/>
      <point x="280" y="769"/>
      <point x="269" y="746" type="curve"/>
      <point x="189" y="746" type="line"/>
      <point x="200" y="818"/>
      <point x="264" y="889"/>
      <point x="349" y="889" type="curve" smooth="yes"/>
      <point x="413" y="889"/>
      <point x="462" y="849"/>
      <point x="516" y="849" type="curve" smooth="yes"/>
      <point x="541" y="849"/>
      <point x="561" y="866"/>
    </contour>
    <contour>
      <point x="674" y="0" type="line"/>
      <point x="456" y="0" type="line"/>
      <point x="432" y="122" type="line"/>
      <point x="214" y="122" type="line"/>
      <point x="157" y="0" type="line"/>
      <point x="-44" y="0" type="line"/>
      <point x="281" y="686" type="line"/>
      <point x="542" y="686" type="line"/>
    </contour>
    <contour>
      <point x="371" y="475" type="line"/>
      <point x="283" y="267" type="line"/>
      <point x="405" y="267" type="line"/>
      <point x="376" y="475" type="line"/>
    </contour>
  </outline>
</glyph>
<glyph name="Aring" format="1">
  <advance width="709"/>
  <unicode hex="00C5"/>
  <outline>
    <contour>
      <point x="439" y="937" type="curve" smooth="yes"/>
      <point x="490" y="937"/>
      <point x="526" y="900"/>
      <point x="526" y="851" type="curve" smooth="yes"/>
      <point x="526" y="787"/>
      <point x="474" y="736"/>
      <point x="410" y="736" type="curve" smooth="yes"/>
      <point x="359" y="736"/>
      <point x="322" y="772"/>
      <point x="322" y="823" type="curve" smooth="yes"/>
      <point x="322" y="885"/>
      <point x="376" y="937"/>
    </contour>
    <contour>
      <point x="429" y="871" type="curve" smooth="yes"/>
      <point x="406" y="871"/>
      <point x="389" y="854"/>
      <point x="389" y="831" type="curve" smooth="yes"/>
      <point x="389" y="814"/>
      <point x="401" y="801"/>
      <point x="420" y="801" type="curve" smooth="yes"/>
      <point x="439" y="801"/>
      <point x="460" y="813"/>
      <point x="460" y="840" type="curve" smooth="yes"/>
      <point x="460" y="859"/>
      <point x="448" y="871"/>
    </contour>
    <contour>
      <point x="674" y="0" type="line"/>
      <point x="456" y="0" type="line"/>
      <point x="432" y="122" type="line"/>
      <point x="214" y="122" type="line"/>
      <point x="157" y="0" type="line"/>
      <point x="-44" y="0" type="line"/>
      <point x="281" y="686" type="line"/>
      <point x="542" y="686" type="line"/>
    </contour>
    <contour>
      <point x="371" y="475" type="line"/>
      <point x="283" y="267" type="line"/>
      <point x="405" y="267" type="line"/>
      <point x="376" y="475" type="line"/>
    </contour>
  </outline>
</glyph>
<glyph name="AE" format="1">
  <advance width="1011"/>
  <unicode hex="00C6"/>
  <outline>
    <contour>
      <point x="997" y="528" type="line"/>
      <point x="642" y="528" type="line"/>
      <point x="642" y="428" type="line"/>
      <point x="971" y="428" type="line"/>
      <point x="950" y="275" type="line"/>
      <point x="656" y="275" type="line"/>
      <point x="656" y="164" type="line"/>
      <point x="942" y="164" type="line"/>
      <point x="942" y="0" type="line"/>
      <point x="439" y="0" type="line"/>
      <point x="439" y="122" type="line"/>
      <point x="221" y="122" type="line"/>
      <point x="146" y="0" type="line"/>
      <point x="-53" y="0" type="line"/>
      <point x="368" y="686" type="line"/>
      <point x="1039" y="686" type="line"/>
    </contour>
    <contour>
      <point x="428" y="475" type="line"/>
      <point x="311" y="267" type="line"/>
      <point x="433" y="267" type="line"/>
      <point x="433" y="475" type="line"/>
    </contour>
  </outline>
</glyph>
<glyph name="Ccedilla" format="1">
  <advance width="684"/>
  <unicode hex="00C7"/>
  <outline>
    <contour>
      <point x="398" y="696" type="curve" smooth="yes"/>
      <point x="426" y="696" type="line" smooth="yes"/>
      <point x="573" y="696"/>
      <point x="679" y="616"/>
      <point x="679" y="460" type="curve" smooth="yes"/>
      <point x="679" y="441"/>
      <point x="678" y="424"/>
      <point x="675" y="405" type="curve"/>
      <point x="478" y="405" type="line"/>
      <point x="483" y="440" type="line" smooth="yes"/>
      <point x="484" y="443"/>
      <point x="484" y="446"/>
      <point x="484" y="448" type="curve" smooth="yes"/>
      <point x="484" y="457" type="line" smooth="yes"/>
      <point x="484" y="509"/>
      <point x="448" y="540"/>
      <point x="397" y="540" type="curve" smooth="yes"/>
      <point x="392" y="540" type="line" smooth="yes"/>
      <point x="324" y="540"/>
      <point x="286" y="496"/>
      <point x="278" y="440" type="curve" smooth="yes"/>
      <point x="251" y="247" type="line" smooth="yes"/>
      <point x="250" y="244"/>
      <point x="250" y="242"/>
      <point x="250" y="240" type="curve" smooth="yes"/>
      <point x="250" y="233" type="line" smooth="yes"/>
      <point x="250" y="184"/>
      <point x="286" y="147"/>
      <point x="337" y="147" type="curve" smooth="yes"/>
      <point x="351" y="147" type="line" smooth="yes"/>
      <point x="419" y="147"/>
      <point x="455" y="183"/>
      <point x="465" y="247" type="curve" smooth="yes"/>
      <point x="470" y="280" type="line"/>
      <point x="658" y="280" type="line"/>
      <point x="631" y="100"/>
      <point x="515" y="-10"/>
      <point x="335" y="-10" type="curve" smooth="yes"/>
      <point x="307" y="-10" type="line" smooth="yes"/>
      <point x="146" y="-10"/>
      <point x="27" y="81"/>
      <point x="27" y="242" type="curve" smooth="yes"/>
      <point x="27" y="258"/>
      <point x="30" y="279"/>
      <point x="46" y="396" type="curve" smooth="yes"/>
      <point x="70" y="576"/>
      <point x="217" y="696"/>
    </contour>
    <contour>
      <point x="276" y="-17" type="line"/>
      <point x="297" y="-17" type="line" smooth="yes"/>
      <point x="351" y="-17"/>
      <point x="407" y="-32"/>
      <point x="407" y="-92" type="curve" smooth="yes"/>
      <point x="407" y="-100" type="line" smooth="yes"/>
      <point x="407" y="-180"/>
      <point x="318" y="-197"/>
      <point x="276" y="-197" type="curve" smooth="yes"/>
      <point x="229" y="-197"/>
      <point x="182" y="-185"/>
      <point x="155" y="-161" type="curve"/>
      <point x="195" y="-107" type="line"/>
      <point x="205" y="-120"/>
      <point x="231" y="-139"/>
      <point x="275" y="-139" type="curve" smooth="yes"/>
      <point x="302" y="-139"/>
      <point x="320" y="-129"/>
      <point x="320" y="-100" type="curve" smooth="yes"/>
      <point x="320" y="-85"/>
      <point x="311" y="-76"/>
      <point x="286" y="-76" type="curve" smooth="yes"/>
      <point x="268" y="-76" type="line"/>
    </contour>
  </outline>
</glyph>
<glyph name="Eacute" format="1">
  <advance width="600"/>
  <unicode hex="00C9"/>
  <outline>
    <contour>
      <point x="572" y="892" type="line"/>
      <point x="426" y="750" type="line"/>
      <point x="308" y="750" type="line"/>
      <point x="420" y="895" type="line"/>
      <point x="571" y="895" type="line"/>
    </contour>
    <contour>
      <point x="586" y="528" type="line"/>
      <point x="297" y="528" type="line"/>
      <point x="282" y="428" type="line"/>
      <point x="560" y="428" type="line"/>
      <point x="539" y="275" type="line"/>
      <point x="261" y="275" type="line"/>
      <point x="245" y="164" type="line"/>
      <point x="531" y="164" type="line"/>
      <point x="531" y="0" type="line"/>
      <point x="16" y="0" type="line"/>
      <point x="113" y="686" type="line"/>
      <point x="628" y="686" type="line"/>
    </contour>
  </outline>
</glyph>
<glyph name="Ecircumflex" format="1">
  <advance width="600"/>
  <unicode hex="00CA"/>
  <outline>
    <contour>
      <point x="582" y="751" type="line"/>
      <point x="452" y="751" type="line"/>
      <point x="389" y="828" type="line"/>
      <point x="304" y="751" type="line"/>
      <point x="176" y="751" type="line"/>
      <point x="336" y="896" type="line"/>
      <point x="464" y="896" type="line"/>
    </contour>
    <contour>
      <point x="586" y="528" type="line"/>
      <point x="297" y="528" type="line"/>
      <point x="282" y="428" type="line"/>
      <point x="560" y="428" type="line"/>
      <point x="539" y="275" type="line"/>
      <point x="261" y="275" type="line"/>
      <point x="245" y="164" type="line"/>
      <point x="531" y="164" type="line"/>
      <point x="531" y="0" type="line"/>
      <point x="16" y="0" type="line"/>
      <point x="113" y="686" type="line"/>
      <point x="628" y="686" type="line"/>
    </contour>
  </outline>
</glyph>
<glyph name="Edieresis" format="1">
  <advance width="600"/>
  <unicode hex="00CB"/>
  <outline>
    <contour>
      <point x="335" y="751" type="line"/>
      <point x="183" y="751" type="line"/>
      <point x="204" y="898" type="line"/>
      <point x="356" y="898" type="line"/>
    </contour>
    <contour>
      <point x="555" y="751" type="line"/>
      <point x="403" y="751" type="line"/>
      <point x="424" y="898" type="line"/>
      <point x="576" y="898" type="line"/>
    </contour>
    <contour>
      <point x="586" y="528" type="line"/>
      <point x="297" y="528" type="line"/>
      <point x="282" y="428" type="line"/>
      <point x="560" y="428" type="line"/>
      <point x="539" y="275" type="line"/>
      <point x="261" y="275" type="line"/>
      <point x="245" y="164" type="line"/>
      <point x="531" y="164" type="line"/>
      <point x="531" y="0" type="line"/>
      <point x="16" y="0" type="line"/>
      <point x="113" y="686" type="line"/>
      <point x="628" y="686" type="line"/>
    </contour>
  </outline>
</glyph>
<glyph name="Igrave" format="1">
  <advance width="446"/>
  <unicode hex="00CC"/>
  <outline>
    <contour>
      <point x="338" y="750" type="line"/>
      <point x="220" y="750" type="line"/>
      <point x="114" y="892" type="line"/>
      <point x="117" y="895" type="line"/>
      <point x="268" y="895" type="line"/>
    </contour>
    <contour>
      <point x="445" y="539" type="line"/>
      <point x="364" y="539" type="line"/>
      <point x="309" y="148" type="line"/>
      <point x="390" y="148" type="line"/>
      <point x="369" y="0" type="line"/>
      <point x="-5" y="0" type="line"/>
      <point x="16" y="148" type="line"/>
      <point x="97" y="148" type="line"/>
      <point x="152" y="539" type="line"/>
      <point x="71" y="539" type="line"/>
      <point x="92" y="686" type="line"/>
      <point x="466" y="686" type="line"/>
    </contour>
  </outline>
</glyph>
<glyph name="Icircumflex" format="1">
  <advance width="446"/>
  <unicode hex="00CE"/>
  <outline>
    <contour>
      <point x="487" y="750" type="line"/>
      <point x="357" y="750" type="line"/>
      <point x="294" y="827" type="line"/>
      <point x="209" y="750" type="line"/>
      <point x="81" y="750" type="line"/>
      <point x="241" y="895" type="line"/>
      <point x="369" y="895" type="line"/>
    </contour>
    <contour>
      <point x="445" y="539" type="line"/>
      <point x="364" y="539" type="line"/>
      <point x="309" y="148" type="line"/>
      <point x="390" y="148" type="line"/>
      <point x="369" y="0" type="line"/>
      <point x="-5" y="0" type="line"/>
      <point x="16" y="148" type="line"/>
      <point x="97" y="148" type="line"/>
      <point x="152" y="539" type="line"/>
      <point x="71" y="539" type="line"/>
      <point x="92" y="686" type="line"/>
      <point x="466" y="686" type="line"/>
    </contour>
  </outline>
</glyph>
<glyph name="Idieresis" format="1">
  <advance width="446"/>
  <unicode hex="00CF"/>
  <outline>
    <contour>
      <point x="250" y="750" type="line"/>
      <point x="98" y="750" type="line"/>
      <point x="119" y="897" type="line"/>
      <point x="271" y="897" type="line"/>
    </contour>
    <contour>
      <point x="470" y="750" type="line"/>
      <point x="318" y="750" type="line"/>
      <point x="339" y="897" type="line"/>
      <point x="491" y="897" type="line"/>
    </contour>
    <contour>
      <point x="445" y="539" type="line"/>
      <point x="364" y="539" type="line"/>
      <point x="309" y="148" type="line"/>
      <point x="390" y="148" type="line"/>
      <point x="369" y="0" type="line"/>
      <point x="-5" y="0" type="line"/>
      <point x="16" y="148" type="line"/>
      <point x="97" y="148" type="line"/>
      <point x="152" y="539" type="line"/>
      <point x="71" y="539" type="line"/>
      <point x="92" y="686" type="line"/>
      <point x="466" y="686" type="line"/>
    </contour>
  </outline>
</glyph>
<glyph name="Eth" format="1">
  <advance width="718"/>
  <unicode hex="00D0"/>
  <outline>
    <contour>
      <point x="134" y="686" type="line"/>
      <point x="443" y="686" type="line" smooth="yes"/>
      <point x="595" y="686"/>
      <point x="704" y="574"/>
      <point x="704" y="428" type="curve" smooth="yes"/>
      <point x="704" y="414"/>
      <point x="703" y="400"/>
      <point x="701" y="386" type="curve" smooth="yes"/>
      <point x="688" y="300" type="line" smooth="yes"/>
      <point x="663" y="134"/>
      <point x="541" y="0"/>
      <point x="346" y="0" type="curve" smooth="yes"/>
      <point x="37" y="0" type="line"/>
      <point x="79" y="297" type="line"/>
      <point x="5" y="297" type="line"/>
      <point x="18" y="391" type="line"/>
      <point x="92" y="391" type="line"/>
    </contour>
    <contour>
      <point x="324" y="530" type="line"/>
      <point x="304" y="391" type="line"/>
      <point x="381" y="391" type="line"/>
      <point x="368" y="297" type="line"/>
      <point x="291" y="297" type="line"/>
      <point x="272" y="159" type="line"/>
      <point x="349" y="159" type="line" smooth="yes"/>
      <point x="417" y="159"/>
      <point x="455" y="203"/>
      <point x="463" y="259" type="curve" smooth="yes"/>
      <point x="488" y="443" type="line"/>
      <point x="488" y="492"/>
      <point x="452" y="530"/>
      <point x="401" y="530" type="curve" smooth="yes"/>
    </contour>
  </outline>
</glyph>
<glyph name="Ntilde" format="1">
  <advance width="696"/>
  <unicode hex="00D1"/>
  <outline>
    <contour>
      <point x="576" y="889" type="curve"/>
      <point x="657" y="889" type="line"/>
      <point x="646" y="817"/>
      <point x="583" y="746"/>
      <point x="496" y="746" type="curve" smooth="yes"/>
      <point x="432" y="746"/>
      <point x="382" y="786"/>
      <point x="329" y="786" type="curve" smooth="yes"/>
      <point x="304" y="786"/>
      <point x="284" y="769"/>
      <point x="273" y="746" type="curve"/>
      <point x="193" y="746" type="line"/>
      <point x="204" y="818"/>
      <point x="268" y="889"/>
      <point x="353" y="889" type="curve" smooth="yes"/>
      <point x="417" y="889"/>
      <point x="466" y="849"/>
      <point x="520" y="849" type="curve" smooth="yes"/>
      <point x="545" y="849"/>
      <point x="565" y="866"/>
    </contour>
    <contour>
      <point x="598" y="0" type="line"/>
      <point x="418" y="0" type="line"/>
      <point x="282" y="246" type="line" smooth="yes"/>
      <point x="279" y="250"/>
      <point x="271" y="265"/>
      <point x="265" y="278" type="curve" smooth="yes"/>
      <point x="252" y="304" type="line"/>
      <point x="209" y="0" type="line"/>
      <point x="16" y="0" type="line"/>
      <point x="113" y="686" type="line"/>
      <point x="289" y="686" type="line"/>
      <point x="429" y="431" type="line"/>
      <point x="457" y="375" type="line"/>
      <point x="501" y="686" type="line"/>
      <point x="695" y="686" type="line"/>
    </contour>
  </outline>
</glyph>
<glyph name="Ograve" format="1">
  <advance width="719"/>
  <unicode hex="00D2"/>
  <outline>
    <contour>
      <point x="475" y="750" type="line"/>
      <point x="357" y="750" type="line"/>
      <point x="251" y="892" type="line"/>
      <point x="254" y="895" type="line"/>
      <point x="405" y="895" type="line"/>
    </contour>
    <contour>
      <point x="388" y="694" type="curve" smooth="yes"/>
      <point x="444" y="694" type="line" smooth="yes"/>
      <point x="596" y="694"/>
      <point x="705" y="582"/>
      <point x="705" y="436" type="curve" smooth="yes"/>
      <point x="705" y="402"/>
      <point x="703" y="408"/>
      <point x="687" y="290" type="curve" smooth="yes"/>
      <point x="663" y="124"/>
      <point x="532" y="-10"/>
      <point x="345" y="-10" type="curve" smooth="yes"/>
      <point x="289" y="-10" type="line" smooth="yes"/>
      <point x="137" y="-10"/>
      <point x="28" y="102"/>
      <point x="28" y="248" type="curve" smooth="yes"/>
      <point x="28" y="277"/>
      <point x="29" y="276"/>
      <point x="46" y="394" type="curve" smooth="yes"/>
      <point x="69" y="560"/>
      <point x="202" y="694"/>
    </contour>
    <contour>
      <point x="397" y="540" type="curve" smooth="yes"/>
      <point x="392" y="540" type="line" smooth="yes"/>
      <point x="324" y="540"/>
      <point x="286" y="496"/>
      <point x="278" y="440" type="curve" smooth="yes"/>
      <point x="251" y="247" type="line" smooth="yes"/>
      <point x="250" y="244"/>
      <point x="250" y="242"/>
      <point x="250" y="240" type="curve" smooth="yes"/>
      <point x="250" y="233" type="line" smooth="yes"/>
      <point x="250" y="184"/>
      <point x="286" y="147"/>
      <point x="337" y="147" type="curve" smooth="yes"/>
      <point x="342" y="147" type="line" smooth="yes"/>
      <point x="410" y="147"/>
      <point x="448" y="191"/>
      <point x="456" y="247" type="curve" smooth="yes"/>
      <point x="483" y="440" type="line" smooth="yes"/>
      <point x="484" y="443"/>
      <point x="484" y="448"/>
      <point x="484" y="454" type="curve" smooth="yes"/>
      <point x="484" y="502"/>
      <point x="448" y="540"/>
    </contour>
  </outline>
</glyph>
<glyph name="Otilde" format="1">
  <advance width="719"/>
  <unicode hex="00D5"/>
  <outline>
    <contour>
      <point x="593" y="888" type="curve"/>
      <point x="674" y="888" type="line"/>
      <point x="663" y="816"/>
      <point x="600" y="745"/>
      <point x="513" y="745" type="curve" smooth="yes"/>
      <point x="449" y="745"/>
      <point x="399" y="785"/>
      <point x="346" y="785" type="curve" smooth="yes"/>
      <point x="321" y="785"/>
      <point x="301" y="768"/>
      <point x="290" y="745" type="curve"/>
      <point x="210" y="745" type="line"/>
      <point x="221" y="817"/>
      <point x="285" y="888"/>
      <point x="370" y="888" type="curve" smooth="yes"/>
      <point x="434" y="888"/>
      <point x="483" y="848"/>
      <point x="537" y="848" type="curve" smooth="yes"/>
      <point x="562" y="848"/>
      <point x="582" y="865"/>
    </contour>
    <contour>
      <point x="388" y="694" type="curve" smooth="yes"/>
      <point x="444" y="694" type="line" smooth="yes"/>
      <point x="596" y="694"/>
      <point x="705" y="582"/>
      <point x="705" y="436" type="curve" smooth="yes"/>
      <point x="705" y="402"/>
      <point x="703" y="408"/>
      <point x="687" y="290" type="curve" smooth="yes"/>
      <point x="663" y="124"/>
      <point x="532" y="-10"/>
      <point x="345" y="-10" type="curve" smooth="yes"/>
      <point x="289" y="-10" type="line" smooth="yes"/>
      <point x="137" y="-10"/>
      <point x="28" y="102"/>
      <point x="28" y="248" type="curve" smooth="yes"/>
      <point x="28" y="277"/>
      <point x="29" y="276"/>
      <point x="46" y="394" type="curve" smooth="yes"/>
      <point x="69" y="560"/>
      <point x="202" y="694"/>
    </contour>
    <contour>
      <point x="397" y="540" type="curve" smooth="yes"/>
      <point x="392" y="540" type="line" smooth="yes"/>
      <point x="324" y="540"/>
      <point x="286" y="496"/>
      <point x="278" y="440" type="curve" smooth="yes"/>
      <point x="251" y="247" type="line" smooth="yes"/>
      <point x="250" y="244"/>
      <point x="250" y="242"/>
      <point x="250" y="240" type="curve" smooth="yes"/>
      <point x="250" y="233" type="line" smooth="yes"/>
      <point x="250" y="184"/>
      <point x="286" y="147"/>
      <point x="337" y="147" type="curve" smooth="yes"/>
      <point x="342" y="147" type="line" smooth="yes"/>
      <point x="410" y="147"/>
      <point x="448" y="191"/>
      <point x="456" y="247" type="curve" smooth="yes"/>
      <point x="483" y="440" type="line" smooth="yes"/>
      <point x="484" y="443"/>
      <point x="484" y="448"/>
      <point x="484" y="454" type="curve" smooth="yes"/>
      <point x="484" y="502"/>
      <point x="448" y="540"/>
    </contour>
  </outline>
</glyph>
<glyph name="multiply" format="1">
  <advance width="615"/>
  <unicode hex="00D7"/>
  <outline>
    <contour>
      <point x="547" y="392" type="line"/>
      <point x="393" y="256" type="line"/>
      <point x="508" y="120" type="line"/>
      <point x="406" y="30" type="line"/>
      <point x="289" y="165" type="line"/>
      <point x="134" y="30" type="line"/>
      <point x="56" y="120" type="line"/>
      <point x="211" y="256" type="line"/>
      <point x="95" y="392" type="line"/>
      <point x="197" y="482" type="line"/>
      <point x="314" y="347" type="line"/>
      <point x="469" y="482" type="line"/>
    </contour>
  </outline>
</glyph>
<glyph name="Oslash" format="1">
  <advance width="719"/>
  <unicode hex="00D8"/>
  <outline>
    <contour>
      <point x="726" y="754" type="line"/>
      <point x="628" y="623" type="line"/>
      <point x="676" y="576"/>
      <point x="705" y="512"/>
      <point x="705" y="436" type="curve" smooth="yes"/>
      <point x="705" y="402"/>
      <point x="703" y="408"/>
      <point x="687" y="290" type="curve" smooth="yes"/>
      <point x="663" y="124"/>
      <point x="532" y="-10"/>
      <point x="345" y="-10" type="curve" smooth="yes"/>
      <point x="289" y="-10" type="line" smooth="yes"/>
      <point x="246" y="-10"/>
      <point x="206" y="0"/>
      <point x="171" y="15" type="curve"/>
      <point x="111" y="-65" type="line"/>
      <point x="4" y="-65" type="line"/>
      <point x="101" y="64" type="line"/>
      <point x="54" y="111"/>
      <point x="28" y="175"/>
      <point x="28" y="248" type="curve" smooth="yes"/>
      <point x="28" y="277"/>
      <point x="29" y="276"/>
      <point x="46" y="394" type="curve" smooth="yes"/>
      <point x="69" y="560"/>
      <point x="202" y="694"/>
      <point x="388" y="694" type="curve" smooth="yes"/>
      <point x="444" y="694" type="line" smooth="yes"/>
      <point x="485" y="694"/>
      <point x="521" y="686"/>
      <point x="556" y="671" type="curve"/>
      <point x="618" y="754" type="line"/>
    </contour>
    <contour>
      <point x="397" y="540" type="curve" smooth="yes"/>
      <point x="392" y="540" type="line" smooth="yes"/>
      <point x="324" y="540"/>
      <point x="286" y="496"/>
      <point x="278" y="440" type="curve" smooth="yes"/>
      <point x="254" y="268" type="line"/>
      <point x="446" y="525" type="line"/>
      <point x="431" y="535"/>
      <point x="414" y="540"/>
    </contour>
    <contour>
      <point x="481" y="428" type="line"/>
      <point x="283" y="164" type="line"/>
      <point x="298" y="153"/>
      <point x="316" y="147"/>
      <point x="337" y="147" type="curve" smooth="yes"/>
      <point x="342" y="147" type="line" smooth="yes"/>
      <point x="410" y="147"/>
      <point x="448" y="191"/>
      <point x="456" y="247" type="curve" smooth="yes"/>
    </contour>
  </outline>
</glyph>
<glyph name="Yacute" format="1">
  <advance width="644"/>
  <unicode hex="00DD"/>
  <outline>
    <contour>
      <point x="599" y="892" type="line"/>
      <point x="453" y="750" type="line"/>
      <point x="335" y="750" type="line"/>
      <point x="447" y="895" type="line"/>
      <point x="598" y="895" type="line"/>
    </contour>
    <contour>
      <point x="421" y="262" type="line"/>
      <point x="384" y="0" type="line"/>
      <point x="175" y="0" type="line"/>
      <point x="212" y="262" type="line"/>
      <point x="44" y="686" type="line"/>
      <point x="280" y="686" type="line"/>
      <point x="351" y="461" type="line"/>
      <point x="356" y="461" type="line"/>
      <point x="493" y="686" type="line"/>
      <point x="708" y="686" type="line"/>
    </contour>
  </outline>
</glyph>
<glyph name="Thorn" format="1">
  <advance width="646"/>
  <unicode hex="00DE"/>
  <outline>
    <contour>
      <point x="307" y="583" type="line"/>
      <point x="463" y="583" type="line" smooth="yes"/>
      <point x="570" y="583"/>
      <point x="646" y="503"/>
      <point x="646" y="402" type="curve" smooth="yes"/>
      <point x="646" y="263"/>
      <point x="542" y="146"/>
      <point x="402" y="146" type="curve" smooth="yes"/>
      <point x="246" y="146" type="line"/>
      <point x="225" y="0" type="line"/>
      <point x="16" y="0" type="line"/>
      <point x="113" y="686" type="line"/>
      <point x="322" y="686" type="line"/>
    </contour>
    <contour>
      <point x="285" y="427" type="line"/>
      <point x="267" y="294" type="line"/>
      <point x="370" y="294" type="line" smooth="yes"/>
      <point x="397" y="294"/>
      <point x="423" y="316"/>
      <point x="427" y="344" type="curve" smooth="yes"/>
      <point x="431" y="379"/>
      <point x="431" y="381"/>
      <point x="431" y="384" type="curve" smooth="yes"/>
      <point x="431" y="409"/>
      <point x="413" y="427"/>
      <point x="388" y="427" type="curve" smooth="yes"/>
    </contour>
  </outline>
</glyph>
<glyph name="germandbls" format="1">
  <advance width="652"/>
  <unicode hex="00DF"/>
  <outline>
    <contour>
      <point x="410" y="728" type="curve" smooth="yes"/>
      <point x="518" y="728"/>
      <point x="638" y="686"/>
      <point x="638" y="569" type="curve" smooth="yes"/>
      <point x="638" y="496"/>
      <point x="593" y="422"/>
      <point x="521" y="395" type="curve"/>
      <point x="521" y="390" type="line"/>
      <point x="581" y="367"/>
      <point x="618" y="309"/>
      <point x="618" y="242" type="curve" smooth="yes"/>
      <point x="618" y="98"/>
      <point x="507" y="0"/>
      <point x="343" y="0" type="curve" smooth="yes"/>
      <point x="280" y="0" type="line"/>
      <point x="301" y="148" type="line"/>
      <point x="329" y="148" type="line" smooth="yes"/>
      <point x="377" y="148"/>
      <point x="423" y="195"/>
      <point x="423" y="247" type="curve" smooth="yes"/>
      <point x="423" y="290"/>
      <point x="394" y="321"/>
      <point x="353" y="321" type="curve" smooth="yes"/>
      <point x="325" y="321" type="line"/>
      <point x="342" y="443" type="line"/>
      <point x="369" y="443" type="line" smooth="yes"/>
      <point x="406" y="443"/>
      <point x="444" y="477"/>
      <point x="444" y="521" type="curve" smooth="yes"/>
      <point x="444" y="554"/>
      <point x="421" y="579"/>
      <point x="389" y="579" type="curve" smooth="yes"/>
      <point x="353" y="579"/>
      <point x="321" y="550"/>
      <point x="316" y="511" type="curve" smooth="yes"/>
      <point x="235" y="-66" type="line"/>
      <point x="37" y="-66" type="line"/>
      <point x="98" y="369" type="line"/>
      <point x="36" y="369" type="line"/>
      <point x="56" y="511" type="line"/>
      <point x="118" y="511" type="line"/>
      <point x="145" y="663"/>
      <point x="283" y="728"/>
    </contour>
  </outline>
</glyph>
<glyph name="ae" format="1">
  <advance width="924"/>
  <unicode hex="00E6"/>
  <outline>
    <contour>
      <point x="656" y="521" type="curve" smooth="yes"/>
      <point x="681" y="521" type="line" smooth="yes"/>
      <point x="824" y="521"/>
      <point x="898" y="443"/>
      <point x="898" y="330" type="curve"/>
      <point x="896" y="303" type="line" smooth="yes"/>
      <point x="895" y="288"/>
      <point x="892" y="266"/>
      <point x="887" y="229" type="curve"/>
      <point x="554" y="229" type="line"/>
      <point x="547" y="181" type="line" smooth="yes"/>
      <point x="546" y="178"/>
      <point x="546" y="175"/>
      <point x="546" y="170" type="curve" smooth="yes"/>
      <point x="546" y="131"/>
      <point x="575" y="111"/>
      <point x="614" y="111" type="curve" smooth="yes"/>
      <point x="662" y="111"/>
      <point x="691" y="143"/>
      <point x="698" y="192" type="curve"/>
      <point x="881" y="192" type="line"/>
      <point x="865" y="79"/>
      <point x="760" y="-10"/>
      <point x="603" y="-10" type="curve" smooth="yes"/>
      <point x="588" y="-10" type="line" smooth="yes"/>
      <point x="507" y="-10"/>
      <point x="439" y="14"/>
      <point x="395" y="58" type="curve"/>
      <point x="344" y="18"/>
      <point x="263" y="-10"/>
      <point x="175" y="-10" type="curve" smooth="yes"/>
      <point x="99" y="-10"/>
      <point x="1" y="5"/>
      <point x="1" y="114" type="curve" smooth="yes"/>
      <point x="1" y="281"/>
      <point x="146" y="316"/>
      <point x="362" y="316" type="curve"/>
      <point x="364" y="333" type="line" smooth="yes"/>
      <point x="365" y="342"/>
      <point x="367" y="351"/>
      <point x="367" y="356" type="curve" smooth="yes"/>
      <point x="367" y="388"/>
      <point x="342" y="405"/>
      <point x="310" y="405" type="curve" smooth="yes"/>
      <point x="281" y="405"/>
      <point x="242" y="386"/>
      <point x="239" y="358" type="curve" smooth="yes"/>
      <point x="238" y="354" type="line"/>
      <point x="48" y="354" type="line"/>
      <point x="48" y="445"/>
      <point x="156" y="521"/>
      <point x="311" y="521" type="curve" smooth="yes"/>
      <point x="344" y="521" type="line" smooth="yes"/>
      <point x="413" y="521"/>
      <point x="464" y="508"/>
      <point x="500" y="487" type="curve"/>
      <point x="547" y="510"/>
      <point x="599" y="521"/>
    </contour>
    <contour>
      <point x="647" y="400" type="curve" smooth="yes"/>
      <point x="605" y="400"/>
      <point x="573" y="369"/>
      <point x="568" y="330" type="curve" smooth="yes"/>
      <point x="566" y="316" type="line"/>
      <point x="704" y="316" type="line"/>
      <point x="704" y="325"/>
      <point x="706" y="333"/>
      <point x="706" y="339" type="curve" smooth="yes"/>
      <point x="706" y="374"/>
      <point x="682" y="400"/>
    </contour>
    <contour>
      <point x="343" y="181" type="curve" smooth="yes"/>
      <point x="349" y="225" type="line"/>
      <point x="249" y="225"/>
      <point x="211" y="192"/>
      <point x="211" y="149" type="curve" smooth="yes"/>
      <point x="211" y="118"/>
      <point x="238" y="111"/>
      <point x="265" y="111" type="curve" smooth="yes"/>
      <point x="300" y="111"/>
      <point x="337" y="138"/>
    </contour>
  </outline>
</glyph>
<glyph name="ccedilla" format="1">
  <advance width="568"/>
  <unicode hex="00E7"/>
  <outline>
    <contour>
      <point x="326" y="521" type="curve" smooth="yes"/>
      <point x="513" y="521"/>
      <point x="549" y="411"/>
      <point x="549" y="340" type="curve" smooth="yes"/>
      <point x="549" y="328"/>
      <point x="548" y="316"/>
      <point x="546" y="304" type="curve"/>
      <point x="378" y="304" type="line"/>
      <point x="378" y="318"/>
      <point x="381" y="333"/>
      <point x="381" y="339" type="curve" smooth="yes"/>
      <point x="381" y="374"/>
      <point x="357" y="400"/>
      <point x="322" y="400" type="curve" smooth="yes"/>
      <point x="275" y="400"/>
      <point x="248" y="369"/>
      <point x="243" y="330" type="curve" smooth="yes"/>
      <point x="230" y="260"/>
      <point x="221" y="187"/>
      <point x="221" y="171" type="curve" smooth="yes"/>
      <point x="221" y="136"/>
      <point x="245" y="111"/>
      <point x="288" y="111" type="curve" smooth="yes"/>
      <point x="343" y="111"/>
      <point x="366" y="150"/>
      <point x="371" y="181" type="curve" smooth="yes"/>
      <point x="375" y="207" type="line"/>
      <point x="533" y="207" type="line"/>
      <point x="512" y="68"/>
      <point x="409" y="-10"/>
      <point x="264" y="-10" type="curve" smooth="yes"/>
      <point x="94" y="-10"/>
      <point x="16" y="89"/>
      <point x="16" y="198" type="curve" smooth="yes"/>
      <point x="16" y="374"/>
      <point x="123" y="521"/>
    </contour>
    <contour>
      <point x="228" y="-17" type="line"/>
      <point x="249" y="-17" type="line" smooth="yes"/>
      <point x="303" y="-17"/>
      <point x="359" y="-32"/>
      <point x="359" y="-92" type="curve" smooth="yes"/>
      <point x="359" y="-100" type="line" smooth="yes"/>
      <point x="359" y="-180"/>
      <point x="270" y="-197"/>
      <point x="228" y="-197" type="curve" smooth="yes"/>
      <point x="181" y="-197"/>
      <point x="134" y="-185"/>
      <point x="107" y="-161" type="curve"/>
      <point x="147" y="-107" type="line"/>
      <point x="157" y="-120"/>
      <point x="183" y="-139"/>
      <point x="227" y="-139" type="curve" smooth="yes"/>
      <point x="254" y="-139"/>
      <point x="272" y="-129"/>
      <point x="272" y="-100" type="curve" smooth="yes"/>
      <point x="272" y="-85"/>
      <point x="263" y="-76"/>
      <point x="238" y="-76" type="curve" smooth="yes"/>
      <point x="220" y="-76" type="line"/>
    </contour>
  </outline>
</glyph>
<glyph name="igrave" format="1">
  <advance width="296"/>
  <unicode hex="00EC"/>
  <outline>
    <contour>
      <point x="272" y="575" type="line"/>
      <point x="154" y="575" type="line"/>
      <point x="48" y="717" type="line"/>
      <point x="51" y="720" type="line"/>
      <point x="202" y="720" type="line"/>
    </contour>
    <contour>
      <point x="206" y="0" type="line"/>
      <point x="9" y="0" type="line"/>
      <point x="80" y="511" type="line"/>
      <point x="277" y="511" type="line"/>
    </contour>
  </outline>
</glyph>
<glyph name="iacute" format="1">
  <advance width="296"/>
  <unicode hex="00ED"/>
  <outline>
    <contour>
      <point x="356" y="717" type="line"/>
      <point x="210" y="575" type="line"/>
      <point x="92" y="575" type="line"/>
      <point x="204" y="720" type="line"/>
      <point x="355" y="720" type="line"/>
    </contour>
    <contour>
      <point x="206" y="0" type="line"/>
      <point x="9" y="0" type="line"/>
      <point x="80" y="511" type="line"/>
      <point x="277" y="511" type="line"/>
    </contour>
  </outline>
</glyph>
<glyph name="icircumflex" format="1">
  <advance width="296"/>
  <unicode hex="00EE"/>
  <outline>
    <contour>
      <point x="388" y="575" type="line"/>
      <point x="258" y="575" type="line"/>
      <point x="195" y="652" type="line"/>
      <point x="110" y="575" type="line"/>
      <point x="-18" y="575" type="line"/>
      <point x="142" y="720" type="line"/>
      <point x="270" y="720" type="line"/>
    </contour>
    <contour>
      <point x="206" y="0" type="line"/>
      <point x="9" y="0" type="line"/>
      <point x="80" y="511" type="line"/>
      <point x="277" y="511" type="line"/>
    </contour>
  </outline>
</glyph>
<glyph name="idieresis" format="1">
  <advance width="296"/>
  <unicode hex="00EF"/>
  <outline>
    <contour>
      <point x="153" y="573" type="line"/>
      <point x="1" y="573" type="line"/>
      <point x="22" y="720" type="line"/>
      <point x="174" y="720" type="line"/>
    </contour>
    <contour>
      <point x="373" y="573" type="line"/>
      <point x="221" y="573" type="line"/>
      <point x="242" y="720" type="line"/>
      <point x="394" y="720" type="line"/>
    </contour>
    <contour>
      <point x="206" y="0" type="line"/>
      <point x="9" y="0" type="line"/>
      <point x="80" y="511" type="line"/>
      <point x="277" y="511" type="line"/>
    </contour>
  </outline>
</glyph>
<glyph name="eth" format="1">
  <advance width="613"/>
  <unicode hex="00F0"/>
  <outline>
    <contour>
      <point x="150" y="689" type="line"/>
      <point x="270" y="739" type="line"/>
      <point x="301" y="728"/>
      <point x="330" y="714"/>
      <point x="358" y="695" type="curve"/>
      <point x="434" y="728" type="line"/>
      <point x="481" y="677" type="line"/>
      <point x="418" y="649" type="line"/>
      <point x="517" y="561"/>
      <point x="586" y="437"/>
      <point x="586" y="311" type="curve" smooth="yes"/>
      <point x="586" y="296"/>
      <point x="585" y="281"/>
      <point x="583" y="266" type="curve" smooth="yes"/>
      <point x="580" y="245" type="line" smooth="yes"/>
      <point x="559" y="93"/>
      <point x="430" y="-10"/>
      <point x="279" y="-10" type="curve" smooth="yes"/>
      <point x="247" y="-10" type="line" smooth="yes"/>
      <point x="107" y="-10"/>
      <point x="15" y="76"/>
      <point x="15" y="207" type="curve" smooth="yes"/>
      <point x="15" y="219"/>
      <point x="16" y="232"/>
      <point x="18" y="245" type="curve" smooth="yes"/>
      <point x="21" y="266" type="line" smooth="yes"/>
      <point x="40" y="404"/>
      <point x="159" y="494"/>
      <point x="292" y="510" type="curve"/>
      <point x="291" y="525"/>
      <point x="282" y="552"/>
      <point x="265" y="580" type="curve"/>
      <point x="194" y="549" type="line"/>
      <point x="143" y="600" type="line"/>
      <point x="223" y="635" type="line"/>
      <point x="202" y="656"/>
      <point x="177" y="674"/>
      <point x="148" y="685" type="curve"/>
    </contour>
    <contour>
      <point x="320" y="400" type="curve" smooth="yes"/>
      <point x="279" y="400"/>
      <point x="247" y="369"/>
      <point x="242" y="330" type="curve" smooth="yes"/>
      <point x="221" y="181" type="line" smooth="yes"/>
      <point x="220" y="178"/>
      <point x="220" y="175"/>
      <point x="220" y="170" type="curve" smooth="yes"/>
      <point x="220" y="135"/>
      <point x="245" y="111"/>
      <point x="280" y="111" type="curve" smooth="yes"/>
      <point x="316" y="111"/>
      <point x="352" y="142"/>
      <point x="359" y="181" type="curve" smooth="yes"/>
      <point x="380" y="330" type="line"/>
      <point x="380" y="339" type="line" smooth="yes"/>
      <point x="380" y="374"/>
      <point x="355" y="400"/>
    </contour>
  </outline>
</glyph>
<glyph name="ntilde" format="1">
  <advance width="597"/>
  <unicode hex="00F1"/>
  <outline>
    <contour>
      <point x="494" y="720" type="curve"/>
      <point x="575" y="720" type="line"/>
      <point x="564" y="648"/>
      <point x="501" y="577"/>
      <point x="414" y="577" type="curve" smooth="yes"/>
      <point x="350" y="577"/>
      <point x="300" y="617"/>
      <point x="247" y="617" type="curve" smooth="yes"/>
      <point x="222" y="617"/>
      <point x="202" y="600"/>
      <point x="191" y="577" type="curve"/>
      <point x="111" y="577" type="line"/>
      <point x="122" y="649"/>
      <point x="186" y="720"/>
      <point x="271" y="720" type="curve" smooth="yes"/>
      <point x="335" y="720"/>
      <point x="384" y="680"/>
      <point x="438" y="680" type="curve" smooth="yes"/>
      <point x="463" y="680"/>
      <point x="483" y="697"/>
    </contour>
    <contour>
      <point x="419" y="521" type="curve" smooth="yes"/>
      <point x="515" y="521"/>
      <point x="563" y="465"/>
      <point x="563" y="392" type="curve" smooth="yes"/>
      <point x="563" y="380"/>
      <point x="556" y="324"/>
      <point x="546" y="255" type="curve" smooth="yes"/>
      <point x="536" y="185" type="line" smooth="yes"/>
      <point x="528" y="130"/>
      <point x="521" y="68"/>
      <point x="510" y="0" type="curve"/>
      <point x="312" y="0" type="line"/>
      <point x="332" y="151"/>
      <point x="358" y="306"/>
      <point x="358" y="330" type="curve" smooth="yes"/>
      <point x="358" y="358"/>
      <point x="343" y="380"/>
      <point x="312" y="380" type="curve" smooth="yes"/>
      <point x="277" y="380"/>
      <point x="256" y="353"/>
      <point x="251" y="320" type="curve" smooth="yes"/>
      <point x="206" y="0" type="line"/>
      <point x="8" y="0" type="line"/>
      <point x="80" y="511" type="line"/>
      <point x="229" y="511" type="line"/>
      <point x="238" y="437" type="line"/>
      <point x="254" y="458"/>
      <point x="303" y="521"/>
    </contour>
  </outline>
</glyph>
<glyph name="otilde" format="1">
  <advance width="613"/>
  <unicode hex="00F5"/>
  <outline>
    <contour>
      <point x="509" y="720" type="curve"/>
      <point x="590" y="720" type="line"/>
      <point x="579" y="648"/>
      <point x="516" y="577"/>
      <point x="429" y="577" type="curve" smooth="yes"/>
      <point x="365" y="577"/>
      <point x="315" y="617"/>
      <point x="262" y="617" type="curve" smooth="yes"/>
      <point x="237" y="617"/>
      <point x="217" y="600"/>
      <point x="206" y="577" type="curve"/>
      <point x="126" y="577" type="line"/>
      <point x="137" y="649"/>
      <point x="201" y="720"/>
      <point x="286" y="720" type="curve" smooth="yes"/>
      <point x="350" y="720"/>
      <point x="399" y="680"/>
      <point x="453" y="680" type="curve" smooth="yes"/>
      <point x="478" y="680"/>
      <point x="498" y="697"/>
    </contour>
    <contour>
      <point x="323" y="521" type="curve" smooth="yes"/>
      <point x="340" y="521" type="line" smooth="yes"/>
      <point x="500" y="521"/>
      <point x="587" y="435"/>
      <point x="587" y="305" type="curve" smooth="yes"/>
      <point x="587" y="123"/>
      <point x="461" y="-10"/>
      <point x="280" y="-10" type="curve" smooth="yes"/>
      <point x="265" y="-10" type="line" smooth="yes"/>
      <point x="102" y="-10"/>
      <point x="16" y="77"/>
      <point x="16" y="205" type="curve" smooth="yes"/>
      <point x="16" y="354"/>
      <point x="111" y="521"/>
    </contour>
    <contour>
      <point x="322" y="400" type="curve" smooth="yes"/>
      <point x="281" y="400"/>
      <point x="249" y="369"/>
      <point x="243" y="330" type="curve" smooth="yes"/>
      <point x="231" y="256"/>
      <point x="221" y="181"/>
      <point x="221" y="171" type="curve" smooth="yes"/>
      <point x="221" y="136"/>
      <point x="246" y="111"/>
      <point x="281" y="111" type="curve" smooth="yes"/>
      <point x="324" y="111"/>
      <point x="354" y="142"/>
      <point x="360" y="181" type="curve" smooth="yes"/>
      <point x="371" y="254" type="line"/>
      <point x="382" y="339" type="line" smooth="yes"/>
      <point x="382" y="370"/>
      <point x="359" y="400"/>
    </contour>
  </outline>
</glyph>
<glyph name="divide" format="1">
  <advance width="615"/>
  <unicode hex="00F7"/>
  <outline>
    <contour>
      <point x="383" y="369" type="line"/>
      <point x="256" y="369" type="line"/>
      <point x="274" y="496" type="line"/>
      <point x="401" y="496" type="line"/>
    </contour>
    <contour>
      <point x="550" y="193" type="line"/>
      <point x="38" y="193" type="line"/>
      <point x="56" y="321" type="line"/>
      <point x="568" y="321" type="line"/>
    </contour>
    <contour>
      <point x="334" y="17" type="line"/>
      <point x="207" y="17" type="line"/>
      <point x="225" y="144" type="line"/>
      <point x="352" y="144" type="line"/>
    </contour>
  </outline>
</glyph>
<glyph name="oslash" format="1">
  <advance width="613"/>
  <unicode hex="00F8"/>
  <outline>
    <contour>
      <point x="590" y="569" type="line"/>
      <point x="513" y="470" type="line"/>
      <point x="562" y="431"/>
      <point x="587" y="376"/>
      <point x="587" y="305" type="curve" smooth="yes"/>
      <point x="587" y="123"/>
      <point x="461" y="-10"/>
      <point x="280" y="-10" type="curve" smooth="yes"/>
      <point x="265" y="-10" type="line" smooth="yes"/>
      <point x="224" y="-10"/>
      <point x="187" y="-4"/>
      <point x="154" y="7" type="curve"/>
      <point x="106" y="-55" type="line"/>
      <point x="14" y="-55" type="line"/>
      <point x="89" y="41" type="line"/>
      <point x="40" y="80"/>
      <point x="16" y="134"/>
      <point x="16" y="205" type="curve" smooth="yes"/>
      <point x="16" y="354"/>
      <point x="111" y="521"/>
      <point x="323" y="521" type="curve" smooth="yes"/>
      <point x="340" y="521" type="line" smooth="yes"/>
      <point x="380" y="521"/>
      <point x="416" y="515"/>
      <point x="448" y="504" type="curve"/>
      <point x="498" y="569" type="line"/>
    </contour>
    <contour>
      <point x="322" y="400" type="curve" smooth="yes"/>
      <point x="281" y="400"/>
      <point x="248" y="369"/>
      <point x="243" y="330" type="curve" smooth="yes"/>
      <point x="227" y="219" type="line"/>
      <point x="358" y="388" type="line"/>
      <point x="348" y="396"/>
      <point x="336" y="400"/>
    </contour>
    <contour>
      <point x="375" y="292" type="curve"/>
      <point x="244" y="123" type="line"/>
      <point x="254" y="115"/>
      <point x="266" y="111"/>
      <point x="281" y="111" type="curve" smooth="yes"/>
      <point x="370" y="111"/>
      <point x="361" y="210"/>
    </contour>
  </outline>
</glyph>
<glyph name="ugrave" format="1">
  <advance width="627"/>
  <unicode hex="00F9"/>
  <outline>
    <contour>
      <point x="393" y="575" type="line"/>
      <point x="275" y="575" type="line"/>
      <point x="169" y="717" type="line"/>
      <point x="172" y="720" type="line"/>
      <point x="323" y="720" type="line"/>
    </contour>
    <contour>
      <point x="381" y="511" type="line"/>
      <point x="579" y="511" type="line"/>
      <point x="553" y="336"/>
      <point x="527" y="158"/>
      <point x="527" y="140" type="curve" smooth="yes"/>
      <point x="527" y="120"/>
      <point x="541" y="111"/>
      <point x="554" y="111" type="curve" smooth="yes"/>
      <point x="566" y="111"/>
      <point x="576" y="114"/>
      <point x="590" y="120" type="curve"/>
      <point x="575" y="13" type="line"/>
      <point x="554" y="0"/>
      <point x="521" y="-10"/>
      <point x="471" y="-10" type="curve" smooth="yes"/>
      <point x="382" y="-10"/>
      <point x="346" y="20"/>
      <point x="335" y="71" type="curve"/>
      <point x="317" y="48"/>
      <point x="264" y="-10"/>
      <point x="168" y="-10" type="curve" smooth="yes"/>
      <point x="72" y="-10"/>
      <point x="24" y="46"/>
      <point x="24" y="119" type="curve" smooth="yes"/>
      <point x="24" y="156"/>
      <point x="49" y="338"/>
      <point x="77" y="511" type="curve"/>
      <point x="275" y="511" type="line"/>
      <point x="252" y="352" type="line" smooth="yes"/>
      <point x="239" y="272"/>
      <point x="229" y="188"/>
      <point x="229" y="181" type="curve" smooth="yes"/>
      <point x="229" y="153"/>
      <point x="244" y="131"/>
      <point x="275" y="131" type="curve" smooth="yes"/>
      <point x="310" y="131"/>
      <point x="331" y="158"/>
      <point x="336" y="191" type="curve" smooth="yes"/>
    </contour>
  </outline>
</glyph>
<glyph name="thorn" format="1">
  <advance width="599"/>
  <unicode hex="00FE"/>
  <outline>
    <contour>
      <point x="307" y="720" type="line"/>
      <point x="270" y="458" type="line"/>
      <point x="297" y="493"/>
      <point x="340" y="521"/>
      <point x="411" y="521" type="curve" smooth="yes"/>
      <point x="504" y="521"/>
      <point x="572" y="457"/>
      <point x="572" y="326" type="curve" smooth="yes"/>
      <point x="572" y="306"/>
      <point x="570" y="284"/>
      <point x="567" y="261" type="curve" smooth="yes"/>
      <point x="566" y="250" type="line"/>
      <point x="542" y="75"/>
      <point x="442" y="-10"/>
      <point x="336" y="-10" type="curve" smooth="yes"/>
      <point x="265" y="-10"/>
      <point x="229" y="18"/>
      <point x="213" y="53" type="curve"/>
      <point x="180" y="-181" type="line"/>
      <point x="-17" y="-181" type="line"/>
      <point x="109" y="720" type="line"/>
    </contour>
    <contour>
      <point x="324" y="400" type="curve" smooth="yes"/>
      <point x="289" y="400"/>
      <point x="257" y="369"/>
      <point x="252" y="330" type="curve" smooth="yes"/>
      <point x="232" y="185" type="line" smooth="yes"/>
      <point x="231" y="182"/>
      <point x="231" y="178"/>
      <point x="231" y="173" type="curve" smooth="yes"/>
      <point x="231" y="140"/>
      <point x="253" y="115"/>
      <point x="284" y="115" type="curve" smooth="yes"/>
      <point x="316" y="115"/>
      <point x="351" y="146"/>
      <point x="356" y="185" type="curve" smooth="yes"/>
      <point x="377" y="340" type="line"/>
      <point x="377" y="375"/>
      <point x="355" y="400"/>
    </contour>
  </outline>
</glyph>
<glyph name="Abreve" format="1">
  <advance width="709"/>
  <unicode hex="0102"/>
  <outline>
    <contour>
      <point x="529" y="912" type="curve"/>
      <point x="624" y="912" type="line"/>
      <point x="624" y="856"/>
      <point x="538" y="788"/>
      <point x="431" y="788" type="curve" smooth="yes"/>
      <point x="324" y="788"/>
      <point x="239" y="856"/>
      <point x="239" y="912" type="curve"/>
      <point x="335" y="912" type="line"/>
      <point x="335" y="901"/>
      <point x="378" y="874"/>
      <point x="431" y="874" type="curve" smooth="yes"/>
      <point x="485" y="874"/>
      <point x="529" y="901"/>
    </contour>
    <contour>
      <point x="674" y="0" type="line"/>
      <point x="456" y="0" type="line"/>
      <point x="432" y="122" type="line"/>
      <point x="214" y="122" type="line"/>
      <point x="157" y="0" type="line"/>
      <point x="-44" y="0" type="line"/>
      <point x="281" y="686" type="line"/>
      <point x="542" y="686" type="line"/>
    </contour>
    <contour>
      <point x="371" y="475" type="line"/>
      <point x="283" y="267" type="line"/>
      <point x="405" y="267" type="line"/>
      <point x="376" y="475" type="line"/>
    </contour>
  </outline>
</glyph>
<glyph name="abreve" format="1">
  <advance width="628"/>
  <unicode hex="0103"/>
  <outline>
    <contour>
      <point x="471" y="737" type="curve"/>
      <point x="566" y="737" type="line"/>
      <point x="566" y="681"/>
      <point x="480" y="613"/>
      <point x="373" y="613" type="curve" smooth="yes"/>
      <point x="266" y="613"/>
      <point x="181" y="681"/>
      <point x="181" y="737" type="curve"/>
      <point x="277" y="737" type="line"/>
      <point x="277" y="726"/>
      <point x="320" y="699"/>
      <point x="373" y="699" type="curve" smooth="yes"/>
      <point x="427" y="699"/>
      <point x="471" y="726"/>
    </contour>
    <contour>
      <point x="257" y="521" type="curve" smooth="yes"/>
      <point x="310" y="521"/>
      <point x="364" y="497"/>
      <point x="393" y="450" type="curve"/>
      <point x="398" y="450" type="line"/>
      <point x="432" y="511" type="line"/>
      <point x="581" y="511" type="line"/>
      <point x="553" y="344"/>
      <point x="528" y="169"/>
      <point x="528" y="137" type="curve" smooth="yes"/>
      <point x="528" y="122"/>
      <point x="535" y="110"/>
      <point x="554" y="110" type="curve" smooth="yes"/>
      <point x="567" y="110"/>
      <point x="580" y="116"/>
      <point x="591" y="123" type="curve"/>
      <point x="576" y="13" type="line"/>
      <point x="547" y="-2"/>
      <point x="505" y="-10"/>
      <point x="473" y="-10" type="curve" smooth="yes"/>
      <point x="413" y="-10"/>
      <point x="353" y="0"/>
      <point x="337" y="68" type="curve"/>
      <point x="302" y="24"/>
      <point x="245" y="-10"/>
      <point x="188" y="-10" type="curve" smooth="yes"/>
      <point x="64" y="-10"/>
      <point x="17" y="81"/>
      <point x="17" y="193" type="curve" smooth="yes"/>
      <point x="17" y="337"/>
      <point x="86" y="521"/>
    </contour>
    <contour>
      <point x="306" y="396" type="curve" smooth="yes"/>
      <point x="269" y="396"/>
      <point x="239" y="365"/>
      <point x="234" y="326" type="curve" smooth="yes"/>
      <point x="213" y="178"/>
      <point x="213" y="174"/>
      <point x="213" y="170" type="curve" smooth="yes"/>
      <point x="213" y="135"/>
      <point x="235" y="111"/>
      <point x="266" y="111" type="curve" smooth="yes"/>
      <point x="309" y="111"/>
      <point x="332" y="142"/>
      <point x="338" y="181" type="curve" smooth="yes"/>
      <point x="348" y="253" type="line" smooth="yes"/>
      <point x="353" y="290"/>
      <point x="359" y="329"/>
      <point x="359" y="338" type="curve" smooth="yes"/>
      <point x="359" y="377"/>
      <point x="337" y="396"/>
    </contour>
  </outline>
</glyph>
<glyph name="Aogonek" format="1">
  <advance width="709"/>
  <unicode hex="0104"/>
  <outline>
    <contour>
      <point x="691" y="-76" type="curve"/>
      <point x="698" y="-119" type="line"/>
      <point x="663" y="-135"/>
      <point x="626" y="-143"/>
      <point x="590" y="-143" type="curve" smooth="yes"/>
      <point x="547" y="-143"/>
      <point x="503" y="-128"/>
      <point x="503" y="-83" type="curve" smooth="yes"/>
      <point x="503" y="-44"/>
      <point x="536" y="-19"/>
      <point x="568" y="0" type="curve"/>
      <point x="456" y="0" type="line"/>
      <point x="432" y="122" type="line"/>
      <point x="214" y="122" type="line"/>
      <point x="157" y="0" type="line"/>
      <point x="-44" y="0" type="line"/>
      <point x="281" y="686" type="line"/>
      <point x="542" y="686" type="line"/>
      <point x="674" y="0" type="line"/>
      <point x="638" y="0" type="line"/>
      <point x="615" y="-13"/>
      <point x="582" y="-31"/>
      <point x="582" y="-62" type="curve" smooth="yes"/>
      <point x="582" y="-83"/>
      <point x="603" y="-90"/>
      <point x="622" y="-90" type="curve" smooth="yes"/>
      <point x="645" y="-90"/>
      <point x="668" y="-84"/>
    </contour>
    <contour>
      <point x="405" y="267" type="line"/>
      <point x="376" y="475" type="line"/>
      <point x="371" y="475" type="line"/>
      <point x="283" y="267" type="line"/>
    </contour>
  </outline>
</glyph>
<glyph name="cacute" format="1">
  <advance width="568"/>
  <unicode hex="0107"/>
  <outline>
    <contour>
      <point x="284" y="0" type="move" name="Bottom"/>
    </contour>
    <contour>
      <point x="516" y="717" type="line"/>
      <point x="370" y="575" type="line"/>
      <point x="252" y="575" type="line"/>
      <point x="364" y="720" type="line"/>
      <point x="515" y="720" type="line"/>
    </contour>
    <contour>
      <point x="326" y="521" type="curve" smooth="yes"/>
      <point x="513" y="521"/>
      <point x="549" y="411"/>
      <point x="549" y="340" type="curve" smooth="yes"/>
      <point x="549" y="328"/>
      <point x="548" y="316"/>
      <point x="546" y="304" type="curve"/>
      <point x="378" y="304" type="line"/>
      <point x="378" y="318"/>
      <point x="381" y="333"/>
      <point x="381" y="339" type="curve" smooth="yes"/>
      <point x="381" y="374"/>
      <point x="357" y="400"/>
      <point x="322" y="400" type="curve" smooth="yes"/>
      <point x="275" y="400"/>
      <point x="248" y="369"/>
      <point x="243" y="330" type="curve" smooth="yes"/>
      <point x="230" y="260"/>
      <point x="221" y="187"/>
      <point x="221" y="171" type="curve" smooth="yes"/>
      <point x="221" y="136"/>
      <point x="245" y="111"/>
      <point x="288" y="111" type="curve" smooth="yes"/>
      <point x="343" y="111"/>
      <point x="366" y="150"/>
      <point x="371" y="181" type="curve" smooth="yes"/>
      <point x="375" y="207" type="line"/>
      <point x="533" y="207" type="line"/>
      <point x="512" y="68"/>
      <point x="409" y="-10"/>
      <point x="264" y="-10" type="curve" smooth="yes"/>
      <point x="94" y="-10"/>
      <point x="16" y="89"/>
      <point x="16" y="198" type="curve" smooth="yes"/>
      <point x="16" y="374"/>
      <point x="123" y="521"/>
    </contour>
  </outline>
</glyph>
<glyph name="Ccaron" format="1">
  <advance width="684"/>
  <unicode hex="010C"/>
  <outline>
    <contour>
      <point x="342" y="0" type="move" name="Bottom"/>
    </contour>
    <contour>
      <point x="505" y="750" type="line"/>
      <point x="377" y="750" type="line"/>
      <point x="259" y="895" type="line"/>
      <point x="389" y="895" type="line"/>
      <point x="452" y="818" type="line"/>
      <point x="537" y="895" type="line"/>
      <point x="665" y="895" type="line"/>
    </contour>
    <contour>
      <point x="398" y="696" type="curve" smooth="yes"/>
      <point x="426" y="696" type="line" smooth="yes"/>
      <point x="573" y="696"/>
      <point x="679" y="616"/>
      <point x="679" y="460" type="curve" smooth="yes"/>
      <point x="679" y="441"/>
      <point x="678" y="424"/>
      <point x="675" y="405" type="curve"/>
      <point x="478" y="405" type="line"/>
      <point x="483" y="440" type="line" smooth="yes"/>
      <point x="484" y="443"/>
      <point x="484" y="445"/>
      <point x="484" y="448" type="curve" smooth="yes"/>
      <point x="484" y="457" type="line" smooth="yes"/>
      <point x="484" y="509"/>
      <point x="448" y="540"/>
      <point x="397" y="540" type="curve" smooth="yes"/>
      <point x="392" y="540" type="line" smooth="yes"/>
      <point x="324" y="540"/>
      <point x="286" y="496"/>
      <point x="278" y="440" type="curve" smooth="yes"/>
      <point x="251" y="247" type="line" smooth="yes"/>
      <point x="250" y="245"/>
      <point x="250" y="243"/>
      <point x="250" y="240" type="curve" smooth="yes"/>
      <point x="250" y="233" type="line" smooth="yes"/>
      <point x="250" y="184"/>
      <point x="286" y="147"/>
      <point x="337" y="147" type="curve" smooth="yes"/>
      <point x="351" y="147" type="line" smooth="yes"/>
      <point x="419" y="147"/>
      <point x="455" y="183"/>
      <point x="465" y="247" type="curve" smooth="yes"/>
      <point x="470" y="280" type="line"/>
      <point x="658" y="280" type="line"/>
      <point x="631" y="100"/>
      <point x="515" y="-10"/>
      <point x="335" y="-10" type="curve" smooth="yes"/>
      <point x="307" y="-10" type="line" smooth="yes"/>
      <point x="146" y="-10"/>
      <point x="27" y="81"/>
      <point x="27" y="242" type="curve" smooth="yes"/>
      <point x="27" y="258"/>
      <point x="30" y="279"/>
      <point x="46" y="396" type="curve" smooth="yes"/>
      <point x="70" y="576"/>
      <point x="217" y="696"/>
    </contour>
  </outline>
</glyph>
<glyph name="dcroat" format="1">
  <advance width="639"/>
  <unicode hex="0111"/>
  <outline>
    <contour>
      <point x="593" y="592" type="line"/>
      <point x="571" y="442" type="line" smooth="yes"/>
      <point x="551" y="302"/>
      <point x="530" y="158"/>
      <point x="531" y="146" type="curve" smooth="yes"/>
      <point x="531" y="127"/>
      <point x="533" y="110"/>
      <point x="556" y="110" type="curve" smooth="yes"/>
      <point x="569" y="110"/>
      <point x="582" y="116"/>
      <point x="593" y="123" type="curve"/>
      <point x="578" y="13" type="line"/>
      <point x="549" y="-2"/>
      <point x="507" y="-10"/>
      <point x="475" y="-10" type="curve" smooth="yes"/>
      <point x="418" y="-10"/>
      <point x="360" y="-1"/>
      <point x="342" y="59" type="curve"/>
      <point x="310" y="24"/>
      <point x="271" y="-10"/>
      <point x="197" y="-10" type="curve" smooth="yes"/>
      <point x="89" y="-10"/>
      <point x="18" y="56"/>
      <point x="18" y="193" type="curve" smooth="yes"/>
      <point x="18" y="413"/>
      <point x="137" y="521"/>
      <point x="253" y="521" type="curve" smooth="yes"/>
      <point x="324" y="521"/>
      <point x="360" y="493"/>
      <point x="376" y="458" type="curve"/>
      <point x="395" y="592" type="line"/>
      <point x="285" y="592" type="line"/>
      <point x="297" y="666" type="line"/>
      <point x="405" y="666" type="line"/>
      <point x="413" y="720" type="line"/>
      <point x="611" y="720" type="line"/>
      <point x="603" y="666" type="line"/>
      <point x="679" y="666" type="line"/>
      <point x="667" y="592" type="line"/>
    </contour>
    <contour>
      <point x="337" y="181" type="curve" smooth="yes"/>
      <point x="347" y="253" type="line" smooth="yes"/>
      <point x="352" y="290"/>
      <point x="358" y="329"/>
      <point x="358" y="338" type="curve" smooth="yes"/>
      <point x="358" y="377"/>
      <point x="336" y="396"/>
      <point x="305" y="396" type="curve" smooth="yes"/>
      <point x="268" y="396"/>
      <point x="238" y="365"/>
      <point x="233" y="326" type="curve" smooth="yes"/>
      <point x="212" y="178"/>
      <point x="212" y="174"/>
      <point x="212" y="170" type="curve" smooth="yes"/>
      <point x="212" y="135"/>
      <point x="234" y="111"/>
      <point x="265" y="111" type="curve" smooth="yes"/>
      <point x="308" y="111"/>
      <point x="331" y="142"/>
    </contour>
  </outline>
</glyph>
<glyph name="Emacron" format="1">
  <advance width="600"/>
  <unicode hex="0112"/>
  <outline>
    <contour>
      <point x="300" y="0" type="move" name="Bottom"/>
    </contour>
    <contour>
      <point x="519" y="837" type="line"/>
      <point x="201" y="837" type="line"/>
      <point x="201" y="911" type="line"/>
      <point x="519" y="911" type="line"/>
    </contour>
    <contour>
      <point x="586" y="528" type="line"/>
      <point x="297" y="528" type="line"/>
      <point x="282" y="428" type="line"/>
      <point x="560" y="428" type="line"/>
      <point x="539" y="275" type="line"/>
      <point x="261" y="275" type="line"/>
      <point x="245" y="164" type="line"/>
      <point x="531" y="164" type="line"/>
      <point x="531" y="0" type="line"/>
      <point x="16" y="0" type="line"/>
      <point x="113" y="686" type="line"/>
      <point x="628" y="686" type="line"/>
    </contour>
  </outline>
</glyph>
<glyph name="Edotaccent" format="1">
  <advance width="600"/>
  <unicode hex="0116"/>
  <outline>
    <contour>
      <point x="300" y="0" type="move" name="Bottom"/>
    </contour>
    <contour>
      <point x="379" y="911" type="curve" smooth="yes"/>
      <point x="414" y="911"/>
      <point x="437" y="886"/>
      <point x="437" y="854" type="curve" smooth="yes"/>
      <point x="437" y="814"/>
      <point x="400" y="779"/>
      <point x="359" y="779" type="curve" smooth="yes"/>
      <point x="327" y="779"/>
      <point x="303" y="803"/>
      <point x="303" y="835" type="curve" smooth="yes"/>
      <point x="303" y="876"/>
      <point x="338" y="911"/>
    </contour>
    <contour>
      <point x="586" y="528" type="line"/>
      <point x="297" y="528" type="line"/>
      <point x="282" y="428" type="line"/>
      <point x="560" y="428" type="line"/>
      <point x="539" y="275" type="line"/>
      <point x="261" y="275" type="line"/>
      <point x="245" y="164" type="line"/>
      <point x="531" y="164" type="line"/>
      <point x="531" y="0" type="line"/>
      <point x="16" y="0" type="line"/>
      <point x="113" y="686" type="line"/>
      <point x="628" y="686" type="line"/>
    </contour>
  </outline>
</glyph>
<glyph name="edotaccent" format="1">
  <advance width="600"/>
  <unicode hex="0117"/>
  <outline>
    <contour>
      <point x="300" y="0" type="move" name="Bottom"/>
    </contour>
    <contour>
      <point x="369" y="736" type="curve" smooth="yes"/>
      <point x="404" y="736"/>
      <point x="427" y="711"/>
      <point x="427" y="679" type="curve" smooth="yes"/>
      <point x="427" y="639"/>
      <point x="390" y="604"/>
      <point x="349" y="604" type="curve" smooth="yes"/>
      <point x="317" y="604"/>
      <point x="293" y="628"/>
      <point x="293" y="660" type="curve" smooth="yes"/>
      <point x="293" y="701"/>
      <point x="328" y="736"/>
    </contour>
    <contour>
      <point x="332" y="521" type="curve" smooth="yes"/>
      <point x="357" y="521" type="line" smooth="yes"/>
      <point x="500" y="521"/>
      <point x="574" y="443"/>
      <point x="574" y="330" type="curve"/>
      <point x="572" y="303" type="line" smooth="yes"/>
      <point x="571" y="288"/>
      <point x="568" y="266"/>
      <point x="563" y="229" type="curve"/>
      <point x="230" y="229" type="line"/>
      <point x="226" y="204" type="line" smooth="yes"/>
      <point x="224" y="191"/>
      <point x="221" y="175"/>
      <point x="222" y="170" type="curve" smooth="yes"/>
      <point x="222" y="131"/>
      <point x="251" y="111"/>
      <point x="290" y="111" type="curve" smooth="yes"/>
      <point x="338" y="111"/>
      <point x="367" y="143"/>
      <point x="374" y="192" type="curve"/>
      <point x="557" y="192" type="line"/>
      <point x="541" y="79"/>
      <point x="436" y="-10"/>
      <point x="279" y="-10" type="curve" smooth="yes"/>
      <point x="264" y="-10" type="line" smooth="yes"/>
      <point x="120" y="-10"/>
      <point x="16" y="67"/>
      <point x="16" y="200" type="curve" smooth="yes"/>
      <point x="16" y="401"/>
      <point x="148" y="521"/>
    </contour>
    <contour>
      <point x="323" y="400" type="curve" smooth="yes"/>
      <point x="283" y="400"/>
      <point x="249" y="369"/>
      <point x="244" y="330" type="curve" smooth="yes"/>
      <point x="242" y="316" type="line"/>
      <point x="380" y="316" type="line"/>
      <point x="380" y="320"/>
      <point x="382" y="327"/>
      <point x="382" y="339" type="curve" smooth="yes"/>
      <point x="382" y="374"/>
      <point x="358" y="400"/>
    </contour>
  </outline>
</glyph>
<glyph name="Eogonek" format="1">
  <advance width="600"/>
  <unicode hex="0118"/>
  <outline>
    <contour>
      <point x="300" y="0" type="move" name="Bottom"/>
    </contour>
    <contour>
      <point x="297" y="528" type="line"/>
      <point x="282" y="428" type="line"/>
      <point x="560" y="428" type="line"/>
      <point x="539" y="275" type="line"/>
      <point x="261" y="275" type="line"/>
      <point x="245" y="164" type="line"/>
      <point x="531" y="164" type="line"/>
      <point x="531" y="0" type="line"/>
      <point x="510" y="0" type="line"/>
      <point x="487" y="-13"/>
      <point x="454" y="-31"/>
      <point x="454" y="-62" type="curve" smooth="yes"/>
      <point x="454" y="-83"/>
      <point x="475" y="-90"/>
      <point x="494" y="-90" type="curve" smooth="yes"/>
      <point x="517" y="-90"/>
      <point x="540" y="-84"/>
      <point x="563" y="-76" type="curve"/>
      <point x="570" y="-119" type="line"/>
      <point x="535" y="-135"/>
      <point x="498" y="-143"/>
      <point x="462" y="-143" type="curve" smooth="yes"/>
      <point x="419" y="-143"/>
      <point x="375" y="-128"/>
      <point x="375" y="-83" type="curve" smooth="yes"/>
      <point x="375" y="-44"/>
      <point x="408" y="-19"/>
      <point x="440" y="0" type="curve"/>
      <point x="16" y="0" type="line"/>
      <point x="113" y="686" type="line"/>
      <point x="628" y="686" type="line"/>
      <point x="586" y="528" type="line"/>
    </contour>
  </outline>
</glyph>
<glyph name="eogonek" format="1">
  <advance width="600"/>
  <unicode hex="0119"/>
  <outline>
    <contour>
      <point x="300" y="0" type="move" name="Bottom"/>
    </contour>
    <contour>
      <point x="332" y="521" type="curve" smooth="yes"/>
      <point x="357" y="521" type="line" smooth="yes"/>
      <point x="500" y="521"/>
      <point x="574" y="443"/>
      <point x="574" y="330" type="curve"/>
      <point x="572" y="303" type="line" smooth="yes"/>
      <point x="571" y="288"/>
      <point x="568" y="266"/>
      <point x="563" y="229" type="curve"/>
      <point x="230" y="229" type="line"/>
      <point x="226" y="204" type="line" smooth="yes"/>
      <point x="224" y="191"/>
      <point x="221" y="175"/>
      <point x="222" y="170" type="curve" smooth="yes"/>
      <point x="222" y="131"/>
      <point x="251" y="111"/>
      <point x="290" y="111" type="curve" smooth="yes"/>
      <point x="338" y="111"/>
      <point x="367" y="143"/>
      <point x="374" y="192" type="curve"/>
      <point x="557" y="192" type="line"/>
      <point x="544" y="99"/>
      <point x="470" y="22"/>
      <point x="356" y="-2" type="curve"/>
      <point x="333" y="-15"/>
      <point x="304" y="-33"/>
      <point x="304" y="-62" type="curve" smooth="yes"/>
      <point x="304" y="-83"/>
      <point x="325" y="-90"/>
      <point x="344" y="-90" type="curve" smooth="yes"/>
      <point x="367" y="-90"/>
      <point x="390" y="-84"/>
      <point x="413" y="-76" type="curve"/>
      <point x="420" y="-119" type="line"/>
      <point x="385" y="-135"/>
      <point x="348" y="-143"/>
      <point x="312" y="-143" type="curve" smooth="yes"/>
      <point x="269" y="-143"/>
      <point x="225" y="-128"/>
      <point x="225" y="-83" type="curve" smooth="yes"/>
      <point x="225" y="-50"/>
      <point x="248" y="-28"/>
      <point x="274" y="-10" type="curve"/>
      <point x="264" y="-10" type="line" smooth="yes"/>
      <point x="120" y="-10"/>
      <point x="16" y="67"/>
      <point x="16" y="200" type="curve" smooth="yes"/>
      <point x="16" y="401"/>
      <point x="148" y="521"/>
    </contour>
    <contour>
      <point x="242" y="316" type="line"/>
      <point x="380" y="316" type="line"/>
      <point x="380" y="320"/>
      <point x="382" y="327"/>
      <point x="382" y="339" type="curve" smooth="yes"/>
      <point x="382" y="374"/>
      <point x="358" y="400"/>
      <point x="323" y="400" type="curve" smooth="yes"/>
      <point x="283" y="400"/>
      <point x="249" y="369"/>
      <point x="244" y="330" type="curve" smooth="yes"/>
    </contour>
  </outline>
</glyph>
<glyph name="ecaron" format="1">
  <advance width="600"/>
  <unicode hex="011B"/>
  <outline>
    <contour>
      <point x="300" y="0" type="move" name="Bottom"/>
    </contour>
    <contour>
      <point x="423" y="575" type="line"/>
      <point x="295" y="575" type="line"/>
      <point x="177" y="720" type="line"/>
      <point x="307" y="720" type="line"/>
      <point x="370" y="643" type="line"/>
      <point x="455" y="720" type="line"/>
      <point x="583" y="720" type="line"/>
    </contour>
    <contour>
      <point x="332" y="521" type="curve" smooth="yes"/>
      <point x="357" y="521" type="line" smooth="yes"/>
      <point x="500" y="521"/>
      <point x="574" y="443"/>
      <point x="574" y="330" type="curve"/>
      <point x="572" y="303" type="line" smooth="yes"/>
      <point x="571" y="288"/>
      <point x="568" y="266"/>
      <point x="563" y="229" type="curve"/>
      <point x="230" y="229" type="line"/>
      <point x="226" y="204" type="line" smooth="yes"/>
      <point x="224" y="191"/>
      <point x="221" y="175"/>
      <point x="222" y="170" type="curve" smooth="yes"/>
      <point x="222" y="131"/>
      <point x="251" y="111"/>
      <point x="290" y="111" type="curve" smooth="yes"/>
      <point x="338" y="111"/>
      <point x="367" y="143"/>
      <point x="374" y="192" type="curve"/>
      <point x="557" y="192" type="line"/>
      <point x="541" y="79"/>
      <point x="436" y="-10"/>
      <point x="279" y="-10" type="curve" smooth="yes"/>
      <point x="264" y="-10" type="line" smooth="yes"/>
      <point x="120" y="-10"/>
      <point x="16" y="67"/>
      <point x="16" y="200" type="curve" smooth="yes"/>
      <point x="16" y="401"/>
      <point x="148" y="521"/>
    </contour>
    <contour>
      <point x="323" y="400" type="curve" smooth="yes"/>
      <point x="283" y="400"/>
      <point x="249" y="369"/>
      <point x="244" y="330" type="curve" smooth="yes"/>
      <point x="242" y="316" type="line"/>
      <point x="380" y="316" type="line"/>
      <point x="380" y="320"/>
      <point x="382" y="327"/>
      <point x="382" y="339" type="curve" smooth="yes"/>
      <point x="382" y="374"/>
      <point x="358" y="400"/>
    </contour>
  </outline>
</glyph>
<glyph name="Gbreve" format="1">
  <advance width="699"/>
  <unicode hex="011E"/>
  <outline>
    <contour>
      <point x="350" y="0" type="move" name="Bottom"/>
    </contour>
    <contour>
      <point x="527" y="912" type="curve"/>
      <point x="622" y="912" type="line"/>
      <point x="622" y="856"/>
      <point x="536" y="788"/>
      <point x="429" y="788" type="curve" smooth="yes"/>
      <point x="322" y="788"/>
      <point x="237" y="856"/>
      <point x="237" y="912" type="curve"/>
      <point x="333" y="912" type="line"/>
      <point x="333" y="901"/>
      <point x="376" y="874"/>
      <point x="429" y="874" type="curve" smooth="yes"/>
      <point x="483" y="874"/>
      <point x="527" y="901"/>
    </contour>
    <contour>
      <point x="407" y="696" type="curve" smooth="yes"/>
      <point x="435" y="696" type="line" smooth="yes"/>
      <point x="573" y="696"/>
      <point x="680" y="607"/>
      <point x="680" y="479" type="curve" smooth="yes"/>
      <point x="680" y="468"/>
      <point x="679" y="457"/>
      <point x="678" y="446" type="curve" smooth="yes"/>
      <point x="677" y="439" type="line"/>
      <point x="483" y="439" type="line" smooth="yes"/>
      <point x="484" y="442"/>
      <point x="484" y="446"/>
      <point x="484" y="449" type="curve" smooth="yes"/>
      <point x="484" y="459" type="line" smooth="yes"/>
      <point x="484" y="516"/>
      <point x="446" y="540"/>
      <point x="397" y="540" type="curve" smooth="yes"/>
      <point x="392" y="540" type="line" smooth="yes"/>
      <point x="328" y="540"/>
      <point x="286" y="496"/>
      <point x="278" y="440" type="curve" smooth="yes"/>
      <point x="251" y="247" type="line" smooth="yes"/>
      <point x="250" y="244"/>
      <point x="250" y="242"/>
      <point x="250" y="240" type="curve" smooth="yes"/>
      <point x="250" y="233" type="line" smooth="yes"/>
      <point x="250" y="184"/>
      <point x="286" y="147"/>
      <point x="337" y="147" type="curve" smooth="yes"/>
      <point x="355" y="147" type="line" smooth="yes"/>
      <point x="411" y="147"/>
      <point x="447" y="185"/>
      <point x="456" y="248" type="curve"/>
      <point x="340" y="248" type="line"/>
      <point x="359" y="384" type="line"/>
      <point x="669" y="384" type="line"/>
      <point x="636" y="144" type="line" smooth="yes"/>
      <point x="624" y="74"/>
      <point x="622" y="29"/>
      <point x="622" y="0" type="curve"/>
      <point x="510" y="0" type="line"/>
      <point x="493" y="73" type="line"/>
      <point x="443" y="25"/>
      <point x="385" y="-10"/>
      <point x="285" y="-10" type="curve" smooth="yes"/>
      <point x="275" y="-10" type="line" smooth="yes"/>
      <point x="125" y="-10"/>
      <point x="28" y="100"/>
      <point x="28" y="244" type="curve" smooth="yes"/>
      <point x="28" y="259"/>
      <point x="29" y="274"/>
      <point x="31" y="290" type="curve" smooth="yes"/>
      <point x="46" y="396" type="line" smooth="yes"/>
      <point x="69" y="562"/>
      <point x="199" y="696"/>
    </contour>
  </outline>
</glyph>
<glyph name="gcommaaccent" format="1">
  <advance width="600"/>
  <unicode hex="0123"/>
  <outline>
    <contour>
      <point x="255" y="700" type="line"/>
      <point x="299" y="811" type="line"/>
      <point x="393" y="811" type="line"/>
      <point x="365" y="732" type="line"/>
      <point x="450" y="732" type="line"/>
      <point x="429" y="581" type="line"/>
      <point x="238" y="581" type="line"/>
    </contour>
    <contour>
      <point x="275" y="521" type="curve" smooth="yes"/>
      <point x="340" y="521"/>
      <point x="398" y="495"/>
      <point x="430" y="436" type="curve"/>
      <point x="509" y="511" type="line"/>
      <point x="579" y="511" type="line"/>
      <point x="513" y="40" type="line" smooth="yes"/>
      <point x="491" y="-116"/>
      <point x="381" y="-186"/>
      <point x="245" y="-186" type="curve" smooth="yes"/>
      <point x="121" y="-186"/>
      <point x="-3" y="-147"/>
      <point x="-3" y="-19" type="curve"/>
      <point x="196" y="-19" type="line"/>
      <point x="196" y="-36"/>
      <point x="211" y="-63"/>
      <point x="252" y="-63" type="curve" smooth="yes"/>
      <point x="298" y="-63"/>
      <point x="307" y="-21"/>
      <point x="312" y="7" type="curve" smooth="yes"/>
      <point x="321" y="82" type="line"/>
      <point x="284" y="43"/>
      <point x="234" y="19"/>
      <point x="179" y="19" type="curve" smooth="yes"/>
      <point x="64" y="19"/>
      <point x="18" y="112"/>
      <point x="18" y="216" type="curve" smooth="yes"/>
      <point x="18" y="355"/>
      <point x="92" y="521"/>
    </contour>
    <contour>
      <point x="303" y="400" type="curve" smooth="yes"/>
      <point x="267" y="400"/>
      <point x="237" y="371"/>
      <point x="231" y="330" type="curve" smooth="yes"/>
      <point x="222" y="270" type="line" smooth="yes"/>
      <point x="217" y="239"/>
      <point x="214" y="207"/>
      <point x="214" y="203" type="curve" smooth="yes"/>
      <point x="214" y="168"/>
      <point x="236" y="144"/>
      <point x="267" y="144" type="curve" smooth="yes"/>
      <point x="310" y="144"/>
      <point x="334" y="175"/>
      <point x="339" y="214" type="curve" smooth="yes"/>
      <point x="347" y="270"/>
      <point x="356" y="325"/>
      <point x="356" y="342" type="curve" smooth="yes"/>
      <point x="356" y="381"/>
      <point x="334" y="400"/>
    </contour>
  </outline>
</glyph>
<glyph name="Imacron" format="1">
  <advance width="446"/>
  <unicode hex="012A"/>
  <outline>
    <contour>
      <point x="452" y="837" type="line"/>
      <point x="134" y="837" type="line"/>
      <point x="134" y="911" type="line"/>
      <point x="452" y="911" type="line"/>
    </contour>
    <contour>
      <point x="445" y="539" type="line"/>
      <point x="364" y="539" type="line"/>
      <point x="309" y="148" type="line"/>
      <point x="390" y="148" type="line"/>
      <point x="369" y="0" type="line"/>
      <point x="-5" y="0" type="line"/>
      <point x="16" y="148" type="line"/>
      <point x="97" y="148" type="line"/>
      <point x="152" y="539" type="line"/>
      <point x="71" y="539" type="line"/>
      <point x="92" y="686" type="line"/>
      <point x="466" y="686" type="line"/>
    </contour>
  </outline>
</glyph>
<glyph name="imacron" format="1">
  <advance width="296"/>
  <unicode hex="012B"/>
  <outline>
    <contour>
      <point x="348" y="662" type="line"/>
      <point x="30" y="662" type="line"/>
      <point x="30" y="736" type="line"/>
      <point x="348" y="736" type="line"/>
    </contour>
    <contour>
      <point x="206" y="0" type="line"/>
      <point x="9" y="0" type="line"/>
      <point x="80" y="511" type="line"/>
      <point x="277" y="511" type="line"/>
    </contour>
  </outline>
</glyph>
<glyph name="Iogonek" format="1">
  <advance width="446"/>
  <unicode hex="012E"/>
  <outline>
    <contour>
      <point x="364" y="539" type="line"/>
      <point x="309" y="148" type="line"/>
      <point x="390" y="148" type="line"/>
      <point x="369" y="0" type="line"/>
      <point x="351" y="0" type="line"/>
      <point x="328" y="-13"/>
      <point x="295" y="-31"/>
      <point x="295" y="-62" type="curve" smooth="yes"/>
      <point x="295" y="-83"/>
      <point x="316" y="-90"/>
      <point x="335" y="-90" type="curve" smooth="yes"/>
      <point x="358" y="-90"/>
      <point x="381" y="-84"/>
      <point x="404" y="-76" type="curve"/>
      <point x="411" y="-119" type="line"/>
      <point x="376" y="-135"/>
      <point x="339" y="-143"/>
      <point x="303" y="-143" type="curve" smooth="yes"/>
      <point x="260" y="-143"/>
      <point x="216" y="-128"/>
      <point x="216" y="-83" type="curve" smooth="yes"/>
      <point x="216" y="-44"/>
      <point x="249" y="-19"/>
      <point x="281" y="0" type="curve"/>
      <point x="-5" y="0" type="line"/>
      <point x="16" y="148" type="line"/>
      <point x="97" y="148" type="line"/>
      <point x="152" y="539" type="line"/>
      <point x="71" y="539" type="line"/>
      <point x="92" y="686" type="line"/>
      <point x="466" y="686" type="line"/>
      <point x="445" y="539" type="line"/>
    </contour>
  </outline>
</glyph>
<glyph name="iogonek" format="1">
  <advance width="296"/>
  <unicode hex="012F"/>
  <outline>
    <contour>
      <point x="306" y="720" type="line"/>
      <point x="286" y="577" type="line"/>
      <point x="89" y="577" type="line"/>
      <point x="109" y="720" type="line"/>
    </contour>
    <contour>
      <point x="206" y="0" type="line"/>
      <point x="196" y="0" type="line"/>
      <point x="173" y="-13"/>
      <point x="140" y="-31"/>
      <point x="140" y="-62" type="curve" smooth="yes"/>
      <point x="140" y="-83"/>
      <point x="161" y="-90"/>
      <point x="180" y="-90" type="curve" smooth="yes"/>
      <point x="203" y="-90"/>
      <point x="226" y="-84"/>
      <point x="249" y="-76" type="curve"/>
      <point x="256" y="-119" type="line"/>
      <point x="221" y="-135"/>
      <point x="184" y="-143"/>
      <point x="148" y="-143" type="curve" smooth="yes"/>
      <point x="105" y="-143"/>
      <point x="61" y="-128"/>
      <point x="61" y="-83" type="curve" smooth="yes"/>
      <point x="61" y="-44"/>
      <point x="94" y="-19"/>
      <point x="126" y="0" type="curve"/>
      <point x="9" y="0" type="line"/>
      <point x="80" y="511" type="line"/>
      <point x="277" y="511" type="line"/>
    </contour>
  </outline>
</glyph>
<glyph name="Idotaccent" format="1">
  <advance width="446"/>
  <unicode hex="0130"/>
  <outline>
    <contour>
      <point x="312" y="911" type="curve" smooth="yes"/>
      <point x="347" y="911"/>
      <point x="370" y="886"/>
      <point x="370" y="854" type="curve" smooth="yes"/>
      <point x="370" y="814"/>
      <point x="333" y="779"/>
      <point x="292" y="779" type="curve" smooth="yes"/>
      <point x="260" y="779"/>
      <point x="236" y="803"/>
      <point x="236" y="835" type="curve" smooth="yes"/>
      <point x="236" y="876"/>
      <point x="271" y="911"/>
    </contour>
    <contour>
      <point x="445" y="539" type="line"/>
      <point x="364" y="539" type="line"/>
      <point x="309" y="148" type="line"/>
      <point x="390" y="148" type="line"/>
      <point x="369" y="0" type="line"/>
      <point x="-5" y="0" type="line"/>
      <point x="16" y="148" type="line"/>
      <point x="97" y="148" type="line"/>
      <point x="152" y="539" type="line"/>
      <point x="71" y="539" type="line"/>
      <point x="92" y="686" type="line"/>
      <point x="466" y="686" type="line"/>
    </contour>
  </outline>
</glyph>
<glyph name="dotlessi" format="1">
  <advance width="296"/>
  <unicode hex="0131"/>
  <outline>
    <contour>
      <point x="206" y="0" type="line"/>
      <point x="9" y="0" type="line"/>
      <point x="80" y="511" type="line"/>
      <point x="277" y="511" type="line"/>
    </contour>
  </outline>
</glyph>
<glyph name="Kcommaaccent" format="1">
  <advance width="684"/>
  <unicode hex="0136"/>
  <outline>
    <contour>
      <point x="342" y="0" type="move" name="Bottom"/>
    </contour>
    <contour>
      <point x="497" y="411" type="line"/>
      <point x="654" y="0" type="line"/>
      <point x="419" y="0" type="line"/>
      <point x="335" y="248" type="line"/>
      <point x="242" y="152" type="line"/>
      <point x="220" y="0" type="line"/>
      <point x="16" y="0" type="line"/>
      <point x="113" y="686" type="line"/>
      <point x="317" y="686" type="line"/>
      <point x="279" y="415" type="line"/>
      <point x="513" y="686" type="line"/>
      <point x="745" y="686" type="line"/>
    </contour>
    <contour>
      <point x="417" y="-139" type="line"/>
      <point x="373" y="-250" type="line"/>
      <point x="279" y="-250" type="line"/>
      <point x="307" y="-171" type="line"/>
      <point x="222" y="-171" type="line"/>
      <point x="243" y="-20" type="line"/>
      <point x="434" y="-20" type="line"/>
    </contour>
  </outline>
</glyph>
<glyph name="kcommaaccent" format="1">
  <advance width="601"/>
  <unicode hex="0137"/>
  <outline>
    <contour>
      <point x="301" y="0" type="move" name="Bottom"/>
    </contour>
    <contour>
      <point x="251" y="321" type="line"/>
      <point x="408" y="511" type="line"/>
      <point x="634" y="511" type="line"/>
      <point x="422" y="280" type="line"/>
      <point x="565" y="0" type="line"/>
      <point x="332" y="0" type="line"/>
      <point x="262" y="145" type="line"/>
      <point x="222" y="114" type="line"/>
      <point x="206" y="0" type="line"/>
      <point x="9" y="0" type="line"/>
      <point x="109" y="720" type="line"/>
      <point x="307" y="720" type="line"/>
    </contour>
    <contour>
      <point x="376" y="-139" type="line"/>
      <point x="332" y="-250" type="line"/>
      <point x="238" y="-250" type="line"/>
      <point x="266" y="-171" type="line"/>
      <point x="181" y="-171" type="line"/>
      <point x="202" y="-20" type="line"/>
      <point x="393" y="-20" type="line"/>
    </contour>
  </outline>
</glyph>
<glyph name="Lacute" format="1">
  <advance width="540"/>
  <unicode hex="0139"/>
  <outline>
    <contour>
      <point x="270" y="0" type="move" name="Bottom"/>
    </contour>
    <contour>
      <point x="462" y="892" type="line"/>
      <point x="316" y="750" type="line"/>
      <point x="198" y="750" type="line"/>
      <point x="310" y="895" type="line"/>
      <point x="461" y="895" type="line"/>
    </contour>
    <contour>
      <point x="252" y="168" type="line"/>
      <point x="497" y="168" type="line"/>
      <point x="497" y="0" type="line"/>
      <point x="16" y="0" type="line"/>
      <point x="113" y="686" type="line"/>
      <point x="325" y="686" type="line"/>
    </contour>
  </outline>
</glyph>
<glyph name="lacute" format="1">
  <advance width="297"/>
  <unicode hex="013A"/>
  <outline>
    <contour>
      <point x="108" y="0" type="move" name="Bottom"/>
    </contour>
    <contour>
      <point x="395" y="892" type="line"/>
      <point x="249" y="750" type="line"/>
      <point x="131" y="750" type="line"/>
      <point x="243" y="895" type="line"/>
      <point x="394" y="895" type="line"/>
    </contour>
    <contour>
      <point x="206" y="0" type="line"/>
      <point x="9" y="0" type="line"/>
      <point x="109" y="720" type="line"/>
      <point x="307" y="720" type="line"/>
    </contour>
  </outline>
</glyph>
<glyph name="lcommaaccent" format="1">
  <advance width="297"/>
  <unicode hex="013C"/>
  <outline>
    <contour>
      <point x="108" y="0" type="move" name="Bottom"/>
    </contour>
    <contour>
      <point x="206" y="0" type="line"/>
      <point x="9" y="0" type="line"/>
      <point x="109" y="720" type="line"/>
      <point x="307" y="720" type="line"/>
    </contour>
    <contour>
      <point x="183" y="-139" type="line"/>
      <point x="139" y="-250" type="line"/>
      <point x="45" y="-250" type="line"/>
      <point x="73" y="-171" type="line"/>
      <point x="-12" y="-171" type="line"/>
      <point x="9" y="-20" type="line"/>
      <point x="200" y="-20" type="line"/>
    </contour>
  </outline>
</glyph>
<glyph name="Lcaron" format="1">
  <advance width="540"/>
  <unicode hex="013D"/>
  <outline>
    <contour>
      <point x="270" y="0" type="move" name="Bottom"/>
    </contour>
    <contour>
      <point x="252" y="168" type="line"/>
      <point x="497" y="168" type="line"/>
      <point x="497" y="0" type="line"/>
      <point x="16" y="0" type="line"/>
      <point x="113" y="686" type="line"/>
      <point x="325" y="686" type="line"/>
    </contour>
    <contour>
      <point x="586" y="525" type="line"/>
      <point x="510" y="338" type="line"/>
      <point x="416" y="338" type="line"/>
      <point x="476" y="503" type="line"/>
      <point x="392" y="503" type="line"/>
      <point x="418" y="686" type="line"/>
      <point x="609" y="686" type="line"/>
    </contour>
  </outline>
</glyph>
<glyph name="lcaron" format="1">
  <advance width="297"/>
  <unicode hex="013E"/>
  <outline>
    <contour>
      <point x="108" y="0" type="move" name="Bottom"/>
    </contour>
    <contour>
      <point x="206" y="0" type="line"/>
      <point x="9" y="0" type="line"/>
      <point x="109" y="720" type="line"/>
      <point x="307" y="720" type="line"/>
    </contour>
    <contour>
      <point x="526" y="525" type="line"/>
      <point x="450" y="338" type="line"/>
      <point x="356" y="338" type="line"/>
      <point x="416" y="503" type="line"/>
      <point x="332" y="503" type="line"/>
      <point x="358" y="686" type="line"/>
      <point x="549" y="686" type="line"/>
    </contour>
  </outline>
</glyph>
